<svg width="368" height="323" viewBox="0 0 368 323" fill="none" xmlns="http://www.w3.org/2000/svg">
<ellipse cx="228" cy="149" rx="140" ry="139" fill="#3C4A3E"/>
<path d="M46.675 125.2C47.213 125.267 47.7511 125.334 48.29 125.4C66.2115 127.6 84.3701 129.069 102.406 127.43C110.698 126.676 118.704 125.264 126.52 122.573C131.91 120.716 138.435 117.911 138.065 111.118C137.929 108.598 136.796 106.258 135.922 103.89C133.742 97.9815 133.118 91.5072 134.13 85.2915C134.924 80.4114 136.695 75.7386 137.607 70.8793C138.255 67.4177 138.464 63.8913 138.67 60.3757C138.93 55.939 139.19 51.5032 139.45 47.0666C139.632 43.9907 139.812 40.9059 139.624 37.83C138.648 21.8065 127.171 6.37679 111.847 1.59766C109.742 0.941582 107.584 0.440498 105.392 0.195374C101.29 -0.265152 97.1465 0.174652 93.0415 0.613548C88.3976 1.10921 83.687 1.20475 79.3152 2.87379C75.1552 4.46263 71.2331 6.58409 67.7111 9.31927C60.0851 15.2411 54.5021 23.7432 52.0994 33.0942C49.5895 42.8633 50.3448 53.7247 45.0844 62.3313C43.0278 65.6964 40.1484 68.5127 38.1901 71.9373C35.4117 76.7967 34.6745 82.532 34.2158 88.1114C33.2415 99.9633 33.456 112.597 39.6212 122.766C41.1218 125.24 43.8029 124.839 46.675 125.2Z" fill="#9F533D"/>
<path d="M129.035 60.3892C128.142 61.5347 127.159 62.6432 126.599 63.9833C126.003 65.4081 125.929 66.9861 125.746 68.52C124.33 80.416 115.278 91.0449 103.761 94.3388C101.62 94.9517 99.3963 95.3302 97.1703 95.2671C88.4943 95.0184 82.3949 88.2728 76.254 83.0656C69.7743 77.57 64.3013 70.7 61.3155 62.6837C55.3297 46.6142 61.1894 28.9369 76.8425 21.3893C82.9672 18.4369 89.6668 16.9093 96.3267 15.5431C102.488 14.2787 108.909 13.1368 115.012 14.6599C120.409 16.0072 125.177 19.4093 128.653 23.7522C137.46 34.7551 137.763 49.1944 129.035 60.3892Z" fill="#EFB28C"/>
<path d="M12.8773 230.717C8.23781 229.888 1.94463 226.959 0.544144 222.05C-0.130864 219.685 -0.03623 217.176 0.0890386 214.719C1.44987 187.992 6.6057 162.03 11.675 135.855C13.2657 127.638 13.956 118.356 17.8249 110.849C23.4863 99.8649 35.7176 93.9268 47.2306 91.3025C52.6946 90.057 56.0237 89.2153 59.3213 84.1072C61.2057 81.1882 62.4602 77.9168 63.7011 74.6724C65.4243 70.1681 67.1618 65.6098 67.7566 60.8235C82.8447 57.2312 98.5754 54.5925 114.006 56.1534C115.962 56.3507 113.59 75.8791 113.611 77.3796C113.665 81.1233 114.779 84.9949 117.411 87.658C120.542 90.8266 121.379 93.3014 125.733 94.9317C130.064 96.5529 134.093 98.322 137.36 101.824C141.929 106.723 143.478 113.633 144.832 120.194C147.575 133.495 150.239 146.813 152.821 160.146C154.703 169.863 162.163 186.245 151.468 192.62C141.417 198.604 130.151 202.192 118.968 205.626C100.819 211.2 82.5726 216.507 64.0887 220.869C54.8648 223.045 44.9442 223.963 35.905 226.683C28.1041 229.03 21.4937 232.258 12.8773 230.717Z" fill="#EFB28C"/>
<path d="M179.108 200.851C179.778 193.701 181.538 186.705 183.295 179.742C185.187 172.24 187.079 164.736 188.972 157.234C190.489 151.216 191.006 143.561 194.466 138.283C196.121 135.76 199.063 134.557 201.233 132.465C206.414 127.469 208.247 122.624 207.93 115.514C207.883 114.471 207.82 113.382 207.288 112.484C206.768 111.604 205.859 111.017 205.297 110.162C204.537 109.008 204.51 107.532 204.592 106.153C204.739 103.703 205.151 101.271 205.819 98.9099C206.174 97.6545 206.59 96.2495 205.967 95.1022C205.473 94.1938 204.46 93.7171 203.514 93.3007C201.54 92.431 199.566 91.5614 197.593 90.6926C196.445 90.187 195.074 89.6914 194 90.3384C192.609 91.1793 192.781 93.198 192.965 94.566C191.524 94.1704 191.046 92.9213 189.441 93.5548C188.289 94.01 187.651 95.7268 187.213 96.7623C185.936 99.7777 184.311 101.915 181.648 103.838C175.69 108.14 174.512 118.71 173.632 125.601C172.28 136.193 167.446 145.979 162.682 155.536C157.472 165.99 152.262 176.445 147.051 186.899C145.236 190.54 148.961 195.562 152.231 197.981C157.491 201.87 164.159 203.807 170.684 203.342C174.53 203.067 176.442 203.635 179.108 200.851Z" fill="#EFB28C"/>
<path d="M127.986 252.217C109.227 252.404 90.5227 250.65 71.7756 250.327C53.9505 250.02 36.303 251.457 18.4734 251.165C16.5926 251.133 14.5243 251.01 13.1643 249.712C11.4484 248.074 11.6061 245.34 11.89 242.986C13.1445 232.597 14.034 222.156 15.6977 211.822C16.0852 209.419 16.525 206.955 17.7921 204.876C20.411 200.579 25.8489 198.944 29.3618 195.34C33.3587 191.239 34.3546 185.371 34.8998 179.933C35.2747 176.198 35.8344 172.472 36.3255 168.75C36.5643 166.937 36.4075 159.938 37.6584 158.77C43.8912 152.949 45.3863 143.711 45.6837 135.187C46.0325 125.207 45.2322 115.185 43.3027 105.385C42.5998 101.812 41.8824 99.4859 41.092 95.9298C40.8848 94.9979 40.7036 93.9282 41.2759 93.163C41.6256 92.6953 42.1888 92.4475 42.7259 92.2186C47.6979 90.1007 52.6699 87.9829 57.6419 85.865C60.3257 90.6351 61.4919 95.2944 62.7851 100.612C65.3121 111.003 66.983 121.425 70.2661 131.666C72.6471 139.093 75.8419 147.085 82.7488 151.406C89.8792 155.867 99.3311 156.361 106.938 152.831C108.524 152.094 110.049 151.184 111.312 149.974C113.787 147.6 115.081 144.261 116.002 140.957C117.896 134.165 118.512 127.021 117.84 120.001C117.565 117.136 116.594 114.853 115.964 112.152C115.122 108.538 115.224 104.427 114.876 100.73C114.611 97.9142 114.555 94.5833 116.789 92.8503C118.801 91.2894 121.672 91.831 124.142 92.4484C124.317 96.7318 124.51 101.107 126.076 105.098C127.69 109.217 129.564 112.62 129.71 117.181C129.86 121.848 128.957 126.555 129.859 131.188C130.876 136.417 133.465 141.371 135.518 146.229C137.687 151.359 138.6 156.986 138.49 162.539C138.407 166.762 137.741 170.958 136.666 175.039C135.659 178.858 133.941 182.264 133.994 186.275C134.042 189.951 135.591 194.093 136.632 197.605C137.84 201.675 139.236 205.686 140.532 209.728C141.705 213.382 143.896 218.111 143.896 221.981C145.068 227.693 145.535 233.548 145.295 239.374C145.146 242.982 145.285 247.507 142.282 250.089C139.085 252.838 131.958 252.178 127.986 252.217Z" fill="#8D8248"/>
<path d="M67.562 61.2646C65.6225 55.9781 64.6348 46.4207 70.3341 45.9007C75.179 45.4582 75.1132 53.0951 78.1584 55.3166C81.602 57.8273 90.3807 55.8951 93.8305 54.0783C95.6636 53.1131 97.2966 51.7685 99.2162 50.9898C100.773 50.3572 102.458 50.1229 104.103 49.7732C112.067 48.0825 119.385 43.5035 124.389 37.0805C122.889 39.0046 125.563 43.4575 126.614 44.9815C128.651 47.9347 131.615 48.5124 131.558 52.3994C131.531 54.483 132.736 56.435 132.761 58.6637C132.768 59.3198 133.024 60.2381 133.67 60.1164C134.035 60.0479 134.225 59.6505 134.357 59.3026C136.92 52.6012 138.204 48.1024 138.204 40.9359C137.174 32.0274 132.53 23.3505 126.362 16.9303C124.782 15.2838 123.075 13.7337 121.117 12.5612C116.743 9.94141 111.464 9.38895 106.371 9.15013C96.946 8.70673 87.3283 9.15373 78.4035 12.2124C69.4779 15.2712 61.2499 21.1966 56.9457 29.5923C55.6966 32.0283 54.7918 34.6292 54.0906 37.2752C51.5077 47.0155 54.4087 58.0274 49.4611 67.1198C46.4249 72.7001 40.8527 76.4852 37.4245 81.8339C33.1636 88.4812 32.6418 96.7976 32.6679 104.693C32.6796 108.181 32.7814 111.718 33.789 115.057C34.7965 118.395 36.8234 121.559 39.8794 123.239C42.5172 124.687 45.7166 124.908 48.6545 124.255C51.3699 123.651 53.9644 122.335 56.7465 122.339C62.0835 122.346 65.7974 125.416 71.2587 123.957C74.6482 123.052 79.2462 121.314 80.2943 117.557C81.2748 114.042 78.2449 110.666 77.962 107.028C77.8745 105.912 78.0485 104.822 78.3215 103.74C78.7649 101.981 79.4688 100.243 79.7419 98.4468C80.7521 91.7977 75.9135 85.8848 73.1756 79.7412C71.7823 76.259 71.3254 73.5454 71.2975 69.7982C71.2912 68.8465 71.2804 67.8723 70.9514 66.9792C70.5387 65.8545 69.669 64.9722 68.9408 64.0214C68.4758 63.4149 67.9954 62.447 67.562 61.2646Z" fill="#9F533D"/>
<path d="M103.843 62.8269C103.223 64.2364 101.024 65.9 99.8589 63.9687C99.3146 63.0666 99.5642 61.8491 100.211 61.0172C101.988 58.7354 105.122 59.9187 103.843 62.8269Z" fill="#6C352A"/>
<path d="M119.751 66.9325C121.454 68.9963 123.526 66.5468 123.212 64.574C122.935 62.8383 121.615 62.7319 120.569 63.3772C119.456 64.0648 118.654 65.6023 119.751 66.9325Z" fill="#6C352A"/>
<path d="M136.866 73.6367C132.785 81.9693 132.227 91.9592 135.355 100.695C136.884 104.964 139.288 109.176 138.903 113.695C138.567 117.618 135.931 121.259 132.307 122.799C131.493 123.145 130.618 123.393 129.735 123.349C128.476 123.286 127.331 122.645 126.161 122.173C123.449 121.081 120.384 120.886 117.555 121.625C115.139 122.256 112.942 123.531 110.582 124.347C108.222 125.164 105.484 125.475 103.323 124.224C101.394 123.106 100.281 120.918 99.9298 118.716C99.5783 116.515 99.8829 114.268 100.188 112.06C100.638 108.807 100.563 105.502 101.042 102.25C101.261 100.76 101.896 95.264 103.251 94.5259C108.271 91.7925 113.307 89.1808 117.429 84.7685C121.328 80.5949 124.312 75.6572 126.914 70.5987C127.839 68.8017 130.57 67.9581 132.591 68.023C134.611 68.0879 136.586 71.6342 136.866 73.6367Z" fill="#9F533D"/>
<path d="M80.9432 221.709C75.8757 224.84 69.9818 226.095 64.2915 227.584C58.4156 229.123 53.8645 231.381 48.733 234.4C35.8591 241.972 28.0844 255.855 22.5131 269.712C21.9931 271.006 22.2634 271.438 23.0574 272.584C23.8523 273.731 25.023 274.554 26.19 275.317C31.1305 278.548 36.4693 281.171 42.046 283.108C40.6743 285.75 40.3967 289.372 41.9243 291.928C42.9319 293.615 44.4702 294.912 46.0383 296.095C49.1079 298.414 53.2589 300.013 55.8877 302.622C58.5373 305.251 60.5316 307.099 64.5682 307.291C68.1199 307.461 71.6003 306.388 74.9898 305.315C75.4287 308.097 76.7823 311.043 78.3585 313.376C80.9856 317.267 85.6268 318.484 90.0184 318.718C94.8507 318.977 99.0684 321.579 103.793 322.328C115.231 324.14 121.386 318.151 127.816 309.641C133.442 310.834 139.49 308.903 144.642 306.351C148.203 304.587 151.839 302.358 153.543 298.767C155.111 295.463 155.1 291.039 154.34 287.522C153.45 283.398 153.327 279.286 153.125 275.024C154.83 278.313 156.528 281.744 159.792 283.497C162.964 285.201 166.868 284.912 170.302 283.83C178.043 281.392 184.413 274.981 186.801 267.224C187.951 263.49 188.276 259.388 190.482 256.163C192.799 252.779 196.752 250.99 200.404 249.121C205.861 246.33 211.054 243.021 215.891 239.254C216.958 238.423 218.046 237.519 218.582 236.278C219.27 234.685 218.917 232.839 218.347 231.2C217.308 228.214 215.605 225.511 213.916 222.839C210.495 217.426 207.005 211.93 202.183 207.716C199.234 205.139 195.857 203.106 192.501 201.088C187.6 198.141 182.7 195.195 177.799 192.248C168.754 186.809 160.112 182.586 149.834 180.225C139.396 177.828 128.344 178.094 118.052 181.074C113.354 182.433 108.761 184.374 104.902 187.377C98.7476 192.166 97.5436 198.578 94.3839 205.219C91.309 211.682 87.1409 217.88 80.9432 221.709Z" fill="#B53F3A"/>
<path d="M48.9364 190.237C58.3424 187.98 67.7663 185.795 77.2228 183.758C82.1362 182.699 87.0586 181.681 91.9901 180.712C95.1623 180.09 97.9218 179.999 100.872 178.666C104.19 177.168 107.59 175.79 111.187 175.135C114.174 174.59 117.228 174.553 120.263 174.516C126.98 174.434 133.696 174.353 140.413 174.272C140.688 174.27 140.968 174.267 141.232 174.345C142.344 174.677 142.544 176.313 141.861 177.252C141.178 178.191 139.996 178.594 138.888 178.942C136.024 179.847 133.161 180.751 130.297 181.656C129.849 181.796 129.362 181.968 129.12 182.369C128.908 182.717 128.934 183.155 128.981 183.567C129.291 186.287 130.148 190.116 132.726 191.653C135.023 193.023 138.931 192.766 141.513 193.077C142.623 197.995 143.733 202.914 144.843 207.832C147.276 218.609 117.128 210.199 112.336 208.27C108.083 206.556 103.879 204.357 99.2998 204.109C95.2551 203.89 91.3015 205.223 87.4966 206.613C63.9497 215.22 41.1175 226.828 16.2684 230.157C13.3493 230.548 10.1149 230.748 7.73116 229.018C6.27029 227.958 5.34835 226.308 4.69407 224.627C2.43744 218.823 2.75286 210.751 6.78579 205.731C11.0593 200.411 18.0302 198.036 24.409 196.402C32.5434 194.318 40.7318 192.206 48.9364 190.237Z" fill="#EFB28C"/>
<path d="M136.033 180.202C142.134 186.823 146.889 194.678 149.927 203.153C150.762 205.481 151.476 207.959 151.065 210.398C150.437 214.127 147.371 216.898 144.442 219.29C143.598 219.978 142.357 220.671 141.522 219.972C141.217 219.717 141.061 219.329 140.917 218.958C136.341 207.191 131.766 195.423 127.191 183.655C129.721 181.691 132.876 180.744 136.033 180.202Z" fill="#B53F3A"/>
<path d="M112.192 76.8882C111.816 76.8882 111.459 76.8539 111.141 76.8143C110.052 76.6773 108.978 76.416 107.948 76.0365C107.451 75.8536 107.196 75.302 107.379 74.8037C107.562 74.3062 108.113 74.0503 108.611 74.2341C109.505 74.5631 110.436 74.7893 111.381 74.9082C111.94 74.9785 112.654 75.029 113.212 74.792C114.792 74.1197 114.72 72.8904 114.18 70.2453C113.921 68.9782 113.654 67.6688 113.937 66.5423C114.066 66.0277 114.586 65.7167 115.102 65.8456C115.617 65.9745 115.928 66.4963 115.799 67.0109C115.623 67.712 115.846 68.8052 116.062 69.8614C116.522 72.1154 117.152 75.202 113.964 76.5592C113.373 76.8098 112.761 76.8882 112.192 76.8882Z" fill="#CA7149"/>
<path d="M97.9771 96.4312C94.7264 96.4312 91.7678 95.7823 89.3183 94.5188C84.8203 92.2 81.2794 88.7519 79.3463 84.81C79.1129 84.3333 79.3094 83.7583 79.7861 83.5249C80.262 83.2906 80.8369 83.4879 81.0704 83.9638C82.8232 87.5389 86.0649 90.6805 90.1978 92.8119C92.9123 94.2106 96.3693 94.7612 100.198 94.4052C100.724 94.3539 101.194 94.7441 101.243 95.2722C101.292 95.8003 100.903 96.268 100.376 96.3167C99.5614 96.3933 98.7603 96.4312 97.9771 96.4312Z" fill="#CA7149"/>
<path d="M72.7785 60.6582C72.7343 60.6582 72.6902 60.6546 72.646 60.6483C72.1206 60.5762 71.7529 60.0914 71.8259 59.5659C72.2558 56.4532 71.6943 55.0617 70.1019 52.1562C69.8468 51.6911 70.0172 51.108 70.4822 50.853C70.9472 50.598 71.5312 50.7683 71.7853 51.2333C73.485 54.3326 74.2312 56.1909 73.7284 59.8291C73.6617 60.3094 73.2507 60.6582 72.7785 60.6582Z" fill="#CA7149"/>
<path d="M22.7293 198.317C22.3138 198.317 21.9299 198.044 21.8082 197.625C21.6595 197.116 21.9524 196.582 22.4616 196.434L27.4507 194.982C27.9599 194.832 28.4934 195.126 28.6412 195.635C28.7899 196.144 28.497 196.677 27.9878 196.825L22.9987 198.278C22.9086 198.304 22.8185 198.317 22.7293 198.317Z" fill="#CA7149"/>
<path d="M130.592 199.39C130.54 199.39 130.487 199.386 130.433 199.377L127.186 198.836C126.662 198.748 126.309 198.254 126.396 197.73C126.483 197.207 126.977 196.854 127.501 196.942L130.749 197.482C131.272 197.57 131.626 198.064 131.538 198.587C131.46 199.058 131.053 199.39 130.592 199.39Z" fill="#CA7149"/>
<path d="M132.654 206.717C132.586 206.717 132.518 206.71 132.448 206.696L129.201 205.988C128.683 205.875 128.354 205.364 128.468 204.845C128.58 204.327 129.091 204 129.61 204.112L132.858 204.818C133.376 204.931 133.704 205.443 133.591 205.961C133.494 206.411 133.095 206.717 132.654 206.717Z" fill="#CA7149"/>
<path d="M124.068 186.704C123.696 186.704 123.342 186.486 123.186 186.122C122.976 185.635 123.201 185.07 123.689 184.861L125.093 184.257C125.58 184.048 126.145 184.273 126.355 184.761C126.564 185.247 126.338 185.812 125.852 186.021L124.447 186.625C124.323 186.678 124.195 186.704 124.068 186.704Z" fill="#CA7149"/>
<path d="M151.718 179.161C151.571 179.161 151.421 179.127 151.28 179.055C150.809 178.812 150.623 178.234 150.865 177.762L153.835 171.973C154.077 171.501 154.656 171.315 155.129 171.557C155.6 171.799 155.787 172.378 155.544 172.85L152.574 178.638C152.403 178.97 152.067 179.161 151.718 179.161Z" fill="#CA7149"/>
<path d="M197.8 103.179C197.624 103.179 197.446 103.131 197.288 103.03C196.839 102.747 196.705 102.154 196.988 101.705C197.001 101.671 196.989 101.507 196.872 101.341C196.709 101.109 196.422 100.898 196.12 100.674L195.948 100.545C194.805 99.6874 193.81 98.6582 192.989 97.4884C192.684 97.0541 192.789 96.4548 193.223 96.1502C193.658 95.8455 194.256 95.951 194.561 96.3854C195.265 97.3902 196.121 98.2734 197.101 99.0106L197.262 99.1296C197.654 99.4198 198.1 99.7487 198.442 100.234C199.002 101.028 199.068 102.008 198.612 102.731C198.429 103.02 198.118 103.179 197.8 103.179Z" fill="#CA7149"/>
<path d="M197.444 120.094C197.443 120.116 197.441 120.143 197.44 120.175C197.433 120.426 197.435 120.68 197.435 120.933C197.437 121.158 197.438 121.39 197.434 121.626C197.622 121.358 197.839 121.07 198.063 120.773C198.272 120.494 198.539 120.138 198.786 119.786C198.348 119.859 197.916 119.957 197.489 120.08C197.472 120.085 197.457 120.089 197.444 120.094ZM195.347 129.533C195.254 129.533 195.161 129.52 195.067 129.492C194.56 129.337 194.274 128.801 194.428 128.293C194.708 127.371 195.043 126.447 195.43 125.526C195.247 125.616 195.057 125.687 194.864 125.737C194.117 125.932 193.391 125.799 192.818 125.362C192.122 124.833 191.86 124.048 191.68 123.276C191.033 120.502 190.645 116.802 192.468 114.922C193.446 113.914 195.263 113.089 196.866 112.361C197.423 112.107 197.948 111.869 198.351 111.659C200.277 110.659 202.036 110.381 203.579 110.829C204.088 110.977 204.381 111.511 204.232 112.02C204.085 112.528 203.553 112.821 203.042 112.673C201.731 112.291 200.249 112.838 199.237 113.364C198.788 113.597 198.241 113.846 197.661 114.109C196.285 114.734 194.571 115.513 193.847 116.259C192.909 117.226 192.8 119.624 193.55 122.84C193.644 123.241 193.768 123.673 193.98 123.834C194.016 123.862 194.126 123.944 194.38 123.879C194.737 123.786 195.106 123.466 195.258 123.118C195.525 122.506 195.52 121.749 195.515 120.945C195.513 120.667 195.512 120.389 195.52 120.116C195.528 119.864 195.547 119.276 195.953 118.811C196.286 118.428 196.739 118.298 196.955 118.236C198.08 117.91 199.243 117.734 200.415 117.713C200.711 117.71 200.967 117.827 201.154 118.039C201.34 118.251 201.423 118.535 201.382 118.814C201.244 119.739 200.407 120.851 199.597 121.927C199.234 122.409 198.892 122.865 198.722 123.166C197.67 125.039 196.843 126.952 196.266 128.852C196.14 129.266 195.758 129.533 195.347 129.533Z" fill="#CA7149"/>
<path d="M184.394 133.511C184.359 133.511 184.324 133.509 184.289 133.506C183.762 133.449 183.381 132.975 183.438 132.448C183.976 127.499 187.716 124.866 191.833 122.389C192.287 122.117 192.878 122.263 193.151 122.717C193.425 123.172 193.278 123.762 192.823 124.035C188.995 126.338 185.791 128.576 185.348 132.655C185.294 133.147 184.878 133.511 184.394 133.511Z" fill="#CA7149"/>
<path d="M187.962 112.084C187.529 112.084 187.137 111.791 187.03 111.353C186.811 110.459 186.564 109.447 186.68 108.382C186.856 106.766 187.876 105.218 189.479 104.136C190.767 103.266 192.198 102.797 193.801 102.315C194.819 102.01 195.839 101.712 196.861 101.42C197.234 101.314 197.657 101.193 198.12 101.147C200.005 100.962 201.908 102.241 202.451 104.055C202.604 104.563 202.314 105.098 201.807 105.25C201.3 105.402 200.763 105.114 200.611 104.605C200.327 103.656 199.293 102.961 198.308 103.059C198.017 103.088 197.697 103.179 197.387 103.267C196.375 103.556 195.362 103.852 194.353 104.156C192.904 104.59 191.618 105.009 190.554 105.727C189.42 106.493 188.703 107.537 188.589 108.59C188.51 109.319 188.705 110.121 188.895 110.896C189.021 111.411 188.705 111.931 188.191 112.057C188.114 112.075 188.037 112.084 187.962 112.084Z" fill="#CA7149"/>
<path d="M191.176 120.859C191.064 120.859 190.951 120.839 190.841 120.799L190.668 120.735C189.639 120.354 188.229 119.833 187.96 118.312C187.886 117.896 187.775 117.429 187.658 116.935C187.192 114.966 186.611 112.516 187.806 110.638C189.25 108.369 192.577 107.299 194.564 106.66C196.226 106.126 197.392 105.81 199.36 105.955C201.141 105.65 203.064 106.464 204.08 107.961C204.377 108.4 204.263 108.997 203.824 109.295C203.386 109.592 202.788 109.478 202.49 109.039C201.881 108.14 200.666 107.645 199.602 107.862C199.513 107.881 199.422 107.887 199.331 107.879C197.681 107.742 196.832 107.949 195.151 108.489C193.411 109.048 190.498 109.985 189.426 111.669C188.666 112.863 189.123 114.79 189.527 116.492C189.65 117.013 189.767 117.506 189.85 117.977C189.922 118.383 190.485 118.619 191.334 118.933L191.511 118.999C192.009 119.184 192.261 119.738 192.075 120.234C191.931 120.621 191.565 120.859 191.176 120.859Z" fill="#CA7149"/>
<path d="M191.712 104.596C191.407 104.596 191.106 104.45 190.92 104.18C190.62 103.743 190.73 103.145 191.167 102.844C191.309 102.747 191.423 102.674 191.516 102.614C191.564 102.583 191.605 102.559 191.638 102.536C191.681 102.456 191.756 102.273 191.788 102.198L193.589 97.884C193.793 97.3955 194.355 97.1639 194.845 97.3685C195.334 97.573 195.566 98.1354 195.361 98.6248L193.561 102.938C193.246 103.691 193.095 103.884 192.55 104.233C192.472 104.283 192.375 104.345 192.255 104.427C192.089 104.541 191.9 104.596 191.712 104.596Z" fill="#CA7149"/>
<path d="M185.639 118.56C185.429 118.56 185.218 118.491 185.041 118.35C184.627 118.021 184.557 117.417 184.887 117.001C186.172 115.385 186.824 113.275 186.673 111.215C186.635 110.686 187.032 110.225 187.561 110.187C188.088 110.146 188.55 110.546 188.588 111.075C188.774 113.61 187.973 116.207 186.39 118.196C186.201 118.435 185.921 118.56 185.639 118.56Z" fill="#CA7149"/>
<path d="M193.978 99.3101C193.579 99.3101 193.207 99.0604 193.07 98.6612C191.88 95.1933 190.917 91.6209 189.986 88.1647C189.304 85.6332 188.598 83.0152 187.81 80.4675C187.654 79.961 187.938 79.4239 188.445 79.2671C188.95 79.1112 189.489 79.3941 189.646 79.9006C190.444 82.4817 191.154 85.1168 191.841 87.6655C192.763 91.0901 193.718 94.631 194.887 98.0384C195.059 98.5395 194.792 99.0856 194.29 99.2578C194.186 99.2938 194.082 99.3101 193.978 99.3101Z" fill="#B27C72"/>
<path d="M143.718 181.652C143.625 181.652 143.53 181.638 143.436 181.61C142.929 181.454 142.645 180.916 142.8 180.409C144.461 175.009 144.187 169.402 143.898 163.465C143.661 158.592 143.415 153.552 144.354 148.673C146.929 135.3 157.256 129.306 167.018 125.206L167.149 125.151C172.826 122.768 178.697 120.303 181.641 115.023C182.325 113.798 182.973 112.51 183.66 111.146C186.247 106.005 188.923 100.689 193.932 97.7832C194.39 97.5173 194.978 97.6741 195.244 98.1329C195.511 98.5916 195.355 99.1792 194.895 99.445C190.382 102.063 187.837 107.12 185.375 112.011C184.68 113.392 184.023 114.697 183.318 115.96C180.051 121.818 173.592 124.529 167.893 126.922L167.762 126.977C158.468 130.88 148.644 136.552 146.24 149.036C145.345 153.688 145.584 158.611 145.817 163.372C146.101 169.212 146.395 175.251 144.636 180.973C144.509 181.387 144.129 181.652 143.718 181.652Z" fill="#7E2E31"/>
<path d="M130.268 186.79C129.898 186.79 129.545 186.575 129.387 186.214C129.175 185.728 129.396 185.162 129.883 184.949L133.609 183.319C134.096 183.107 134.662 183.328 134.874 183.814C135.086 184.3 134.865 184.867 134.379 185.079L130.652 186.709C130.527 186.764 130.396 186.79 130.268 186.79Z" fill="#7E2E31"/>
<path d="M136.582 183.844C136.138 183.844 135.739 183.534 135.643 183.082C135.533 182.563 135.865 182.054 136.384 181.944C136.934 181.828 137.464 181.593 137.92 181.263C138.349 180.952 138.95 181.048 139.261 181.478C139.572 181.908 139.475 182.508 139.045 182.819C138.374 183.305 137.592 183.652 136.781 183.823C136.715 183.837 136.647 183.844 136.582 183.844Z" fill="#7E2E31"/>
<path d="M132.48 188.475C132.091 188.475 131.725 188.237 131.58 187.851C131.394 187.354 131.646 186.801 132.143 186.615C134.032 185.908 135.922 185.128 137.76 184.298C138.244 184.079 138.812 184.296 139.03 184.779C139.249 185.262 139.033 185.83 138.55 186.049C136.673 186.896 134.745 187.692 132.816 188.413C132.705 188.456 132.592 188.475 132.48 188.475Z" fill="#7E2E31"/>
<path d="M132.126 191.699C131.694 191.699 131.302 191.406 131.194 190.969C131.067 190.454 131.381 189.934 131.896 189.806C132.77 189.589 133.599 189.234 134.358 188.749C134.805 188.462 135.398 188.594 135.684 189.041C135.97 189.488 135.839 190.082 135.392 190.367C134.457 190.966 133.436 191.404 132.357 191.67C132.279 191.689 132.202 191.699 132.126 191.699Z" fill="#7E2E31"/>
<path d="M138.315 189.018C137.952 189.018 137.604 188.812 137.442 188.46C137.22 187.978 137.43 187.408 137.912 187.186L145.772 183.56C146.254 183.339 146.823 183.549 147.046 184.03C147.268 184.511 147.058 185.082 146.577 185.304L138.716 188.93C138.586 188.99 138.449 189.018 138.315 189.018Z" fill="#7E2E31"/>
<path d="M140.524 184.716C140.111 184.716 139.728 184.445 139.604 184.028C139.454 183.519 139.744 182.985 140.252 182.834L141.965 182.327C142.474 182.176 143.008 182.465 143.159 182.975C143.31 183.483 143.02 184.017 142.512 184.169L140.797 184.676C140.706 184.703 140.615 184.716 140.524 184.716Z" fill="#7E2E31"/>
<path d="M133.987 194.023C133.575 194.023 133.194 193.757 133.069 193.341C132.915 192.834 133.201 192.298 133.71 192.144C136.072 191.429 138.423 190.578 140.697 189.616C141.184 189.409 141.749 189.638 141.956 190.127C142.162 190.615 141.934 191.178 141.445 191.385C139.109 192.373 136.694 193.247 134.266 193.982C134.173 194.01 134.079 194.023 133.987 194.023Z" fill="#7E2E31"/>
<path d="M144.97 188.977C144.58 188.977 144.213 188.738 144.07 188.351C143.885 187.854 144.139 187.301 144.635 187.116L148.748 185.587C149.245 185.401 149.797 185.656 149.983 186.152C150.168 186.65 149.915 187.202 149.417 187.388L145.305 188.916C145.195 188.958 145.081 188.977 144.97 188.977Z" fill="#7E2E31"/>
<path d="M139.159 195.171C138.746 195.171 138.365 194.903 138.24 194.489C138.086 193.98 138.373 193.445 138.881 193.291C139.581 193.08 140.246 192.767 140.855 192.363C141.296 192.07 141.893 192.191 142.186 192.632C142.48 193.074 142.359 193.67 141.916 193.963C141.15 194.472 140.316 194.864 139.436 195.13C139.344 195.158 139.251 195.171 139.159 195.171Z" fill="#7E2E31"/>
<path d="M144.623 192.725C144.207 192.725 143.823 192.452 143.701 192.031C143.554 191.522 143.847 190.989 144.357 190.842C146.249 190.295 148.108 189.584 149.883 188.732C150.361 188.502 150.934 188.704 151.164 189.182C151.394 189.66 151.193 190.233 150.715 190.463C148.845 191.362 146.884 192.11 144.891 192.687C144.802 192.712 144.712 192.725 144.623 192.725Z" fill="#7E2E31"/>
<path d="M137.101 198.407C136.701 198.407 136.327 198.154 136.192 197.754C136.021 197.251 136.291 196.707 136.794 196.537C139.665 195.566 142.517 194.432 145.271 193.168C145.754 192.947 146.323 193.158 146.544 193.64C146.766 194.122 146.554 194.692 146.073 194.914C143.258 196.206 140.344 197.364 137.409 198.356C137.307 198.391 137.203 198.407 137.101 198.407Z" fill="#7E2E31"/>
<path d="M149.837 193.604C149.68 193.604 149.524 193.586 149.37 193.55C148.854 193.429 148.534 192.911 148.656 192.396C148.777 191.88 149.296 191.561 149.811 191.681C149.839 191.689 149.882 191.68 149.907 191.663C150.345 191.366 150.942 191.479 151.24 191.918C151.538 192.357 151.424 192.955 150.985 193.252C150.645 193.484 150.243 193.604 149.837 193.604Z" fill="#7E2E31"/>
<path d="M153.35 192.037C152.938 192.037 152.557 191.769 152.431 191.353C152.277 190.846 152.565 190.31 153.073 190.157C154.545 189.712 156.019 189.203 157.453 188.644C157.947 188.452 158.504 188.696 158.696 189.191C158.888 189.684 158.644 190.241 158.15 190.434C156.67 191.011 155.147 191.536 153.628 191.995C153.535 192.023 153.441 192.037 153.35 192.037Z" fill="#7E2E31"/>
<path d="M152.84 189.139C152.379 189.139 151.973 188.808 151.893 188.34C151.805 187.816 152.157 187.32 152.68 187.232C153.305 187.127 153.909 186.93 154.475 186.648C154.949 186.412 155.526 186.606 155.762 187.081C155.998 187.556 155.805 188.133 155.33 188.369C154.594 188.734 153.811 188.989 153.001 189.126C152.947 189.136 152.893 189.139 152.84 189.139Z" fill="#7E2E31"/>
<path d="M151.121 186.693C150.651 186.693 150.24 186.348 150.172 185.869C150.097 185.343 150.461 184.858 150.987 184.783C151.559 184.701 152.115 184.536 152.639 184.293C153.12 184.068 153.691 184.278 153.915 184.759C154.138 185.24 153.929 185.811 153.448 186.035C152.753 186.357 152.017 186.575 151.258 186.683C151.212 186.691 151.166 186.693 151.121 186.693Z" fill="#7E2E31"/>
<path d="M143.586 198.681C143.163 198.681 142.777 198.4 142.66 197.973C142.52 197.461 142.822 196.933 143.334 196.794C147.251 195.724 151.135 194.378 154.874 192.794C155.363 192.588 155.925 192.816 156.133 193.304C156.339 193.792 156.111 194.356 155.623 194.563C151.805 196.18 147.84 197.554 143.839 198.646C143.755 198.67 143.67 198.681 143.586 198.681Z" fill="#7E2E31"/>
<path d="M157.981 193.621C157.522 193.621 157.117 193.291 157.036 192.824C156.945 192.302 157.296 191.804 157.818 191.714C158.628 191.574 159.425 191.35 160.188 191.046C160.679 190.852 161.239 191.091 161.434 191.584C161.631 192.077 161.39 192.635 160.897 192.832C160.011 193.183 159.086 193.444 158.146 193.607C158.09 193.617 158.035 193.621 157.981 193.621Z" fill="#7E2E31"/>
<path d="M150.595 199.687C150.188 199.687 149.81 199.427 149.68 199.017C149.52 198.512 149.798 197.972 150.304 197.812L155.977 196.006C156.481 195.844 157.022 196.124 157.184 196.629C157.344 197.134 157.066 197.675 156.56 197.835L150.887 199.641C150.79 199.673 150.691 199.687 150.595 199.687Z" fill="#7E2E31"/>
<path d="M153.361 201.503C152.912 201.503 152.511 201.187 152.42 200.73C152.317 200.21 152.655 199.704 153.175 199.6L155.216 199.195C155.737 199.092 156.242 199.43 156.345 199.95C156.449 200.47 156.11 200.976 155.59 201.079L153.549 201.485C153.486 201.497 153.423 201.503 153.361 201.503Z" fill="#7E2E31"/>
<path d="M154.719 204.184C154.294 204.184 153.905 203.9 153.791 203.469C153.655 202.956 153.961 202.431 154.473 202.295L155.519 202.018C156.032 201.884 156.557 202.189 156.692 202.702C156.828 203.215 156.522 203.74 156.009 203.875L154.965 204.151C154.883 204.174 154.801 204.184 154.719 204.184Z" fill="#7E2E31"/>
<path d="M151.56 270.661C151.077 270.661 150.661 270.298 150.607 269.807C148.647 252.099 144.936 234.506 139.576 217.518C139.416 217.012 139.697 216.473 140.203 216.313C140.709 216.153 141.248 216.434 141.407 216.94C146.805 234.048 150.542 251.764 152.516 269.596C152.574 270.123 152.194 270.597 151.667 270.656C151.631 270.66 151.595 270.661 151.56 270.661Z" fill="#7E2E31"/>
<path d="M180.709 259.36C180.31 259.36 179.938 259.109 179.801 258.711C176.186 248.175 169.874 238.735 163.771 229.605L155.703 217.538C155.408 217.097 155.527 216.501 155.967 216.206C156.408 215.911 157.005 216.03 157.3 216.47L165.368 228.537C171.539 237.77 177.922 247.315 181.618 258.087C181.79 258.589 181.523 259.135 181.021 259.308C180.918 259.344 180.813 259.36 180.709 259.36Z" fill="#7E2E31"/>
<path d="M200.037 235.52C199.846 235.52 199.654 235.464 199.485 235.346C193.176 230.913 187.557 225.594 182.785 219.536C182.457 219.12 182.529 218.516 182.945 218.188C183.362 217.86 183.966 217.931 184.293 218.347C188.95 224.258 194.433 229.449 200.589 233.774C201.024 234.079 201.128 234.678 200.823 235.112C200.636 235.379 200.339 235.52 200.037 235.52Z" fill="#7E2E31"/>
<path d="M168.578 274.897C168.352 274.897 168.125 274.818 167.942 274.656C158.847 266.59 155.172 253.967 152.219 243.825L143.658 214.419C143.509 213.91 143.802 213.376 144.311 213.228C144.82 213.079 145.354 213.373 145.502 213.882L154.063 243.287C156.947 253.194 160.536 265.521 169.216 273.219C169.613 273.571 169.65 274.178 169.297 274.575C169.108 274.788 168.844 274.897 168.578 274.897Z" fill="#7E2E31"/>
<path d="M141.8 208.6C141.473 208.6 141.155 208.434 140.975 208.134L137.742 202.748C137.468 202.293 137.616 201.703 138.071 201.43C138.525 201.156 139.115 201.304 139.388 201.759L142.623 207.145C142.896 207.599 142.748 208.19 142.294 208.463C142.139 208.555 141.968 208.6 141.8 208.6Z" fill="#7E2E31"/>
<path d="M42.3499 279.609C42.2426 279.609 42.1336 279.591 42.0264 279.554C41.5271 279.374 41.2675 278.824 41.446 278.325C44.9643 268.497 49.6578 259.849 55.3967 252.62C58.9043 248.201 62.975 244.071 66.9115 240.076C70.3506 236.586 73.9067 232.978 77.0655 229.198C78.5156 227.463 80.0503 225.587 81.4517 223.621C81.7599 223.189 82.3601 223.089 82.7918 223.396C83.2235 223.704 83.3235 224.304 83.0162 224.735C81.577 226.755 80.0134 228.666 78.539 230.43C75.3298 234.27 71.7457 237.907 68.2796 241.424C64.3782 245.383 60.3444 249.476 56.9009 253.814C51.2926 260.879 46.7018 269.343 43.2547 278.972C43.1141 279.365 42.7446 279.609 42.3499 279.609Z" fill="#7E2E31"/>
<path d="M75.4216 298.012C74.9079 298.012 74.4825 297.605 74.4627 297.088C73.9202 283.033 76.9356 266.687 82.9539 251.062C87.8448 238.362 95.1978 225.735 105.433 212.459C105.756 212.04 106.359 211.961 106.78 212.286C107.2 212.609 107.278 213.212 106.954 213.632C96.8344 226.759 89.5697 239.228 84.7455 251.752C78.82 267.14 75.8488 283.214 76.3814 297.014C76.4021 297.544 75.9893 297.99 75.4594 298.011C75.4468 298.011 75.4342 298.012 75.4216 298.012Z" fill="#7E2E31"/>
<path d="M130.093 303.146C129.991 303.146 129.886 303.129 129.784 303.094C129.282 302.923 129.014 302.378 129.184 301.876C134.328 286.747 133.555 272.148 132.116 256C131.067 244.225 130.329 230.634 134.9 218.348C135.085 217.851 135.639 217.598 136.135 217.783C136.633 217.968 136.885 218.52 136.7 219.017C132.269 230.929 132.951 243.734 134.029 255.828C135.488 272.199 136.268 287.009 131.003 302.494C130.867 302.894 130.493 303.146 130.093 303.146Z" fill="#7E2E31"/>
<path d="M36.9485 155.586C36.9377 155.586 36.9269 155.586 36.9161 155.586C36.3862 155.568 35.9707 155.125 35.9878 154.595L36.077 151.859C36.0942 151.329 36.5457 150.92 37.0684 150.931C37.5983 150.948 38.0137 151.392 37.9966 151.922L37.9074 154.657C37.8903 155.177 37.464 155.586 36.9485 155.586Z" fill="#CA7149"/>
<path d="M100.634 152.506C100.103 152.506 99.6729 152.076 99.6729 151.546V149.149C99.6729 148.619 100.103 148.189 100.634 148.189C101.163 148.189 101.593 148.619 101.593 149.149V151.546C101.593 152.076 101.163 152.506 100.634 152.506Z" fill="#CA7149"/>
<path d="M131.716 65.9248C131.681 65.9248 131.646 65.923 131.61 65.9194C131.083 65.8608 130.702 65.3859 130.761 64.8596C131.215 60.7446 130.039 56.4954 127.534 53.2006C127.264 52.8464 126.981 52.503 126.697 52.1597C126.258 51.6271 125.803 51.0764 125.394 50.4807C122.155 45.7656 122.525 39.8446 123.235 33.6839C123.296 33.1567 123.768 32.78 124.299 32.8395C124.825 32.9008 125.204 33.3766 125.143 33.9038C124.476 39.6887 124.114 45.2258 126.978 49.393C127.339 49.9193 127.747 50.414 128.179 50.9377C128.478 51.3008 128.778 51.664 129.063 52.038C131.863 55.7213 133.178 60.4716 132.67 65.0696C132.616 65.5616 132.199 65.9248 131.716 65.9248Z" fill="#9F533D"/>
<path d="M37.2723 115.906C37.0605 115.906 36.846 115.836 36.6685 115.692C29.3146 109.737 28.4215 100.177 28.9676 93.2083C29.5912 85.2533 32.5121 76.3781 36.5901 70.0462C37.558 68.5439 38.6205 67.0866 39.6479 65.6771C40.8348 64.0478 42.0622 62.3634 43.123 60.6331C47.4434 53.5883 49.3539 45.3647 51.2014 37.4124C51.3213 36.8951 51.8386 36.5734 52.3541 36.6942C52.8705 36.814 53.1922 37.3304 53.0724 37.8468C51.1897 45.9487 49.2431 54.3264 44.7605 61.637C43.6601 63.4331 42.4092 65.149 41.1998 66.8082C40.1886 68.1951 39.1423 69.6299 38.205 71.0853C30.7006 82.738 26.2658 104.795 37.877 114.199C38.2897 114.533 38.3528 115.138 38.0194 115.55C37.8292 115.785 37.5526 115.906 37.2723 115.906Z" fill="#9F533D"/>
<path d="M141.09 102.157C140.938 102.157 140.784 102.121 140.641 102.045C136.721 99.9686 133.947 95.5364 133.222 90.1877C132.586 85.4942 133.437 80.8539 134.262 76.3658C134.358 75.844 134.857 75.498 135.379 75.5944C135.901 75.6899 136.246 76.1901 136.151 76.7119C135.354 81.0522 134.53 85.5402 135.125 89.9291C135.767 94.6659 138.165 98.56 141.54 100.347C142.009 100.595 142.187 101.176 141.939 101.646C141.767 101.971 141.434 102.157 141.09 102.157Z" fill="#9F533D"/>
<path d="M124.506 30.96C124.461 30.96 124.415 30.9573 124.368 30.9501C123.843 30.8744 123.479 30.3868 123.555 29.8623C124.301 24.701 122.286 18.7629 117.882 13.1412C116.443 11.3045 114.843 9.57329 113.127 7.99437C112.737 7.63478 112.712 7.02736 113.071 6.63713C113.429 6.24691 114.037 6.22167 114.428 6.58125C116.22 8.22957 117.891 10.0383 119.394 11.957C122.741 16.2296 126.509 22.8509 125.456 30.1372C125.387 30.6157 124.976 30.96 124.506 30.96Z" fill="#6C352A"/>
<path d="M99.9302 48.9775C95.3557 48.9775 89.5284 48.5495 84.9809 45.2366C83.4353 44.111 82.1457 42.7249 80.8975 41.3848C79.032 39.3814 76.477 36.6372 76.094 33.2009C76.0346 32.6746 76.414 32.1987 76.9412 32.1402C77.4702 32.0825 77.9433 32.461 78.0028 32.9882C78.2921 35.5819 80.1216 37.7322 82.3034 40.0763C83.4894 41.3497 84.7159 42.6672 86.1119 43.6838C90.2106 46.6704 95.6468 47.057 99.9302 47.057C99.9383 47.057 99.9446 47.057 99.9528 47.057C100.483 47.057 100.913 47.4869 100.913 48.0168C100.913 48.5549 100.463 48.9793 99.9302 48.9775Z" fill="#6C352A"/>
<path d="M84.525 50.918C84.4628 50.918 84.3997 50.9126 84.3366 50.8999C81.2806 50.2925 78.4246 48.5379 76.5015 46.0857C76.1743 45.6684 76.2473 45.0655 76.6646 44.7375C77.0818 44.4103 77.6857 44.4833 78.0128 44.9006C79.6566 46.9968 82.098 48.4964 84.7115 49.0155C85.2315 49.1192 85.5695 49.6247 85.4658 50.1447C85.3748 50.6017 84.9738 50.918 84.525 50.918Z" fill="#6C352A"/>
<path d="M107.484 44.4053C106.98 44.4053 106.558 44.0132 106.526 43.5041C106.494 42.975 106.896 42.519 107.426 42.4866C109.071 42.3838 110.674 42.0008 112.188 41.3465C112.674 41.1366 113.239 41.361 113.449 41.8476C113.66 42.3343 113.436 42.8993 112.948 43.1102C111.231 43.8519 109.412 44.2872 107.545 44.4035C107.524 44.4044 107.504 44.4053 107.484 44.4053Z" fill="#6C352A"/>
<path d="M135.766 52.1504C135.652 52.1504 135.536 52.1297 135.422 52.0864C134.927 51.8963 134.68 51.3411 134.87 50.8454C135.433 49.3783 135.611 47.7804 135.387 46.2258C135.311 45.7004 135.675 45.2137 136.2 45.138C136.724 45.0632 137.212 45.4264 137.288 45.9509C137.559 47.83 137.344 49.7604 136.663 51.5331C136.516 51.9152 136.152 52.1504 135.766 52.1504Z" fill="#6C352A"/>
<path d="M58.1272 45.7236C57.7802 45.7236 57.445 45.5353 57.2737 45.2063C55.775 42.3198 55.1676 38.951 55.5632 35.722C55.6272 35.1957 56.1067 34.8217 56.633 34.8856C57.1593 34.9505 57.5342 35.4291 57.4693 35.9554C57.1205 38.8041 57.6567 41.7745 58.9788 44.3204C59.223 44.7918 59.0401 45.3713 58.5688 45.6155C58.4273 45.6894 58.2759 45.7236 58.1272 45.7236Z" fill="#6C352A"/>
<path d="M51.9717 108.185C51.6923 108.185 51.4148 108.064 51.2255 107.83C45.9012 101.269 44.4331 91.6442 46.8627 79.2246C47.3737 76.6165 48.0028 73.9813 48.612 71.4327C50.2162 64.7132 51.8753 57.7658 51.4319 50.8724C51.3976 50.3425 51.7996 49.8865 52.3286 49.8522C52.8558 49.8171 53.3145 50.2199 53.3488 50.749C53.8111 57.9307 52.1177 65.0215 50.4793 71.8788C49.8755 74.4085 49.251 77.0238 48.7481 79.5932C46.4329 91.4279 47.7676 100.521 52.717 106.62C53.0505 107.031 52.9883 107.636 52.5764 107.971C52.398 108.116 52.1844 108.185 51.9717 108.185Z" fill="#6C352A"/>
<path d="M65.7645 115.225C65.6816 115.225 65.5969 115.214 65.5131 115.191C65.0012 115.052 64.6984 114.525 64.8372 114.013C66.1313 109.242 66.1818 103.74 64.9868 97.6609C63.9107 92.1806 61.9677 86.8103 60.0896 81.6166C59.9094 81.1173 60.168 80.5667 60.6664 80.3864C61.1647 80.2071 61.7154 80.4639 61.8965 80.9632C63.799 86.2254 65.7663 91.666 66.8712 97.2905C68.1239 103.662 68.0626 109.458 66.691 114.516C66.5747 114.943 66.1872 115.225 65.7645 115.225Z" fill="#6C352A"/>
<path d="M57.1194 117.601C56.7445 117.601 56.3876 117.38 56.2335 117.012C55.6188 115.546 54.6789 114.199 53.5154 113.117C53.1279 112.756 53.1063 112.147 53.4668 111.76C53.829 111.371 54.4365 111.35 54.8249 111.711C56.1857 112.977 57.2852 114.554 58.0044 116.269C58.2098 116.758 57.98 117.321 57.4907 117.526C57.369 117.577 57.2428 117.601 57.1194 117.601Z" fill="#6C352A"/>
<path d="M46.8953 116.952C46.6971 116.952 46.4961 116.891 46.3249 116.764C43.5104 114.678 41.5403 111.209 40.7779 106.995C40.1137 103.316 40.3832 99.5975 40.6445 96.0017C40.6833 95.4726 41.1429 95.077 41.6719 95.1131C42.2009 95.1518 42.5993 95.6123 42.5605 96.1413C42.3073 99.6182 42.0468 103.213 42.6686 106.652C43.3428 110.384 45.0479 113.428 47.4676 115.221C47.8939 115.536 47.984 116.137 47.6677 116.564C47.4793 116.818 47.1891 116.952 46.8953 116.952Z" fill="#6C352A"/>
<path d="M59.1726 74.4546C58.6968 74.4546 58.284 74.1013 58.2209 73.6174L57.4747 67.8054C57.4071 67.2791 57.7784 66.7979 58.3048 66.7303C58.8347 66.6618 59.3123 67.034 59.3799 67.5603L60.1261 73.3722C60.1937 73.8985 59.8224 74.3798 59.2961 74.4474C59.2546 74.4528 59.2132 74.4546 59.1726 74.4546Z" fill="#6C352A"/>
<path d="M58.6775 100.557C58.3143 100.557 57.9664 100.349 57.8042 99.997C55.7494 95.5351 54.513 90.7884 54.1299 85.8903C54.0885 85.3622 54.4832 84.8999 55.0122 84.8584C55.543 84.8197 56.0036 85.2117 56.045 85.7407C56.41 90.4117 57.5888 94.9385 59.5489 99.194C59.7706 99.6762 59.5597 100.247 59.0785 100.468C58.9478 100.528 58.8117 100.557 58.6775 100.557Z" fill="#6C352A"/>
<path d="M131.035 115.57C130.683 115.57 130.345 115.376 130.176 115.041C127.678 110.068 124.847 104.432 124.212 98.4089C123.718 93.7307 124.541 89.1057 125.337 84.633C125.43 84.1103 125.929 83.7624 126.45 83.8552C126.973 83.949 127.321 84.4473 127.228 84.9691C126.456 89.3112 125.657 93.8001 126.122 98.2079C126.721 103.882 129.35 109.116 131.892 114.178C132.13 114.652 131.939 115.23 131.465 115.468C131.327 115.537 131.18 115.57 131.035 115.57Z" fill="#6C352A"/>
<path d="M115.227 117.209C115.142 117.209 115.056 117.197 114.971 117.174C114.46 117.033 114.16 116.504 114.301 115.992C116.062 109.615 115.917 102.634 113.892 96.3351C113.73 95.8295 114.007 95.2888 114.513 95.1266C115.018 94.9643 115.558 95.2419 115.721 95.7475C117.858 102.398 118.011 109.769 116.152 116.504C116.034 116.93 115.648 117.209 115.227 117.209Z" fill="#6C352A"/>
<path d="M123.394 115.606C123.016 115.606 122.658 115.382 122.505 115.01L120.763 110.774C120.562 110.283 120.795 109.722 121.285 109.52C121.777 109.318 122.338 109.553 122.539 110.044L124.282 114.279C124.483 114.771 124.249 115.331 123.758 115.533C123.639 115.583 123.516 115.606 123.394 115.606Z" fill="#6C352A"/>
<path d="M129.041 76.1626C128.556 76.1626 128.14 75.7967 128.088 75.3037C127.931 73.8267 128.438 72.2919 129.443 71.1987C129.802 70.8085 130.409 70.7824 130.8 71.1419C131.19 71.5006 131.216 72.108 130.857 72.4992C130.22 73.1922 129.898 74.1655 129.997 75.101C130.053 75.6291 129.671 76.1013 129.143 76.1572C129.11 76.1608 129.075 76.1626 129.041 76.1626Z" fill="#6C352A"/>
<path d="M131.086 39.1875C131.041 39.1875 130.996 39.1839 130.95 39.1776C130.425 39.1037 130.059 38.617 130.134 38.0925C130.319 36.7822 130.014 35.3916 129.298 34.2786C129.01 33.8325 129.139 33.2386 129.585 32.9511C130.031 32.6645 130.625 32.7934 130.913 33.2386C131.875 34.7337 132.284 36.601 132.036 38.3611C131.968 38.8405 131.556 39.1875 131.086 39.1875Z" fill="#6C352A"/>
<path d="M95.1928 43.1631C95.1072 43.1631 95.0207 43.1514 94.9341 43.127C88.9979 41.4724 83.9502 36.8645 81.762 31.104C81.5737 30.6074 81.8233 30.0531 82.319 29.8648C82.8155 29.6764 83.3698 29.9261 83.5572 30.4217C85.5336 35.6235 90.0901 39.7826 95.4505 41.2768C95.9615 41.4201 96.2598 41.9491 96.1174 42.4601C95.9985 42.8846 95.6128 43.1631 95.1928 43.1631Z" fill="#6C352A"/>
<path d="M76.7792 26.0752C76.5233 26.0752 76.2682 25.9734 76.079 25.7724C74.5514 24.1457 73.479 22.136 72.9788 19.9605C72.8598 19.4432 73.1825 18.9286 73.6989 18.8096C74.2153 18.6898 74.7316 19.0133 74.8506 19.5297C75.2751 21.3745 76.1835 23.0787 77.4794 24.4575C77.8426 24.8441 77.8237 25.4516 77.4371 25.8148C77.2514 25.9887 77.0153 26.0752 76.7792 26.0752Z" fill="#6C352A"/>
<path d="M105.447 83.7725C102.203 83.7725 98.9354 82.5955 96.4976 80.4668C96.0984 80.118 96.0569 79.5115 96.4057 79.1114C96.7545 78.7131 97.361 78.6707 97.7602 79.0204C100.399 81.323 104.171 82.3278 107.604 81.642C108.125 81.5393 108.631 81.8754 108.734 82.3954C108.838 82.9154 108.501 83.4219 107.981 83.5255C107.148 83.6914 106.298 83.7725 105.447 83.7725Z" fill="#B53F3A"/>
<path d="M130.017 60.7998C129.68 60.7998 129.354 60.6223 129.178 60.3077C127.645 57.5672 123.888 57.5618 120.863 57.5618C120.857 57.5618 120.852 57.5618 120.846 57.5618L120.83 56.601L120.846 55.6413C120.852 55.6413 120.857 55.6413 120.862 55.6413C124.204 55.6413 128.772 55.6467 130.854 59.3705C131.113 59.8328 130.948 60.4186 130.485 60.6772C130.336 60.7601 130.176 60.7998 130.017 60.7998Z" fill="#6C352A"/>
<path d="M110.453 56.4785C110.261 56.4785 110.068 56.4217 109.9 56.3019C107.013 54.2615 103.072 53.8965 99.86 55.3709C99.377 55.5908 98.8074 55.3799 98.5866 54.8987C98.3658 54.4165 98.5767 53.8461 99.0589 53.6253C102.883 51.8697 107.573 52.3059 111.008 54.7338C111.442 55.0402 111.544 55.6395 111.238 56.073C111.05 56.337 110.754 56.4785 110.453 56.4785Z" fill="#6C352A"/>
<path d="M97.3292 159.551C97.1832 159.551 97.0381 159.55 96.8948 159.548C91.4091 159.45 83.4622 158.228 76.7545 152.96C69.1744 147.005 65.9886 134.188 64.7639 127.08C64.6746 126.557 65.0252 126.06 65.5479 125.97C66.0724 125.881 66.5672 126.231 66.6573 126.753C67.6054 132.258 70.6028 145.684 77.9414 151.449C84.2301 156.389 91.7372 157.535 96.9282 157.627C102.651 157.72 110.208 155.659 114.153 150.808C119.556 144.163 120.97 132.023 119.998 123.554C119.938 123.028 120.316 122.551 120.843 122.491C121.37 122.431 121.846 122.809 121.906 123.335C122.923 132.19 121.396 144.944 115.643 152.02C111.109 157.596 103.051 159.551 97.3292 159.551Z" fill="#6B5C31"/>
<path d="M39.9938 161.568C39.6847 161.568 39.381 161.419 39.1954 161.143C38.8998 160.702 39.0169 160.106 39.4576 159.81C48.2715 153.894 48.7852 136.826 48.3075 127.177C48.2814 126.648 48.6896 126.198 49.2196 126.171C49.7459 126.152 50.1992 126.553 50.2262 127.083C50.8345 139.362 49.6458 155.284 40.5282 161.405C40.3642 161.515 40.1777 161.568 39.9938 161.568Z" fill="#6B5C31"/>
<path d="M128.612 135.607C128.255 135.607 127.913 135.407 127.747 135.065C126.282 132.038 125.692 128.532 126.084 125.192C126.145 124.666 126.621 124.287 127.15 124.35C127.676 124.412 128.053 124.889 127.991 125.416C127.641 128.397 128.169 131.527 129.475 134.229C129.707 134.706 129.507 135.28 129.029 135.511C128.895 135.576 128.753 135.607 128.612 135.607Z" fill="#6B5C31"/>
<path d="M23.3287 248.42C20.5412 248.42 17.7547 248.199 14.9925 247.758C14.4689 247.675 14.112 247.183 14.1958 246.658C14.2796 246.134 14.7708 245.778 15.2953 245.861C20.115 246.632 25.0131 246.705 29.8526 246.079C30.3834 246.009 30.8601 246.383 30.9277 246.909C30.9962 247.435 30.6249 247.917 30.0986 247.985C27.8501 248.275 25.5889 248.42 23.3287 248.42Z" fill="#6B5C31"/>
<path d="M100.839 173.918C100.708 173.918 100.575 173.891 100.448 173.835C99.9639 173.618 99.7467 173.051 99.9621 172.567C100.904 170.458 101.281 168.128 101.051 165.831C100.998 165.303 101.382 164.832 101.911 164.779C102.442 164.724 102.909 165.112 102.961 165.639C103.224 168.27 102.795 170.935 101.717 173.349C101.557 173.707 101.207 173.918 100.839 173.918Z" fill="#6B5C31"/>
<path d="M51.4669 182.712C51.329 182.712 51.1893 182.683 51.0559 182.62C46.9861 180.691 43.8399 176.948 42.6395 172.608C42.498 172.097 42.7981 171.568 43.3091 171.427C43.8228 171.285 44.3491 171.585 44.4906 172.096C45.5441 175.906 48.3063 179.191 51.8787 180.884C52.3582 181.111 52.5619 181.684 52.3348 182.163C52.1707 182.51 51.8265 182.712 51.4669 182.712Z" fill="#6B5C31"/>
<path d="M141.626 178.316C141.573 178.316 141.52 178.312 141.467 178.303C140.943 178.216 140.59 177.721 140.678 177.198C140.731 176.882 140.5 176.467 140.117 176.189C139.64 175.843 138.978 175.668 138.336 175.499C137.823 175.363 137.518 174.838 137.653 174.325C137.788 173.812 138.315 173.506 138.826 173.642C139.601 173.846 140.478 174.078 141.245 174.635C142.225 175.345 142.745 176.475 142.572 177.514C142.494 177.984 142.087 178.316 141.626 178.316Z" fill="#CA7149"/>
<path d="M69.0602 37.2861C68.6195 37.2861 68.222 36.9797 68.1238 36.5309L65.7734 25.8119C65.6599 25.2937 65.9879 24.7818 66.5061 24.6683C67.0234 24.5538 67.5362 24.8827 67.6498 25.4009L69.9992 36.1199C70.1128 36.6381 69.7847 37.15 69.2674 37.2636C69.1981 37.2789 69.1287 37.2861 69.0602 37.2861Z" fill="#6C352A"/>
<path d="M107.454 111.258C107.013 111.258 106.615 110.951 106.517 110.502C105.944 107.873 105.78 105.181 106.031 102.502C106.081 101.974 106.549 101.586 107.077 101.635C107.605 101.684 107.993 102.153 107.944 102.681C107.711 105.163 107.863 107.657 108.394 110.093C108.507 110.611 108.179 111.123 107.661 111.235C107.591 111.251 107.523 111.258 107.454 111.258Z" fill="#6C352A"/>
<path d="M223.28 177.27C222.192 177.27 221.311 176.388 221.311 175.301V152.021C221.311 150.934 222.192 150.053 223.28 150.053C224.367 150.053 225.248 150.934 225.248 152.021V175.301C225.248 176.388 224.367 177.27 223.28 177.27Z" fill="#B27C72"/>
<path d="M229.099 174.271H217.46C214.705 174.271 215.927 167.403 215.79 165.763C215.735 165.115 215.614 164.469 215.658 163.82C215.699 163.215 215.883 162.619 215.844 162.014C215.798 161.314 215.454 160.655 215.44 159.953C215.422 159.06 215.934 158.236 216.013 157.347C216.127 156.067 215.189 152.915 217.46 152.915C217.486 152.915 229.085 152.915 229.099 152.915C230.752 152.915 230.738 154.685 230.598 155.82C230.372 157.665 231.145 159.476 230.86 161.311C230.783 161.803 230.618 162.289 230.646 162.788C230.674 163.295 230.901 163.78 230.898 164.288C230.893 165.005 230.431 165.682 230.536 166.391C230.602 166.836 230.888 167.235 230.898 167.685C230.904 168.009 230.766 168.317 230.666 168.625C230.229 169.979 230.554 171.427 230.554 172.816C230.554 173.619 229.903 174.271 229.099 174.271Z" fill="#B53F3A"/>
<path d="M232.99 213.869C232.934 213.869 232.878 213.864 232.821 213.854C229.876 213.332 227.422 210.629 226.855 207.282C226.417 204.703 226.987 201.818 228.547 198.707C228.739 198.325 228.942 197.943 229.146 197.562C229.919 196.108 230.65 194.735 230.79 193.259C231.101 189.953 228.278 187.031 225.34 185.599C223.471 184.689 221.474 184.151 219.359 183.582C217.859 183.178 216.307 182.76 214.811 182.197C212.654 181.385 207.533 178.96 206.597 173.986C206.01 170.87 207.309 167.425 210.069 164.771C212.448 162.483 215.535 161.049 218.257 159.783C218.738 159.559 219.31 159.768 219.533 160.249C219.756 160.73 219.548 161.301 219.067 161.524C216.354 162.786 213.549 164.09 211.4 166.155C209.631 167.856 207.935 170.714 208.484 173.631C209.24 177.646 213.633 179.702 215.488 180.399C216.897 180.929 218.402 181.335 219.858 181.727C221.967 182.295 224.147 182.882 226.181 183.873C229.714 185.593 233.1 189.219 232.702 193.439C232.526 195.298 231.669 196.908 230.841 198.464C230.645 198.832 230.45 199.2 230.264 199.568C228.891 202.306 228.381 204.793 228.748 206.961C229.115 209.123 230.746 211.535 233.156 211.963C233.679 212.055 234.027 212.554 233.934 213.076C233.851 213.542 233.446 213.869 232.99 213.869Z" fill="#B53F3A"/>
<path d="M217.892 158.673C217.627 158.673 217.364 158.565 217.175 158.352C216.822 157.956 216.858 157.349 217.253 156.996C218.613 155.785 220.097 154.703 221.665 153.777C222.122 153.508 222.71 153.659 222.98 154.116C223.249 154.572 223.098 155.161 222.641 155.431C221.18 156.293 219.797 157.303 218.53 158.431C218.347 158.593 218.119 158.673 217.892 158.673Z" fill="#7E2E31"/>
<path d="M217.712 163.11C217.405 163.11 217.104 162.964 216.917 162.691C216.619 162.253 216.733 161.656 217.171 161.357L227.476 154.334C227.915 154.035 228.512 154.149 228.811 154.587C229.11 155.025 228.996 155.622 228.558 155.921L218.252 162.944C218.086 163.056 217.899 163.11 217.712 163.11Z" fill="#7E2E31"/>
<path d="M217.737 167.843C217.384 167.843 217.045 167.648 216.876 167.311C216.64 166.837 216.833 166.26 217.308 166.023C217.951 165.702 218.551 165.272 219.185 164.816L227.049 159.164C227.48 158.855 228.08 158.953 228.389 159.384C228.699 159.814 228.601 160.415 228.17 160.724L220.305 166.376C219.637 166.856 218.946 167.352 218.164 167.742C218.026 167.811 217.88 167.843 217.737 167.843Z" fill="#7E2E31"/>
<path d="M218.28 172.356C217.967 172.356 217.66 172.202 217.475 171.919C217.186 171.475 217.312 170.88 217.756 170.591C219.42 169.508 221.085 168.373 222.696 167.276L228.359 163.42C228.798 163.122 229.395 163.234 229.693 163.673C229.992 164.111 229.878 164.709 229.44 165.007L223.777 168.863C222.158 169.966 220.485 171.106 218.804 172.201C218.642 172.306 218.461 172.356 218.28 172.356Z" fill="#7E2E31"/>
<path d="M223.222 173.425C222.935 173.425 222.65 173.296 222.461 173.051C222.137 172.631 222.214 172.028 222.634 171.705C224.453 170.303 226.437 169.118 228.532 168.182C229.015 167.967 229.584 168.183 229.8 168.668C230.016 169.152 229.799 169.72 229.314 169.936C227.359 170.809 225.506 171.917 223.808 173.225C223.633 173.36 223.427 173.425 223.222 173.425Z" fill="#7E2E31"/>
</svg>
