<svg width="355" height="368" viewBox="0 0 355 368" fill="none" xmlns="http://www.w3.org/2000/svg">
<ellipse cx="225.5" cy="238.001" rx="129.5" ry="130" fill="#3C4A3E"/>
<path d="M109.172 275.181C108.825 275.356 108.425 275.655 107.916 276.128C106.351 277.582 105.295 281.573 104.342 283.532C102.211 287.912 100.098 292.304 98.3957 296.872C97.4161 299.5 96.3175 302.288 94.0253 303.905C91.68 305.561 88.6018 305.626 85.7299 305.608C77.5206 305.553 64.3176 304.201 58.5902 297.257C53.8781 291.542 57.4964 281.751 58.5979 275.349C60.0605 266.847 62.0197 258.441 63.703 249.982C66.5652 235.593 70.0615 221.331 74.1802 207.251C81.8648 180.976 87.6803 154.295 96.9786 128.32C100.206 119.302 103.695 108.774 110.852 102.04C112.154 100.816 113.742 99.9438 115.333 99.1288C121.907 95.7632 128.619 92.5592 135.659 90.2816C140.901 88.5857 148.362 84.2706 153.779 84.4661C155.285 84.5203 156.74 84.9926 158.171 85.4612C167.452 88.4976 177.039 90.754 186.829 91.1024C191.94 91.2844 197.114 91.0008 202.158 90.1306C205.932 89.4792 209.503 87.5529 213.414 87.9904C217.721 88.4715 222.359 90.149 226.331 91.8003C233.678 94.8533 240.824 97.9643 247.68 102.001C248.518 102.494 249.358 102.989 250.144 103.564C255.477 107.462 256.5 113.498 259.049 119.118C261.747 125.064 264.26 130.963 266.442 137.212C271.385 151.375 275.837 165.71 279.788 180.181C285.112 199.678 289.527 219.423 293.012 239.331C296.333 258.302 299.925 277.805 300.856 297.087C300.924 298.521 299.24 298.141 297.94 298.751C289.403 302.753 277.275 304.301 267.952 303.177C266.538 303.502 266.241 302.407 265.354 301.261C264.467 300.113 264.05 298.683 263.65 297.289C261.16 288.589 258.662 279.855 257.413 270.894C241.98 276.028 224.751 275.902 208.638 276.308C188.102 276.826 167.248 278.398 146.733 277.32C135.737 276.742 124.1 277.073 113.211 275.711C110.94 275.428 110.356 274.585 109.172 275.181Z" fill="#B27C72"/>
<path d="M213.809 95.4219C213.602 95.4219 213.392 95.3638 213.205 95.2428C208.381 92.1153 203.437 89.0014 198.654 85.9891C194.026 83.0736 189.244 80.0613 184.561 77.0325C178.23 79.5609 171.931 82.3912 165.836 85.1296C162.562 86.5999 159.178 88.1196 155.82 89.5802C155.257 89.8251 154.601 89.5677 154.356 89.0033C154.111 88.44 154.37 87.7847 154.933 87.5398C158.279 86.0859 161.657 84.5681 164.924 83.0997C171.213 80.2742 177.716 77.3529 184.274 74.752C184.609 74.6184 184.987 74.6572 185.289 74.8527C190.114 77.9792 195.058 81.0941 199.84 84.1064C204.628 87.1226 209.579 90.2414 214.415 93.3756C214.93 93.7096 215.078 94.3987 214.743 94.9137C214.53 95.2428 214.173 95.4219 213.809 95.4219Z" fill="#7E2E31"/>
<path d="M184.541 76.1401C184.538 76.1401 184.535 76.1401 184.531 76.1401C183.918 76.1353 183.424 75.6329 183.429 75.0183C183.437 74.0629 183.48 73.1182 183.522 72.2034C183.618 70.103 183.708 68.1186 183.398 66.0772C183.085 64.0164 181.521 62.8558 179.709 61.5113C177.941 60.1988 175.937 58.711 175.073 56.1498C174.002 52.9787 174.639 49.4244 176.775 46.6415C178.839 43.9525 181.863 42.5286 185.067 42.7329C188.098 42.9274 190.793 44.4113 192.462 46.8041C194.126 49.1911 194.585 52.2257 193.719 55.1295C193.544 55.7181 192.924 56.054 192.336 55.8787C191.748 55.7026 191.413 55.0841 191.588 54.4946C192.258 52.2441 191.911 49.9045 190.636 48.077C189.358 46.2417 187.276 45.1034 184.924 44.9534C182.471 44.7975 180.145 45.9049 178.54 47.9957C176.855 50.1891 176.348 52.972 177.18 55.4383C177.822 57.3394 179.383 58.4981 181.035 59.7245C182.962 61.1551 185.147 62.7765 185.597 65.7433C185.94 68.0015 185.84 70.1891 185.744 72.3051C185.704 73.1985 185.661 74.1229 185.653 75.0376C185.648 75.6484 185.151 76.1401 184.541 76.1401Z" fill="#7E2E31"/>
<path d="M206.507 108.061C206.469 108.061 206.428 108.059 206.388 108.054C204.315 107.834 197.753 107.287 190.154 106.655C177.39 105.591 161.505 104.269 158.719 103.802C158.113 103.701 157.705 103.128 157.805 102.522C157.907 101.916 158.48 101.506 159.086 101.609C161.781 102.059 177.616 103.378 190.338 104.437C197.952 105.071 204.526 105.619 206.624 105.842C207.235 105.907 207.678 106.455 207.612 107.066C207.552 107.637 207.069 108.061 206.507 108.061Z" fill="#7E2E31"/>
<path d="M182.903 121.091C171.967 121.092 161.978 115.186 157.522 104.993C155.375 100.081 153.263 92.4996 153.385 86.6377C153.398 86.023 153.911 85.5284 154.52 85.5487C155.134 85.5613 155.622 86.0695 155.609 86.6841C155.494 92.2073 157.511 99.4128 159.561 104.102C163.647 113.45 172.836 118.861 182.915 118.862C186.784 118.862 190.784 118.065 194.677 116.387C204.119 112.319 208.343 103.894 212.816 94.9767C213.354 93.9032 213.893 92.8278 214.443 91.7582C214.724 91.2113 215.394 90.9964 215.94 91.2771C216.487 91.5578 216.702 92.2286 216.422 92.7746C215.876 93.8383 215.339 94.907 214.804 95.9736C210.349 104.856 205.744 114.041 195.558 118.43C191.372 120.234 187.068 121.091 182.903 121.091Z" fill="#8E5242"/>
<path d="M259.257 271.005C258.802 271.005 258.375 270.723 258.212 270.27C258.003 269.692 258.302 269.054 258.88 268.845C261.241 267.994 263.527 266.903 265.674 265.604L265.753 265.556C266.576 265.059 268.504 263.892 268.457 263.087C265.904 220.145 255.555 178.725 244.26 136.543C244.101 135.95 244.453 135.34 245.047 135.18C245.639 135.023 246.25 135.374 246.409 135.967C257.735 178.265 268.113 219.805 270.677 262.955C270.805 265.101 268.458 266.52 266.904 267.459L266.826 267.508C264.553 268.882 262.134 270.036 259.635 270.939C259.511 270.984 259.383 271.005 259.257 271.005Z" fill="#8E5242"/>
<path d="M267.18 290.359C266.6 290.359 266.112 289.909 266.072 289.32C266.031 288.708 266.494 288.177 267.108 288.136C276.094 287.534 284.883 285.515 293.231 282.135C293.8 281.906 294.449 282.179 294.679 282.749C294.909 283.318 294.635 283.966 294.065 284.197C285.499 287.665 276.479 289.737 267.256 290.356C267.23 290.357 267.205 290.359 267.18 290.359Z" fill="#8E5242"/>
<path d="M90.8635 293.822C90.8344 293.822 90.8035 293.821 90.7734 293.818C81.0793 293.041 71.571 289.944 63.2766 284.864C62.7529 284.543 62.5883 283.859 62.9087 283.335C63.2291 282.81 63.9154 282.646 64.4381 282.967C72.4364 287.866 81.604 290.851 90.9516 291.6C91.5643 291.65 92.0202 292.186 91.9718 292.798C91.9244 293.38 91.4375 293.822 90.8635 293.822Z" fill="#8E5242"/>
<path d="M245.744 122.535C245.14 122.535 244.644 122.051 244.633 121.443C244.552 117.229 244.976 113.007 245.892 108.893C246.026 108.294 246.619 107.916 247.219 108.049C247.819 108.183 248.197 108.777 248.063 109.377C247.185 113.318 246.78 117.364 246.856 121.401C246.869 122.015 246.38 122.522 245.765 122.534C245.759 122.535 245.752 122.535 245.744 122.535Z" fill="#8E5242"/>
<path d="M118.22 118.935C117.709 118.935 117.25 118.58 117.135 118.06C116.209 113.854 115.075 109.637 113.764 105.529C113.577 104.944 113.9 104.317 114.485 104.131C115.07 103.945 115.697 104.267 115.884 104.853C117.215 109.026 118.368 113.309 119.307 117.583C119.439 118.182 119.061 118.776 118.46 118.908C118.379 118.926 118.3 118.935 118.22 118.935Z" fill="#8E5242"/>
<path d="M282.576 271.248C282.069 271.248 281.611 270.899 281.493 270.383L280.032 264.01C279.896 263.411 280.269 262.815 280.868 262.677C281.468 262.543 282.064 262.914 282.201 263.514L283.661 269.887C283.798 270.486 283.424 271.082 282.826 271.219C282.741 271.239 282.658 271.248 282.576 271.248Z" fill="#8E5242"/>
<path d="M281.788 253.798C281.273 253.798 280.811 253.44 280.701 252.916L279.348 246.522C279.222 245.921 279.606 245.33 280.207 245.203C280.807 245.076 281.399 245.46 281.525 246.062L282.877 252.456C283.003 253.056 282.619 253.647 282.019 253.774C281.941 253.79 281.863 253.798 281.788 253.798Z" fill="#8E5242"/>
<path d="M289.292 268.867C288.747 268.867 288.271 268.468 288.192 267.914L287.391 262.363C287.302 261.756 287.724 261.191 288.332 261.103C288.939 261.019 289.505 261.438 289.592 262.046L290.393 267.596C290.481 268.204 290.059 268.768 289.451 268.856C289.397 268.863 289.344 268.867 289.292 268.867Z" fill="#8E5242"/>
<path d="M283.969 235.908C283.473 235.908 283.021 235.572 282.892 235.068L281.683 230.315C281.532 229.72 281.892 229.115 282.487 228.963C283.084 228.811 283.687 229.171 283.839 229.766L285.048 234.521C285.199 235.116 284.839 235.721 284.244 235.873C284.152 235.896 284.06 235.908 283.969 235.908Z" fill="#8E5242"/>
<path d="M277.119 213.332C276.637 213.332 276.193 213.016 276.052 212.53L274.896 208.554C274.725 207.965 275.064 207.347 275.654 207.176C276.243 207.004 276.861 207.343 277.032 207.933L278.188 211.908C278.359 212.499 278.021 213.115 277.431 213.287C277.327 213.317 277.222 213.332 277.119 213.332Z" fill="#8E5242"/>
<path d="M276.161 235.571C275.635 235.571 275.169 235.198 275.069 234.664L274.394 231.073C274.281 230.469 274.678 229.888 275.282 229.774C275.886 229.661 276.467 230.058 276.581 230.662L277.255 234.253C277.368 234.857 276.971 235.439 276.367 235.552C276.297 235.565 276.229 235.571 276.161 235.571Z" fill="#8E5242"/>
<path d="M275.499 191.134C274.933 191.134 274.449 190.703 274.394 190.127C274.319 189.336 273.991 188.57 273.474 187.969C273.073 187.503 273.125 186.801 273.591 186.399C274.056 185.999 274.759 186.051 275.16 186.517C275.975 187.463 276.49 188.67 276.609 189.915C276.667 190.527 276.219 191.07 275.607 191.128C275.571 191.132 275.535 191.134 275.499 191.134Z" fill="#8E5242"/>
<path d="M241.333 190.757C240.851 190.757 240.407 190.441 240.265 189.955L238.867 185.142C238.695 184.552 239.034 183.935 239.625 183.764C240.212 183.592 240.831 183.931 241.003 184.521L242.402 189.333C242.573 189.924 242.233 190.54 241.644 190.713C241.54 190.742 241.436 190.757 241.333 190.757Z" fill="#8E5242"/>
<path d="M245.374 173.685C244.888 173.685 244.441 173.363 244.303 172.871L243.185 168.886C243.02 168.295 243.364 167.681 243.956 167.515C244.547 167.349 245.162 167.695 245.327 168.285L246.445 172.271C246.612 172.863 246.266 173.476 245.675 173.642C245.574 173.67 245.473 173.685 245.374 173.685Z" fill="#8E5242"/>
<path d="M249.416 197.47C248.847 197.47 248.362 197.037 248.31 196.459L247.805 190.917C247.748 190.305 248.199 189.764 248.811 189.709C249.426 189.655 249.964 190.104 250.019 190.715L250.525 196.256C250.581 196.869 250.13 197.41 249.518 197.465C249.484 197.469 249.45 197.47 249.416 197.47Z" fill="#8E5242"/>
<path d="M245.834 213.329C245.291 213.329 244.816 212.932 244.735 212.38L243.861 206.443C243.771 205.836 244.192 205.27 244.799 205.181C245.408 205.09 245.973 205.512 246.062 206.119L246.936 212.055C247.025 212.663 246.605 213.228 245.997 213.317C245.943 213.326 245.887 213.329 245.834 213.329Z" fill="#8E5242"/>
<path d="M255.325 228.004C254.788 228.004 254.314 227.614 254.227 227.066L253.727 223.91C253.631 223.303 254.044 222.734 254.651 222.638C255.256 222.542 255.828 222.955 255.924 223.562L256.424 226.717C256.521 227.324 256.107 227.894 255.5 227.99C255.441 227.999 255.383 228.004 255.325 228.004Z" fill="#8E5242"/>
<path d="M261.216 247.838C260.654 247.838 260.172 247.414 260.111 246.843C259.921 245.04 259.308 243.279 258.337 241.749C258.009 241.23 258.163 240.543 258.682 240.214C259.2 239.885 259.887 240.039 260.216 240.557C261.369 242.376 262.098 244.469 262.324 246.61C262.387 247.221 261.945 247.769 261.334 247.833C261.295 247.836 261.255 247.838 261.216 247.838Z" fill="#8E5242"/>
<path d="M67.3241 272.423C66.7094 272.423 66.2119 271.924 66.2119 271.311V267.742C66.2119 267.127 66.7094 266.63 67.3241 266.63C67.9388 266.63 68.4363 267.127 68.4363 267.742V271.311C68.4363 271.924 67.9388 272.423 67.3241 272.423Z" fill="#8E5242"/>
<path d="M72.0852 253.787C71.969 253.787 71.851 253.769 71.7338 253.73C71.1511 253.535 70.8356 252.906 71.0301 252.323L71.8229 249.943C72.0174 249.361 72.6486 249.046 73.2303 249.241C73.813 249.434 74.1276 250.064 73.933 250.648L73.1403 253.026C72.9854 253.492 72.5518 253.787 72.0852 253.787Z" fill="#8E5242"/>
<path d="M72.9174 272.436C72.8138 272.436 72.7093 272.42 72.6048 272.39C72.0143 272.217 71.6774 271.598 71.8497 271.009C72.2185 269.751 72.3221 268.399 72.1479 267.099C72.0666 266.49 72.4944 265.931 73.1033 265.85C73.7063 265.77 74.2716 266.195 74.3529 266.804C74.5678 268.411 74.44 270.08 73.9851 271.635C73.8428 272.12 73.3985 272.436 72.9174 272.436Z" fill="#8E5242"/>
<path d="M79.6106 258.543C79.5544 258.543 79.4973 258.54 79.4402 258.531C78.8333 258.438 78.4161 257.87 78.509 257.263L78.994 254.103C79.0869 253.497 79.6532 253.08 80.262 253.172C80.8699 253.266 81.2861 253.833 81.1932 254.44L80.7082 257.6C80.624 258.149 80.1497 258.543 79.6106 258.543Z" fill="#8E5242"/>
<path d="M80.7239 240.679C80.6291 240.679 80.5332 240.668 80.4384 240.641C79.844 240.485 79.4907 239.875 79.6475 239.281L80.4858 236.121C80.6436 235.528 81.2524 235.173 81.8458 235.331C82.4401 235.489 82.7934 236.098 82.6356 236.691L81.7984 239.852C81.6657 240.35 81.2156 240.679 80.7239 240.679Z" fill="#8E5242"/>
<path d="M225.143 105.087C224.978 105.087 224.811 105.05 224.652 104.972C224.102 104.701 223.874 104.034 224.146 103.483C224.197 103.377 224.378 102.926 224.524 102.564C225.412 100.347 225.681 99.677 226.742 100.013C227.772 100.338 227.514 101.437 227.416 101.85C227.347 102.14 227.17 102.379 226.938 102.529C226.813 102.833 226.682 103.159 226.588 103.392C226.36 103.962 226.227 104.292 226.142 104.465C225.949 104.858 225.554 105.087 225.143 105.087Z" fill="#8E5242"/>
<path d="M224.684 116.969C224.609 116.969 224.532 116.961 224.455 116.946C223.854 116.82 223.468 116.23 223.594 115.629L224.502 111.291C224.629 110.69 225.216 110.303 225.819 110.43C226.421 110.556 226.806 111.145 226.68 111.747L225.772 116.084C225.662 116.609 225.199 116.969 224.684 116.969Z" fill="#8E5242"/>
<path d="M234.272 107.87C234.005 107.87 233.738 107.775 233.525 107.583C233.069 107.17 233.035 106.468 233.447 106.012C233.569 105.877 233.621 105.653 233.571 105.478C233.4 104.888 233.741 104.271 234.331 104.101C234.922 103.931 235.538 104.271 235.708 104.862C235.973 105.782 235.739 106.795 235.096 107.504C234.877 107.747 234.575 107.87 234.272 107.87Z" fill="#8E5242"/>
<path d="M235.116 123.765C234.893 123.765 234.669 123.699 234.474 123.561C233.973 123.207 233.854 122.513 234.208 122.01C234.411 121.725 234.47 121.325 234.359 120.993C234.164 120.41 234.479 119.78 235.062 119.585C235.643 119.391 236.274 119.706 236.469 120.288C236.802 121.285 236.632 122.437 236.025 123.296C235.808 123.602 235.464 123.765 235.116 123.765Z" fill="#8E5242"/>
<path d="M109.417 268.867C109.343 268.867 109.269 268.859 109.194 268.845C108.593 268.722 108.204 268.135 108.326 267.533C109.314 262.66 110.635 257.803 112.249 253.099C112.449 252.517 113.081 252.209 113.662 252.408C114.243 252.607 114.553 253.239 114.353 253.821C112.77 258.434 111.476 263.197 110.506 267.976C110.398 268.503 109.935 268.867 109.417 268.867Z" fill="#8E5242"/>
<path d="M155.92 265.946C144.046 265.946 132.08 265.239 120.311 263.841C119.701 263.768 119.264 263.216 119.337 262.605C119.41 261.996 119.959 261.563 120.573 261.632C133.079 263.118 145.811 263.816 158.413 263.711C163.69 263.667 169.134 263.669 174.4 263.674C203.838 263.682 234.285 263.709 262.252 255.938C262.843 255.769 263.457 256.12 263.621 256.711C263.786 257.302 263.439 257.916 262.847 258.081C234.588 265.934 203.992 265.91 174.399 265.898C169.139 265.894 163.699 265.891 158.431 265.936C157.596 265.942 156.757 265.946 155.92 265.946Z" fill="#8E5242"/>
<path d="M108.414 291.078C105.754 291.487 102.726 291.829 101.834 289.29C94.0245 266.977 88.9495 244.076 83.9074 221.066C74.5694 221.063 65.9139 218.894 57.2274 215.66C52.5173 213.907 43.4214 211.359 44.0506 204.747C44.5539 199.493 47.1103 193.823 48.5119 188.727C51.3693 178.34 55.2925 168.338 58.6087 158.107C61.1293 150.331 66.7899 146.991 73.0594 141.951C77.9176 138.046 83.0604 134.435 87.8315 130.432C92.1224 126.831 95.3816 126.459 101.165 126.351C110.763 126.172 120.421 124.827 129.541 121.765C135.466 119.776 142.483 116.634 147.427 112.781C148.138 112.226 148.845 111.63 149.695 111.326C150.674 110.976 151.747 111.048 152.785 111.126C166.489 112.147 179.74 108.697 192.639 115.089C206.954 122.185 220.395 133.028 233.826 141.708C235.496 142.788 235.159 143.838 234.968 145.817C234.218 153.594 229.076 159.952 224.138 165.626C221.643 168.492 218.92 171.152 216.612 174.205C216.375 174.517 216.135 174.852 216.084 175.241C216.007 175.821 216.363 176.359 216.693 176.843C219.974 181.651 222.025 187.619 224.711 192.793C230.44 203.83 235.859 215.075 240.187 226.745C241.665 230.73 244.693 235.977 242.656 240.162C240.59 244.405 234.353 247.346 230.442 249.455C211.241 259.81 190.732 269.449 170.036 276.128C149.906 282.623 129.333 287.863 108.414 291.078Z" fill="#EFB28C"/>
<path d="M97.2436 131.384C96.9532 131.384 96.6628 131.271 96.445 131.046C96.0181 130.605 96.0288 129.9 96.4702 129.473C99.0885 126.935 101.717 124.327 104.257 121.805C109.151 116.947 114.212 111.923 119.437 107.181C119.703 106.939 120.07 106.84 120.422 106.918C126.04 108.148 131.768 109.325 137.307 110.462C142.847 111.601 148.576 112.778 154.202 114.011C154.802 114.141 155.183 114.735 155.051 115.335C154.921 115.935 154.327 116.315 153.727 116.183C148.114 114.955 142.393 113.779 136.859 112.642C131.498 111.541 125.96 110.402 120.509 109.214C115.469 113.809 110.569 118.675 105.825 123.384C103.279 125.911 100.647 128.523 98.0179 131.07C97.8021 131.28 97.5233 131.384 97.2436 131.384Z" fill="#7E2E31"/>
<path d="M119.784 108.457C119.33 108.457 118.904 108.177 118.739 107.727C118.411 106.829 118.119 105.93 117.836 105.06C117.187 103.06 116.573 101.17 115.565 99.3674C114.547 97.5486 112.674 97.0123 110.506 96.3909C108.389 95.7849 105.989 95.0967 104.279 93.004C102.162 90.4118 101.508 86.8613 102.528 83.5044C103.514 80.2608 105.842 77.8641 108.916 76.9281C111.82 76.0443 114.866 76.4848 117.269 78.1381C119.667 79.7875 121.163 82.4668 121.375 85.4887C121.419 86.1015 120.957 86.6329 120.344 86.6764C119.723 86.7248 119.199 86.2573 119.157 85.6446C118.992 83.3021 117.845 81.2346 116.009 79.9714C114.167 78.7043 111.818 78.3704 109.563 79.0566C107.211 79.7729 105.423 81.6295 104.657 84.151C103.852 86.7974 104.356 89.5803 106.002 91.5966C107.272 93.1501 109.14 93.6854 111.119 94.2527C113.426 94.9128 116.042 95.662 117.506 98.2823C118.621 100.275 119.298 102.358 119.952 104.374C120.228 105.224 120.515 106.103 120.828 106.961C121.039 107.538 120.743 108.177 120.166 108.389C120.04 108.434 119.911 108.457 119.784 108.457Z" fill="#7E2E31"/>
<path d="M105.519 143.383C104.998 143.383 104.533 143.015 104.429 142.485C104.311 141.882 104.704 141.298 105.306 141.179C107.988 140.653 123.28 136.316 135.567 132.831C142.91 130.748 149.253 128.948 151.295 128.42C151.89 128.265 152.497 128.623 152.651 129.218C152.805 129.812 152.448 130.419 151.853 130.573C149.835 131.096 143.505 132.892 136.173 134.971C123.847 138.467 108.507 142.819 105.735 143.362C105.662 143.377 105.591 143.383 105.519 143.383Z" fill="#7E2E31"/>
<path d="M131.601 226.31C143.845 235.067 160.909 229.959 170.867 220.119C181.627 209.485 182.203 188.52 170.638 177.906C165.556 173.242 158.937 170.535 152.063 170.133C138.978 169.37 124.944 177.337 120.674 190.034C117.674 198.951 119.177 209.052 123.744 217.277C125.915 221.187 128.596 224.16 131.601 226.31Z" fill="#F0DDD1"/>
<path d="M122.463 150.931C118.31 150.931 114.356 150.003 110.912 148.133C104.123 144.451 98.4641 137.729 94.9785 129.205C94.7462 128.637 95.0182 127.987 95.5873 127.755C96.1565 127.521 96.805 127.794 97.0374 128.363C100.329 136.412 105.634 142.74 111.972 146.178C118.832 149.901 127.985 149.497 136.457 145.099C141.182 142.645 145.186 139.127 148.036 134.927C152.298 128.648 153.2 120.796 153.54 113.247C153.568 112.633 154.083 112.161 154.702 112.185C155.315 112.213 155.791 112.733 155.763 113.347C155.407 121.223 154.449 129.44 149.876 136.177C146.82 140.682 142.533 144.449 137.482 147.072C132.541 149.637 127.364 150.931 122.463 150.931Z" fill="#CA7149"/>
<path d="M213.45 172.495C213.052 172.495 212.668 172.281 212.468 171.905C207.581 162.728 201.915 153.878 195.626 145.599C195.255 145.11 195.349 144.412 195.839 144.04C196.327 143.669 197.026 143.764 197.398 144.253C203.758 152.626 209.488 161.578 214.432 170.86C214.72 171.402 214.515 172.075 213.972 172.364C213.806 172.452 213.626 172.495 213.45 172.495Z" fill="#CA7149"/>
<path d="M83.5864 219.088C83.0502 219.088 82.5778 218.699 82.4897 218.152C80.5238 205.912 79.6788 192.683 79.9062 177.71C79.9159 177.101 80.4115 176.614 81.0184 176.614C81.0243 176.614 81.0301 176.614 81.0359 176.614C81.6495 176.624 82.1403 177.129 82.1306 177.744C81.9051 192.586 82.7404 205.689 84.686 217.8C84.7838 218.407 84.3705 218.977 83.7636 219.075C83.7045 219.085 83.6445 219.088 83.5864 219.088Z" fill="#CA7149"/>
<path d="M69.5959 160.635C69.1235 160.635 68.686 160.332 68.5359 159.859C68.0103 158.203 66.8643 156.725 65.3901 155.803C64.8693 155.478 64.7106 154.792 65.0368 154.27C65.362 153.749 66.0483 153.591 66.569 153.917C68.4837 155.113 69.9734 157.034 70.6558 159.186C70.8416 159.772 70.5183 160.396 69.9327 160.582C69.8204 160.618 69.7072 160.635 69.5959 160.635Z" fill="#CA7149"/>
<path d="M186.056 123.131C185.486 123.131 185.001 122.695 184.95 122.116L184.529 117.361C184.475 116.748 184.927 116.209 185.538 116.155C186.155 116.094 186.691 116.553 186.744 117.164L187.166 121.921C187.22 122.533 186.768 123.073 186.156 123.127C186.122 123.13 186.089 123.131 186.056 123.131Z" fill="#CA7149"/>
<path d="M108.971 287.334C108.394 287.334 107.906 286.889 107.862 286.304C107.817 285.691 108.277 285.158 108.889 285.113C116.277 284.564 123.83 283.345 131.978 281.388C139.155 279.664 146.288 277.842 153.18 275.976C166.497 272.37 180.7 267.17 196.6 260.082C203.816 256.865 211.551 253.194 220.943 248.529C227.193 245.425 232.777 242.549 237.83 238.787C238.321 238.42 239.019 238.522 239.386 239.014C239.753 239.507 239.651 240.204 239.159 240.571C233.958 244.444 228.281 247.369 221.933 250.522C212.512 255.201 204.751 258.884 197.506 262.114C181.499 269.25 167.191 274.486 153.761 278.123C146.849 279.996 139.695 281.821 132.498 283.55C124.232 285.536 116.563 286.773 109.054 287.331C109.026 287.333 108.999 287.334 108.971 287.334Z" fill="#CA7149"/>
<path d="M217.827 167.956C217.525 167.956 217.225 167.834 217.005 167.594C216.591 167.14 216.622 166.436 217.076 166.022C217.921 165.251 218.662 164.536 219.34 163.839C224.683 158.342 227.731 151.61 230.396 145.185C230.631 144.618 231.282 144.349 231.849 144.584C232.417 144.819 232.686 145.469 232.451 146.038C229.704 152.661 226.552 159.612 220.935 165.389C220.226 166.119 219.455 166.863 218.576 167.666C218.363 167.86 218.094 167.956 217.827 167.956Z" fill="#CA7149"/>
<path d="M78.0263 216.979C77.9982 216.979 77.9692 216.978 77.9401 216.976C67.794 216.197 57.7359 213.16 48.8529 208.195C48.3166 207.895 48.125 207.217 48.425 206.681C48.7251 206.145 49.4017 205.953 49.9389 206.253C58.5422 211.062 68.2837 214.003 78.1105 214.758C78.7232 214.805 79.1811 215.34 79.1346 215.952C79.0891 216.536 78.6022 216.979 78.0263 216.979Z" fill="#CA7149"/>
<path d="M138.036 193.743C137.878 193.743 137.718 193.71 137.565 193.638C137.009 193.378 136.769 192.716 137.029 192.16C138.718 188.545 142.232 181.025 147.767 182.344C151.165 183.155 153.918 185.561 156.347 187.683C156.65 187.948 156.95 188.209 157.247 188.464C157.713 188.865 157.766 189.568 157.365 190.033C156.965 190.499 156.262 190.551 155.797 190.152C155.495 189.892 155.191 189.627 154.884 189.358C152.54 187.31 150.115 185.192 147.252 184.508C143.484 183.606 140.484 190.019 139.044 193.101C138.855 193.506 138.455 193.743 138.036 193.743Z" fill="#8D8248"/>
<path d="M157.166 191.196C157.125 191.196 157.084 191.193 157.044 191.189C155.892 191.058 154.684 191.007 153.516 190.959C151.85 190.888 150.127 190.815 148.44 190.513C147.835 190.406 147.433 189.828 147.541 189.223C147.649 188.619 148.227 188.216 148.831 188.324C150.37 188.599 151.944 188.666 153.61 188.735C154.372 188.767 155.149 188.8 155.929 188.855C155.536 186.797 154.57 182.715 154.385 182.023C154.225 181.43 154.576 180.82 155.17 180.66C155.764 180.501 156.374 180.853 156.532 181.446C156.613 181.746 157.104 183.76 157.556 185.783C158.543 190.207 158.435 190.332 158.03 190.802C157.816 191.05 157.493 191.196 157.166 191.196Z" fill="#8D8248"/>
<path d="M154.568 212.195C154.107 212.195 153.677 211.907 153.517 211.447C153.316 210.866 153.622 210.233 154.203 210.031C154.579 209.901 154.961 209.772 155.347 209.641C158.296 208.642 161.346 207.609 163.375 205.476C166.047 202.668 162.008 196.857 160.066 194.064C159.716 193.559 159.841 192.867 160.345 192.517C160.849 192.164 161.542 192.29 161.893 192.794C164.17 196.07 168.909 202.887 164.986 207.01C162.579 209.54 159.116 210.712 156.061 211.748C155.68 211.877 155.304 212.004 154.933 212.133C154.812 212.175 154.689 212.195 154.568 212.195Z" fill="#8D8248"/>
<path d="M161.652 215.08C161.555 215.08 161.458 215.067 161.361 215.041C161.061 214.96 159.071 214.372 157.097 213.747C152.776 212.38 152.722 212.223 152.519 211.637C152.399 211.29 152.459 210.886 152.679 210.591C153.371 209.659 154.022 208.64 154.651 207.656C155.548 206.25 156.477 204.796 157.584 203.489C157.982 203.02 158.683 202.962 159.152 203.36C159.62 203.757 159.679 204.459 159.282 204.928C158.27 206.121 157.423 207.447 156.526 208.852C156.115 209.496 155.696 210.152 155.256 210.8C157.231 211.494 161.231 212.702 161.942 212.893C162.534 213.054 162.885 213.665 162.725 214.258C162.591 214.754 162.142 215.08 161.652 215.08Z" fill="#8D8248"/>
<path d="M144.414 214.857C140.784 214.857 136.967 214.052 135.785 210.595C134.654 207.291 135.215 203.678 135.711 200.491C135.772 200.094 135.833 199.701 135.891 199.312C135.98 198.705 136.545 198.284 137.153 198.374C137.761 198.464 138.181 199.029 138.091 199.637C138.033 200.031 137.971 200.43 137.908 200.833C137.431 203.909 136.937 207.09 137.889 209.875C139.144 213.544 146.164 212.649 149.538 212.219C150.147 212.148 150.705 212.573 150.782 213.182C150.86 213.792 150.429 214.349 149.819 214.427C148.402 214.607 146.437 214.857 144.414 214.857Z" fill="#8D8248"/>
<path d="M141.299 207.193C140.86 207.193 140.445 206.931 140.268 206.5C139.678 205.052 138.893 203.686 138.062 202.241C137.682 201.58 137.294 200.905 136.923 200.215C135.395 201.645 132.474 204.633 131.976 205.174C131.559 205.626 130.855 205.655 130.404 205.238C129.952 204.822 129.923 204.118 130.339 203.667C130.55 203.438 131.991 201.946 133.458 200.484C136.668 197.287 136.832 197.312 137.446 197.4C137.811 197.455 138.14 197.696 138.3 198.027C138.806 199.072 139.408 200.119 139.991 201.133C140.822 202.578 141.682 204.073 142.328 205.66C142.561 206.229 142.288 206.878 141.718 207.11C141.581 207.166 141.439 207.193 141.299 207.193Z" fill="#8D8248"/>
<path d="M24.3147 142.627C23.7398 142.627 23.1658 142.54 22.615 142.356C22.0323 142.163 21.7167 141.533 21.9113 140.95C22.1058 140.367 22.736 140.053 23.3187 140.246C24.8093 140.744 26.6591 140.038 27.4412 138.676C28.0027 137.698 27.9746 136.118 27.0347 135.415C26.33 134.888 25.1685 134.824 23.5829 135.228L23.248 135.316C22.5308 135.505 21.7216 135.719 20.8485 135.677C18.8757 135.581 17.0289 134.093 16.3571 132.058C15.8044 130.385 16.0135 128.382 16.9301 126.565C17.6406 125.156 18.6512 124.062 19.8495 123.405C21.3015 122.608 22.9993 122.497 24.3941 123.108C24.9565 123.353 25.213 124.01 24.9671 124.572C24.7203 125.135 24.064 125.391 23.5016 125.145C22.7466 124.815 21.7583 124.895 20.9201 125.355C19.9047 125.912 19.2697 126.865 18.9164 127.567C18.264 128.86 18.1014 130.243 18.4702 131.361C18.8535 132.523 19.8989 133.404 20.9569 133.455C21.4834 133.485 22.0652 133.327 22.6798 133.165L23.0341 133.073C25.333 132.486 27.0792 132.67 28.3676 133.634C30.1167 134.943 30.5668 137.701 29.3704 139.784C28.355 141.551 26.3329 142.627 24.3147 142.627Z" fill="#8D8248"/>
<path d="M34.9668 133.061C34.8884 133.061 34.81 133.053 34.7316 133.035C34.3928 132.962 34.1073 132.734 33.9601 132.42C32.0939 128.436 29.7998 124.638 27.1418 121.133C26.7711 120.644 26.8669 119.946 27.3557 119.575C27.8455 119.203 28.5434 119.299 28.9141 119.789C31.3766 123.035 33.5362 126.524 35.3482 130.177C35.355 130.171 35.3608 130.166 35.3675 130.161C36.7304 129.025 38.0178 127.954 39.1523 126.658C39.5569 126.197 40.2606 126.15 40.7223 126.555C41.184 126.959 41.2305 127.662 40.8259 128.125C39.5762 129.551 38.1601 130.73 36.7914 131.87C36.4246 132.175 36.0567 132.482 35.6889 132.795C35.4856 132.969 35.2291 133.061 34.9668 133.061Z" fill="#8D8248"/>
<path d="M42.489 111.788C41.5666 111.788 40.676 112.072 39.9452 112.631C38.742 113.55 38.2184 114.976 38.5088 116.545C38.9095 118.717 40.4805 120.623 42.3274 121.18C43.8084 121.626 45.2564 121.175 46.5128 119.874C47.5747 118.776 47.4827 117.209 47.3337 116.374C47.0094 114.562 45.8963 112.914 44.5624 112.272C43.8897 111.948 43.1802 111.788 42.489 111.788ZM43.4463 123.576C42.8656 123.576 42.2761 123.488 41.6856 123.31C39.0324 122.51 36.8758 119.955 36.3202 116.95C35.8798 114.563 36.7297 112.287 38.5949 110.862C40.5425 109.374 43.1995 109.146 45.5275 110.267C47.504 111.219 49.0731 113.462 49.5232 115.982C49.9046 118.115 49.3906 120.098 48.1129 121.42C46.7403 122.84 45.1277 123.576 43.4463 123.576Z" fill="#8D8248"/>
<path d="M55.6315 113.973C54.7478 113.973 53.8147 113.627 52.9193 112.949C50.7724 111.319 49.0049 108.63 47.4455 106.256C47.1493 105.805 46.8628 105.369 46.5859 104.96C46.2413 104.452 46.3749 103.76 46.8831 103.415C47.3922 103.071 48.0834 103.204 48.428 103.713C48.7106 104.13 49.0029 104.575 49.3049 105.034C50.7656 107.258 52.4218 109.778 54.2638 111.176C54.6955 111.503 55.5154 111.992 56.1726 111.595C56.7369 111.254 57.2335 110.222 56.9877 108.765C56.7582 107.398 56.3643 106.061 55.8174 104.788C55.6064 104.297 55.7748 103.725 56.2181 103.426C56.6624 103.128 57.2558 103.187 57.6313 103.568C58.0369 103.979 58.5277 104.368 59.0475 104.778C59.5963 105.213 60.1645 105.662 60.6669 106.171C61.3803 106.895 62.1285 107.549 62.7857 107.469C63.3501 107.395 63.7808 106.727 63.8999 106.136C64.0693 105.291 63.8573 104.328 63.6521 103.396C63.0016 100.435 62.263 97.0798 60.4297 94.5273C60.0716 94.0278 60.1858 93.3328 60.6843 92.9746C61.1838 92.6165 61.8788 92.7307 62.2369 93.2292C64.3374 96.1544 65.1272 99.7475 65.8251 102.918C66.0555 103.966 66.342 105.271 66.0807 106.574C65.7516 108.212 64.5136 109.488 63.0713 109.675C61.2331 109.912 59.8335 108.495 59.0823 107.733C59.0726 107.723 59.062 107.713 59.0523 107.702C59.0997 107.933 59.1423 108.164 59.182 108.396C59.5508 110.59 58.8219 112.592 57.3235 113.498C56.7999 113.816 56.2268 113.973 55.6315 113.973Z" fill="#8D8248"/>
<path d="M36.5555 158.062C36.2748 158.062 35.9941 157.956 35.7772 157.744C32.8656 154.893 30.1273 151.81 27.6367 148.582C27.2873 148.129 27.3386 147.484 27.7567 147.092C29.4807 145.474 31.0458 144.244 32.8317 143.101C33.3477 142.771 34.0368 142.922 34.3679 143.439C34.6989 143.956 34.5479 144.645 34.0301 144.975C32.6246 145.875 31.3614 146.836 30.0266 148.029C32.2839 150.883 34.7386 153.614 37.3337 156.156C37.7732 156.585 37.78 157.289 37.3502 157.728C37.1324 157.951 36.8439 158.062 36.5555 158.062Z" fill="#8D8248"/>
<path d="M42.104 152.295C41.7062 152.295 41.3219 152.082 41.1215 151.707C39.0917 147.905 37.3358 143.914 35.9023 139.846C35.7493 139.414 35.879 138.932 36.2275 138.633C36.576 138.334 37.0716 138.28 37.4771 138.497C40.9308 140.349 44.492 142.476 47.1393 145.469C47.5459 145.93 47.5033 146.633 47.0425 147.039C46.5828 147.447 45.88 147.403 45.4725 146.944C43.704 144.943 41.4284 143.335 39.052 141.929C40.2271 144.913 41.5784 147.839 43.0845 150.66C43.373 151.202 43.1688 151.875 42.6267 152.165C42.4602 152.254 42.2811 152.295 42.104 152.295Z" fill="#8D8248"/>
<path d="M33.2457 154.269C33.0608 154.269 32.873 154.224 32.6997 154.126C32.1644 153.824 31.9757 153.145 32.2777 152.61C32.9485 151.422 33.8158 150.371 34.8563 149.489C35.3239 149.092 36.0266 149.15 36.4244 149.617C36.8213 150.086 36.7642 150.788 36.2957 151.185C35.4565 151.898 34.7566 152.745 34.2156 153.704C34.0113 154.066 33.6338 154.269 33.2457 154.269Z" fill="#8D8248"/>
<path d="M40.3277 148.269C40.0082 148.269 39.6917 148.132 39.472 147.867C39.079 147.394 39.1438 146.693 39.6162 146.301L42.644 143.787C43.1163 143.395 43.8181 143.46 44.2101 143.933C44.6022 144.405 44.5373 145.106 44.065 145.499L41.0381 148.012C40.83 148.184 40.5784 148.269 40.3277 148.269Z" fill="#8D8248"/>
<path d="M48.5689 144.244C48.293 144.244 48.0172 144.142 47.8013 143.937C47.357 143.513 47.3406 142.808 47.7636 142.364C48.1081 142.004 48.2466 141.439 48.1082 140.96C47.9707 140.481 47.5545 140.077 47.0715 139.954C46.7036 139.86 46.24 139.896 45.7483 139.933C45.0968 139.984 44.3573 140.041 43.5955 139.82C42.1029 139.385 40.9965 137.917 40.9646 136.328C40.9346 134.829 41.8416 133.363 43.2209 132.679C43.7717 132.407 44.4386 132.632 44.7116 133.183C44.9836 133.734 44.759 134.4 44.2082 134.673C43.6042 134.973 43.1764 135.649 43.189 136.283C43.2015 136.905 43.6526 137.519 44.2169 137.684C44.5886 137.792 45.0688 137.754 45.5769 137.716C46.1964 137.667 46.8982 137.613 47.6222 137.798C48.8632 138.115 49.8931 139.115 50.2464 140.347C50.6007 141.577 50.258 142.972 49.3742 143.899C49.1555 144.128 48.8632 144.244 48.5689 144.244Z" fill="#8D8248"/>
<path d="M53.8214 139.009C53.5175 139.009 53.2145 138.885 52.9948 138.641L46.0351 130.928C45.6237 130.472 45.6605 129.768 46.1164 129.357C46.5723 128.945 47.2751 128.981 47.6874 129.437L54.6471 137.152C55.0584 137.608 55.0226 138.311 54.5667 138.723C54.3538 138.914 54.0866 139.009 53.8214 139.009Z" fill="#8D8248"/>
<path d="M58.0576 135.576C57.7401 135.576 57.4256 135.441 57.2049 135.18C55.1421 132.725 53.1152 130.186 51.1832 127.635C50.8115 127.146 50.9083 126.448 51.3981 126.077C51.8869 125.706 52.5848 125.802 52.9565 126.292C54.8663 128.814 56.869 131.321 58.9085 133.748C59.3034 134.219 59.2424 134.919 58.773 135.315C58.5639 135.491 58.3103 135.576 58.0576 135.576Z" fill="#8D8248"/>
<path d="M61.147 131.869C60.7511 131.869 60.3678 131.657 60.1675 131.284C58.702 128.565 56.8987 126.036 54.804 123.765C54.3878 123.313 54.4168 122.61 54.8679 122.193C55.3199 121.777 56.0236 121.806 56.4398 122.257C58.6594 124.665 60.573 127.347 62.1257 130.229C62.417 130.771 62.2147 131.445 61.6736 131.736C61.5062 131.827 61.3252 131.869 61.147 131.869Z" fill="#8D8248"/>
<path d="M51.0595 135.41C50.713 135.41 50.3723 135.248 50.1554 134.946C49.7963 134.447 49.9115 133.752 50.41 133.393L54.2122 130.667C54.7126 130.309 55.4066 130.424 55.7648 130.922C56.1229 131.422 56.0087 132.117 55.5092 132.474L51.7071 135.202C51.5106 135.342 51.2841 135.41 51.0595 135.41Z" fill="#8D8248"/>
<path d="M63.8709 125.077C64.7527 125.921 65.6519 126.321 66.3353 126.171C67.2317 125.978 67.7727 125.524 67.9905 124.783C68.368 123.507 67.7089 121.595 66.4563 120.338C65.8252 119.704 64.5136 118.714 62.8119 119.21C62.2244 119.38 61.9059 119.687 61.7791 120.204C61.4645 121.485 62.4035 123.671 63.8709 125.077ZM66.0401 128.428C64.8156 128.428 63.5253 127.826 62.3318 126.683C60.5479 124.974 59.0437 122.019 59.6186 119.674C59.9342 118.387 60.848 117.464 62.1915 117.074C64.2387 116.478 66.3673 117.096 68.0331 118.768C69.8732 120.617 70.7337 123.35 70.1249 125.414C69.6748 126.938 68.4968 127.98 66.8067 128.345C66.555 128.401 66.2995 128.428 66.0401 128.428Z" fill="#8D8248"/>
<path d="M73.5344 122.882C73.1965 122.882 72.8616 122.728 72.6438 122.436L66.5379 114.277C66.1701 113.785 66.2708 113.088 66.7625 112.72C67.2542 112.352 67.9512 112.453 68.319 112.944L74.4249 121.104C74.7927 121.596 74.692 122.293 74.2003 122.661C73.9999 122.811 73.7667 122.882 73.5344 122.882Z" fill="#8D8248"/>
<path d="M77.0928 117.546C77.0367 117.546 76.9815 117.543 76.9253 117.534C75.0301 117.246 73.0361 116.519 71.1079 115.816C69.8089 115.342 68.5815 114.895 67.4325 114.594C66.8382 114.438 66.483 113.83 66.6378 113.236C66.7946 112.642 67.4035 112.286 67.9959 112.442C69.2465 112.769 70.5804 113.255 71.8697 113.726C72.8309 114.076 73.8095 114.433 74.7658 114.73C73.0912 112.054 71.2521 109.468 69.2784 107.014C68.8942 106.535 68.9697 105.835 69.4488 105.45C69.927 105.065 70.6278 105.141 71.0121 105.62C73.6072 108.846 75.9758 112.297 78.054 115.876C78.2689 116.245 78.2524 116.706 78.0114 117.06C77.8023 117.367 77.4567 117.546 77.0928 117.546Z" fill="#8D8248"/>
<path d="M74.7181 92.4019C74.6891 92.4019 74.66 92.4009 74.631 92.3989C74.0183 92.3506 73.5604 91.8153 73.6079 91.2035C73.8499 88.0964 74.6291 85.0841 75.9232 82.2499C76.1788 81.6914 76.838 81.4455 77.3974 81.7001C77.956 81.9556 78.2028 82.6158 77.9472 83.1743C76.7615 85.7703 76.0481 88.53 75.8264 91.3758C75.7809 91.9585 75.2931 92.4019 74.7181 92.4019Z" fill="#8D8248"/>
<path d="M81.356 101.066C81.0375 101.066 80.721 100.929 80.5003 100.665C80.1073 100.193 80.1722 99.492 80.6445 99.099C82.8408 97.2705 85.2869 95.7741 87.9158 94.6522C88.4811 94.4112 89.1345 94.6725 89.3755 95.2378C89.6166 95.8031 89.3542 96.4565 88.7889 96.6975C86.3594 97.7352 84.0982 99.1184 82.0674 100.809C81.8593 100.982 81.6067 101.066 81.356 101.066Z" fill="#8D8248"/>
<path d="M87.1319 107.618C86.7002 107.618 86.2898 107.366 86.1088 106.944C85.8668 106.379 86.1282 105.726 86.6925 105.483C88.8346 104.563 91.0996 104.022 93.4256 103.874C94.0355 103.832 94.5669 104.299 94.6066 104.913C94.6453 105.526 94.1807 106.055 93.567 106.094C91.4955 106.226 89.4773 106.708 87.5704 107.527C87.4272 107.589 87.2781 107.618 87.1319 107.618Z" fill="#8D8248"/>
<path d="M1.1117 143.979C0.619012 143.979 0.168715 143.649 0.0371688 143.151C-0.119738 142.557 0.234535 141.949 0.828476 141.791C4.00542 140.952 7.28092 140.445 10.5642 140.287C11.1721 140.261 11.6997 140.73 11.7297 141.345C11.7587 141.958 11.2854 142.479 10.6717 142.509C7.5442 142.66 4.4232 143.142 1.39648 143.943C1.30152 143.967 1.20589 143.979 1.1117 143.979Z" fill="#8D8248"/>
<path d="M9.38018 156.19C9.10625 156.19 8.83136 156.09 8.6155 155.887C8.17024 155.464 8.15088 154.76 8.57291 154.314C10.2591 152.533 12.3296 151.053 14.5597 150.035C15.1183 149.781 15.7784 150.026 16.033 150.585C16.2885 151.143 16.0427 151.804 15.4832 152.058C13.5105 152.96 11.6801 154.268 10.1884 155.843C9.96968 156.074 9.67541 156.19 9.38018 156.19Z" fill="#8D8248"/>
<path d="M18.7493 167.341C18.7057 167.341 18.6602 167.338 18.6157 167.334C18.0059 167.261 17.5703 166.706 17.6438 166.097C17.8868 164.066 18.6331 162.106 19.8034 160.427C20.1538 159.923 20.8478 159.8 21.3511 160.15C21.8555 160.502 21.9793 161.195 21.628 161.699C20.6658 163.079 20.0521 164.691 19.8527 166.362C19.785 166.926 19.3049 167.341 18.7493 167.341Z" fill="#8D8248"/>
<path d="M259.916 28.4225C260.19 23.273 262.208 18.3373 264.948 13.9679C267.687 9.59855 271.141 5.72865 274.576 1.88197C275.174 1.21311 275.777 0.539391 276.494 0.000236511C278.469 5.69379 280.282 11.5345 280.528 17.5562C280.984 28.7081 275.046 42.6283 264.685 47.9473C262.782 45.779 262.087 41.5878 261.321 38.8591C260.37 35.4693 259.724 31.9565 259.916 28.4225Z" fill="#8D8248"/>
<path d="M256.81 58.4033C257.153 51.8938 254.079 45.2991 248.872 41.3769C247.695 40.4902 246.424 39.7371 245.156 38.986C242.334 37.3124 239.51 35.6388 236.687 33.9652C236.21 39.8639 237.234 45.8634 240.418 50.8513C243.602 55.8402 250.926 57.7732 256.81 58.4033Z" fill="#8D8248"/>
<path d="M288.523 62.8041C284.391 59.1946 279.415 56.4621 274.032 55.3992C268.649 54.3374 262.856 55.0208 258.09 57.7398C258.781 59.8915 260.138 62.024 262.094 63.1555C264.052 64.2861 266.278 64.8659 268.504 65.2579C274.743 66.3575 282.408 64.4574 288.523 62.8041Z" fill="#8D8248"/>
<path d="M245.457 71.186C245.13 71.186 244.805 71.0428 244.585 70.7659C244.203 70.2849 244.283 69.585 244.764 69.2027C253.483 62.275 260.521 53.1413 265.119 42.7909C268.904 34.268 271.927 24.0095 273.631 13.903C273.784 12.9893 273.937 12.0087 274.01 11.0282C274.055 10.4164 274.595 9.96147 275.201 10.0012C275.813 10.0466 276.273 10.58 276.229 11.1927C276.149 12.2643 275.987 13.3068 275.824 14.2738C274.09 24.5574 271.011 35.0056 267.152 43.694C262.41 54.3706 255.146 63.7937 246.148 70.945C245.944 71.1076 245.699 71.186 245.457 71.186Z" fill="#6B5C31"/>
<path d="M277.252 62.6562C277.153 62.6562 277.052 62.6427 276.952 62.6156C268.847 60.3515 262.329 59.2006 256.44 58.9916C256.109 58.9799 255.801 58.8212 255.599 58.5599C251.769 53.5961 247.553 48.9751 242.71 44.4324C242.262 44.0123 242.239 43.3077 242.66 42.8595C243.08 42.4123 243.784 42.3891 244.232 42.8092C249.028 47.3082 253.223 51.8858 257.041 56.7894C262.971 57.0518 269.508 58.2269 277.55 60.4725C278.142 60.6371 278.488 61.2508 278.322 61.8432C278.185 62.3339 277.739 62.6562 277.252 62.6562Z" fill="#6B5C31"/>
<path d="M242.779 50.1167C242.277 50.1167 241.821 49.7741 241.698 49.2649C241.555 48.6677 241.922 48.0666 242.519 47.9223C244.011 47.5632 245.527 47.2399 247.027 46.9621C247.632 46.8479 248.21 47.2486 248.323 47.8526C248.435 48.4567 248.036 49.0374 247.432 49.1497C245.972 49.4198 244.494 49.7344 243.041 50.0848C242.953 50.1061 242.865 50.1167 242.779 50.1167Z" fill="#6B5C31"/>
<path d="M246.335 54.2344C245.874 54.2344 245.442 53.945 245.283 53.4832C245.084 52.9025 245.394 52.2694 245.974 52.07C247.415 51.5754 248.903 51.1785 250.4 50.8891C251.002 50.7739 251.587 51.1669 251.703 51.7699C251.819 52.374 251.425 52.9567 250.822 53.0738C249.427 53.3429 248.04 53.7127 246.696 54.1744C246.577 54.215 246.455 54.2344 246.335 54.2344Z" fill="#6B5C31"/>
<path d="M268.726 63.8828C268.357 63.8828 267.997 63.6999 267.785 63.3649L265.637 59.9742C265.308 59.4553 265.462 58.7681 265.981 58.439C266.499 58.1099 267.187 58.2638 267.516 58.7836L269.664 62.1743C269.993 62.6941 269.839 63.3804 269.32 63.7095C269.135 63.8267 268.929 63.8828 268.726 63.8828Z" fill="#6B5C31"/>
<path d="M268.713 35.7891C268.518 35.7891 268.319 35.7368 268.139 35.6293C266.805 34.824 265.692 33.7776 264.615 32.7652C263.781 31.9811 262.993 31.2406 262.123 30.6172C261.623 30.26 261.508 29.565 261.865 29.0656C262.223 28.5661 262.918 28.4519 263.417 28.8081C264.409 29.5176 265.288 30.3452 266.138 31.1448C267.176 32.1205 268.157 33.041 269.288 33.7234C269.815 34.0409 269.983 34.7243 269.667 35.2509C269.457 35.5974 269.09 35.7891 268.713 35.7891Z" fill="#6B5C31"/>
<path d="M270.922 28.8833C270.767 28.8833 270.608 28.8494 270.457 28.7797C269.474 28.3257 268.606 27.4294 267.839 26.6396C267.556 26.3463 267.288 26.0694 267.043 25.8468C266.661 25.4954 266.287 25.1324 265.914 24.7695C265.263 24.1345 264.647 23.5343 263.976 23.002C263.494 22.6206 263.414 21.9208 263.795 21.4397C264.178 20.9586 264.878 20.8773 265.359 21.2596C266.118 21.8617 266.804 22.5296 267.467 23.1762C267.823 23.5227 268.178 23.8702 268.545 24.2051C268.838 24.4733 269.129 24.7733 269.437 25.0908C270.069 25.7423 270.784 26.4799 271.391 26.7606C271.948 27.019 272.191 27.6801 271.933 28.2377C271.745 28.6442 271.344 28.8833 270.922 28.8833Z" fill="#6B5C31"/>
<path d="M273.386 22.1543C273.103 22.1543 272.82 22.0468 272.603 21.832L267.277 16.5508C266.84 16.1191 266.837 15.4144 267.27 14.9788C267.702 14.5423 268.406 14.5393 268.842 14.9711L274.169 20.2523C274.606 20.6849 274.609 21.3886 274.176 21.8252C273.958 22.044 273.673 22.1543 273.386 22.1543Z" fill="#6B5C31"/>
</svg>
