<svg width="490" height="604" viewBox="0 0 490 604" fill="none" xmlns="http://www.w3.org/2000/svg">
<path d="M263.468 272.69C240.681 285.819 217.174 297.703 193.09 308.269C188.795 310.154 184.088 312.036 179.535 310.896C176.545 310.147 174.031 308.176 171.617 306.256C155.773 293.652 141.233 277.258 129.714 260.531C113.375 236.805 89.9546 216.414 71.0327 194.469C70.1346 193.428 69.0236 192.292 67.6513 192.39C66.6429 192.464 65.8223 193.196 65.0635 193.865C53.4813 204.093 44.2023 205.314 31.9851 195.998C26.5037 191.819 20.4784 186.57 20.6448 179.68C20.6951 177.529 21.3784 175.408 21.2061 173.263C21.0126 170.877 19.7661 168.537 20.2674 166.195C21.4345 160.752 29.9412 160.911 33.0729 156.308C33.5258 155.644 33.8703 154.87 34.5226 154.398C35.082 153.989 35.7943 153.863 36.4775 153.749C42.3074 152.768 48.1392 151.785 53.971 150.803C59.8511 149.814 65.8513 148.821 71.7431 149.729C77.6368 150.637 80.8788 152.87 84.8931 157.278C115.779 191.188 149.399 222.61 185.321 251.132C199.675 243.227 215.414 235.905 229.768 227.998C246.923 238.199 255.254 254.502 263.468 272.69Z" fill="#EFB28C"/>
<path d="M361.663 243.805C369.282 233.871 372.624 225.243 369.99 213.031C363.558 183.226 324.338 183.909 301.23 190.67C286.313 195.037 272.197 199.819 258.273 207.105C250.95 210.935 243.713 214.003 236.569 218.248C229.429 221.819 222.494 226.249 215.795 230.589C209.121 234.911 201.813 238.075 194.587 241.503C193.705 241.921 192.787 242.366 192.184 243.135C189.905 246.03 193.614 254.783 194.549 257.888C196.215 263.417 198.199 268.847 199.744 274.415C203.443 287.755 209.259 302.002 216.953 313.528C217.506 314.357 218.153 315.224 219.105 315.516C219.81 315.731 220.566 315.594 221.288 315.447C230.11 313.647 237.481 309.435 245.858 306.665C254.078 303.948 262.465 301.174 270.772 298.511C280.52 295.387 290.207 292.077 299.829 288.587C308.235 285.537 314.434 281.503 322.066 277.119C337.09 268.49 351.066 257.618 361.663 243.805Z" fill="#B53F3A"/>
<path d="M354.8 188.364C364.732 198.541 375.546 208.664 380.477 222.004C383.555 230.329 384.106 239.354 386.28 247.961C388.62 257.225 392.87 266.001 398.687 273.58C401.089 276.712 403.884 279.733 407.534 281.237C437.82 293.708 451.922 237.45 457.082 219.246C466.777 185.043 471.562 149.45 471.233 113.9C471.032 92.1389 472.245 67.1414 461.813 47.5905C452.023 29.2474 435.522 14.4501 416.176 6.81055C404.06 2.02591 392.278 0.961365 379.525 0.767822C368.674 0.603271 358.741 -1.03027 347.825 1.03687C324.209 5.50992 299.051 20.1561 289.644 43.3574C285.496 53.5906 285.274 64.929 285.111 75.9732C284.96 86.0477 285.013 97.7906 291.421 106.193C296.299 112.59 302.976 117.318 307.968 123.607C312.869 129.783 315.441 138.019 319.715 144.824C329.65 160.651 341.77 175.009 354.8 188.364Z" fill="#8E5242"/>
<path d="M417.055 565.922C426.462 563.887 437.204 560.628 444.528 554.15C450.476 548.889 445.817 539.807 445.894 532.703C445.974 525.183 445.209 518.125 444.383 510.608C442.819 496.421 442.589 482.086 443.713 467.856C445.993 439.013 453.788 410.928 463.698 383.846C472.841 358.86 486.742 336.015 489.477 309.12C490.323 300.817 490 292.695 489.512 284.394C489.094 277.304 489.073 271.306 485.614 264.678C483.787 261.181 481.352 258.041 478.903 254.947C468.054 241.237 456.372 227.743 441.439 218.655C439.074 217.215 429.208 233.762 428.331 235.769C425.42 242.433 419.703 247.772 414.053 252.26C402.101 261.752 387.573 267.667 372.872 271.368C367.931 272.61 362.825 273.642 357.767 273.028C354.001 272.572 350.391 271.211 346.994 269.517C337.191 264.63 328.808 256.735 323.888 246.949C318.968 237.161 317.655 225.493 320.864 215.02C313.525 216.091 304.42 212.467 297.802 215.824C294.58 217.459 292.207 220.353 289.963 223.188C282.68 232.394 275.639 241.951 270.972 252.725C269.573 255.957 268.394 259.28 267.215 262.602C253.444 301.452 247.159 342.985 250.298 384.154C253.568 427.016 263.309 469.722 268.067 512.604C269.365 524.308 270.455 535.813 271.526 547.47C271.738 549.801 272.081 552.226 273.418 554.15C275.453 557.075 283.673 557.984 287.217 559.273C292.677 561.261 298.226 562.664 303.948 563.675C313.565 565.369 323.297 565.812 332.998 566.764C359.097 569.323 390.565 571.655 417.055 565.922Z" fill="#B53F3A"/>
<path d="M424.066 122.368C425.115 116.771 425.523 111.073 425.649 105.38C425.86 95.7315 425.239 85.928 422.101 76.8019C418.49 66.2939 410.682 59.2311 403.909 51.0031C396.349 41.819 387.2 34.2355 376.121 29.6638C358.362 22.332 336.895 23.6036 321.012 34.4097C304.372 45.7326 292.72 66.77 291.9 86.828C291.679 92.2263 293.653 96.2154 294.509 101.072C295.56 107.027 293.802 111.406 291.762 117.063C288.044 127.376 291.383 137.86 295.163 147.664C299.288 158.358 303.327 178.89 311.416 187.031C318.931 194.593 335.101 192.296 344.444 190.668C378.412 184.755 417.336 158.292 424.066 122.368Z" fill="#EFB28C"/>
<path d="M398.843 252.005C390.631 260.157 381.733 267.985 371.043 272.415C360.353 276.844 347.499 277.416 337.612 271.405C330.317 266.966 325.295 259.338 322.937 251.132C318.516 235.754 324.145 225.101 328.122 210.78C330.881 200.85 329.35 190.3 327.799 180.113C353.584 164.689 378.917 146.473 405.592 132.65C418.673 173.702 407.884 209.878 398.843 252.005Z" fill="#EFB28C"/>
<path d="M363.043 336.267C359.747 325.61 357.128 314.887 354.577 303.932C351.86 292.251 351.941 280.094 352.742 268.194C354.078 248.355 357.438 228.512 364.129 209.739C367.255 200.967 370.991 192.642 376.162 184.999C381.233 177.504 387.023 169.294 390.28 160.814C392.148 155.948 393.356 150.248 397.722 147.401C399.298 146.373 401.137 145.841 402.861 145.09C412.076 141.072 420.506 126.298 414.488 116.752C412.132 113.014 407.781 110.9 403.413 110.231C393.191 108.661 386.274 112.033 376.731 105.949C369.932 101.614 364.613 95.3116 359.962 88.7211C349.417 73.7826 341.737 56.8273 337.463 39.0474C323.601 48.3496 308.676 57.4776 294.813 66.7798C294.866 60.3654 297.018 54.1659 299.377 48.2025C302.503 40.3036 306.115 32.4511 311.651 26.0057C321.752 14.2396 337.513 8.33231 353.009 7.71295C368.505 7.09357 383.831 11.2763 398.26 16.961C411.149 22.0398 423.554 28.3438 435.254 35.7608C441.299 39.5913 444.669 47.5076 447.328 54.1504C449.988 60.7951 450.986 67.9818 451.546 75.1162C453.516 100.298 446.422 126.764 455.481 151.086C458.938 160.363 463.349 168.868 463.782 178.9C464.256 189.849 461.82 200.708 459.423 211.318C457.492 219.869 455.547 228.459 452.332 236.616C449.595 243.557 445.966 250.105 442.35 256.631C438.744 263.133 435.58 270.354 431.358 276.467C428.697 280.32 424.061 287.443 419.849 289.549C410.16 298.439 400.827 306.293 392.016 315.963C383.448 325.37 377.246 336.608 370.565 347.352C369.878 348.457 368.484 349.696 367.495 348.848C367.203 348.596 367.058 348.217 366.926 347.853C365.525 343.994 364.239 340.134 363.043 336.267Z" fill="#8E5242"/>
<path d="M346.199 115.915C349.737 120.5 357.992 116.432 356.031 110.908C355.325 108.924 353.029 107.943 350.925 107.863C346.464 107.695 343.249 112.094 346.199 115.915Z" fill="#6C352A"/>
<path d="M302.053 96.5912C296.595 102.831 308.715 110.432 309.19 100.3C309.286 98.219 308.216 95.9273 306.228 95.306C304.759 94.8453 303.067 95.4318 302.053 96.5912Z" fill="#6C352A"/>
<path d="M234.996 514.081C235.172 525.859 241.525 561.484 226.687 565.123C221.902 566.296 217.017 567.067 212.102 567.423C212.809 576.214 219.937 596.593 208.084 598.55C149.9 608.156 87.4478 605.969 35.6934 577.701C32.5404 575.978 29.37 574.108 27.0628 571.353C22.0149 565.328 22.2027 556.638 22.6517 548.789C23.3853 536.005 24.1169 523.221 24.8485 510.435C25.4757 499.499 19.3535 497.379 10.8856 492.453C8.6713 491.166 6.37574 489.802 4.98216 487.651C3.76277 485.768 3.36986 483.484 3.0292 481.268C-0.878654 455.879 -1.42835 429.763 3.9002 404.636C6.47834 392.487 10.4094 380.637 12.5617 368.407C14.4489 357.672 14.9502 346.75 15.4476 335.862C16.5373 311.97 17.629 288.078 18.7187 264.185C19.5394 246.231 12.6275 228.628 16.5973 210.902C20.3291 194.233 33.5372 180.032 49.8925 175.104C56.4559 180.607 63.3135 186.028 69.875 191.531C71.1641 192.613 72.4803 193.726 73.3106 195.187C74.2126 196.774 74.4642 198.635 74.7971 200.431C77.0869 212.743 84.3954 223.897 94.3383 231.421C107.051 241.036 119.487 241.584 134.822 243.367C143.582 244.385 150.403 246.694 158.37 250.308C162.125 252.011 165.891 253.718 169.41 255.868C184.579 265.14 189.333 279.859 195.343 295.462C202.086 312.975 206.141 331.382 209.133 349.868C215.112 386.804 216.808 424.545 226.838 460.749C228.671 467.367 230.784 473.917 232.184 480.641C234.469 491.608 234.829 502.878 234.996 514.081Z" fill="#B27C72"/>
<path d="M43.718 165.975C46.7897 171.27 49.7104 176.655 52.4744 182.117C53.506 184.155 54.4235 186.89 52.7918 188.493C52.0834 189.188 51.0537 189.447 50.0627 189.54C48.4252 189.693 46.3658 188.955 45.2684 187.73C45.8839 189.389 46.1742 191.239 45.6516 192.931C45.1271 194.621 43.6483 196.088 41.8831 196.208C39.8082 196.351 37.8572 195.223 36.4055 193.732C36.9398 195.73 34.4313 197.452 32.4086 197.017C30.386 196.583 28.9285 194.87 27.6317 193.26C25.4581 190.564 23.2864 187.868 21.1148 185.171C19.6825 183.397 19.3747 182.235 20.1489 180.091C21.0799 177.514 24.1419 176.429 25.7871 174.24C27.562 171.876 27.6859 168.245 30.2118 166.712C30.7441 166.389 31.3422 166.194 31.9364 166.014C35.2752 164.997 41.9663 162.957 43.718 165.975Z" fill="#EFB28C"/>
<path d="M403.138 408.995C390.896 424.702 377.266 439.327 362.461 452.645C354.384 459.913 345.867 466.85 336.167 471.745C333.954 472.86 331.624 473.884 329.15 474.035C317.552 474.745 307.824 459.309 300.653 452.268C292.551 444.313 284.449 436.358 276.349 428.403C267.376 419.59 258.383 410.76 250.368 401.071C245.889 395.657 241.728 389.99 237.286 384.549C232.665 378.888 227.747 373.478 222.831 368.072C219.713 364.642 216.587 361.204 213.126 358.117C202.761 348.873 189.946 343.154 177.909 336.49C172.039 333.24 166.251 329.767 161.039 325.519C156.992 322.221 149.78 317.399 150.66 311.477C150.84 310.271 151.313 309.125 151.501 307.919C151.996 304.751 150.509 301.658 149.391 298.652C148.27 295.646 147.56 292.048 149.381 289.408C150.798 287.356 153.469 286.351 154.626 284.145C156.045 281.441 154.653 278.195 153.455 275.387C152.257 272.578 151.382 268.972 153.486 266.758C156.051 264.058 160.536 265.777 163.762 267.637C167.016 269.512 171.295 269.905 174.549 271.781C173.078 269.63 171.814 267.337 170.778 264.944C169.946 263.022 169.257 260.851 169.919 258.861C170.579 256.873 173.175 255.468 174.866 256.707C185.897 264.789 196.31 274.701 208.078 281.669C211.688 283.806 215.47 285.86 218.191 289.051C222.574 294.192 223.005 301.032 225.411 307.081C228.13 313.919 235.426 319.532 240.471 324.776C247.478 332.053 256.265 338.218 263.982 344.917C273.138 352.862 282.457 360.614 291.937 368.167C303.404 377.302 315.94 384.706 327.49 393.727C337.128 386.287 347.426 377.937 356.495 369.812C371.66 383.752 387.971 395.055 403.138 408.995Z" fill="#EFB28C"/>
<path d="M443.822 385.668C427.952 402.683 412.383 418.86 394.663 433.938C375.42 425.917 362.556 407.795 351.492 390.127C347.097 383.109 344.168 375.765 344.335 367.487C359.465 353.65 374.597 339.811 389.729 325.974C400.938 335.1 410.376 345.631 419.714 356.663C422.622 360.099 425.531 363.535 428.438 366.97C432.421 371.677 436.407 376.385 440.39 381.092L443.822 385.668Z" fill="#B53F3A"/>
<path d="M359.04 299.652C358.346 299.652 357.672 299.285 357.312 298.632C342.122 271.202 342.708 242.124 359.009 214.547C362.217 209.121 365.813 204.124 369.843 198.619C377.72 187.859 385.838 177.036 393.969 166.45C394.633 165.585 395.874 165.423 396.739 166.087C397.604 166.752 397.767 167.991 397.101 168.856C388.987 179.419 380.889 190.217 373.031 200.951C369.063 206.371 365.526 211.285 362.41 216.556C346.86 242.862 346.293 270.582 360.767 296.72C361.295 297.674 360.949 298.876 359.997 299.405C359.693 299.571 359.366 299.652 359.04 299.652Z" fill="#8E5242"/>
<path d="M431.215 267.532C430.73 267.532 430.246 267.354 429.864 266.996C429.069 266.251 429.03 265.001 429.775 264.205C440.901 252.358 452.406 240.106 459.081 225.076C467.404 206.348 467.447 184.515 467.486 165.253C467.501 157.33 467.846 149.04 468.178 141.021C469.017 120.892 469.882 100.075 465.91 81.101C465.687 80.0345 466.371 78.9874 467.437 78.7648C468.504 78.5422 469.553 79.2255 469.775 80.292C473.85 99.748 472.973 120.814 472.125 141.186C471.794 149.164 471.45 157.417 471.434 165.26C471.395 184.914 471.351 207.19 462.691 226.681C455.745 242.32 444.007 254.82 432.656 266.909C432.266 267.323 431.742 267.532 431.215 267.532Z" fill="#8E5242"/>
<path d="M381.497 107.668C381.449 107.668 381.404 107.666 381.356 107.666C373.587 107.627 365.483 103.948 359.12 97.5722C354.105 92.5495 350.068 86.0306 346.408 77.0574C341.221 64.3332 338.342 50.9199 337.855 37.1872C337.818 36.0975 338.669 35.1839 339.759 35.1452C340.828 35.1026 341.764 35.9581 341.803 37.0478C342.273 50.314 345.053 63.2744 350.064 75.5651C353.519 84.0369 357.286 90.1436 361.915 94.7831C367.548 100.425 374.642 103.683 381.377 103.718C381.416 103.718 381.455 103.718 381.493 103.718C389.232 103.718 396.583 99.7284 404.06 95.2824C404.997 94.725 406.208 95.0328 406.766 95.9715C407.323 96.9083 407.015 98.12 406.079 98.6774C398.11 103.416 390.232 107.668 381.497 107.668Z" fill="#8E5242"/>
<path d="M319.318 87.3481C318.908 87.3481 318.494 87.2204 318.139 86.9552C312.641 82.8577 305.855 80.6086 298.997 80.6086C298.892 80.6086 298.77 80.6086 298.685 80.6105C297.603 80.6105 296.721 79.7396 296.711 78.6537C296.701 77.564 297.576 76.6717 298.668 76.662C306.501 76.5982 314.235 79.1201 320.499 83.7887C321.374 84.4409 321.554 85.6778 320.901 86.5526C320.514 87.0733 319.92 87.3481 319.318 87.3481Z" fill="#6C352A"/>
<path d="M368.977 97.6387C368.577 97.6387 368.172 97.5167 367.822 97.2632C360.583 92.0198 350.835 90.5759 342.385 93.4947C341.353 93.8508 340.231 93.305 339.873 92.2734C339.518 91.2437 340.064 90.1191 341.096 89.763C350.743 86.43 361.872 88.0771 370.139 94.0637C371.021 94.7044 371.219 95.9373 370.58 96.8219C370.193 97.3542 369.591 97.6387 368.977 97.6387Z" fill="#6C352A"/>
<path d="M336.44 193.997C335.321 193.997 334.206 193.972 333.093 193.923C332.004 193.877 331.16 192.954 331.208 191.864C331.254 190.803 332.127 189.977 333.178 189.977C333.207 189.977 333.236 189.977 333.265 189.979C343.024 190.407 353.016 188.852 362.175 185.485C363.197 185.107 364.333 185.632 364.708 186.656C365.086 187.679 364.561 188.816 363.537 189.191C354.936 192.352 345.634 193.997 336.44 193.997Z" fill="#CA7149"/>
<path d="M327.277 160.94C321.064 160.94 314.84 159.69 309.141 157.241C308.139 156.809 307.676 155.648 308.106 154.647C308.535 153.645 309.699 153.182 310.699 153.612C318.467 156.949 327.302 157.853 335.583 156.157C336.655 155.935 337.694 156.628 337.913 157.696C338.132 158.764 337.445 159.808 336.376 160.026C333.388 160.638 330.334 160.94 327.277 160.94Z" fill="#CA7149"/>
<path d="M399.356 134.11C398.971 134.11 398.58 133.998 398.239 133.761C397.341 133.144 397.112 131.915 397.73 131.015L404.036 121.844C404.653 120.944 405.882 120.716 406.782 121.335C407.681 121.953 407.909 123.182 407.292 124.08L400.986 133.254C400.602 133.81 399.985 134.11 399.356 134.11Z" fill="#CA7149"/>
<path d="M320.127 134.715C318.014 134.715 315.819 134.502 313.713 133.649C310.376 132.296 307.277 128.808 307.808 124.755C308.094 122.572 309.348 120.826 310.357 119.425L318.92 107.525C319.556 106.638 320.791 106.437 321.676 107.074C322.56 107.711 322.762 108.946 322.125 109.83L313.564 121.732C312.774 122.827 311.882 124.07 311.725 125.268C311.456 127.312 313.312 129.226 315.196 129.989C317.586 130.957 320.534 130.8 323.131 130.657C324.215 130.6 325.152 131.433 325.21 132.522C325.268 133.612 324.434 134.543 323.344 134.601C322.311 134.657 321.231 134.715 320.127 134.715Z" fill="#CA7149"/>
<path d="M338.772 237.61C338.068 237.61 337.386 237.233 337.03 236.571C333.241 229.526 330.689 221.946 329.451 214.043C329.282 212.965 330.02 211.955 331.096 211.786C332.168 211.622 333.184 212.353 333.353 213.432C334.524 220.893 336.93 228.049 340.508 234.699C341.025 235.659 340.665 236.857 339.705 237.374C339.407 237.535 339.088 237.61 338.772 237.61Z" fill="#CA7149"/>
<path d="M188.585 263.09C187.896 263.09 187.227 262.728 186.863 262.086L183.601 256.31C183.065 255.36 183.4 254.156 184.348 253.62C185.301 253.084 186.503 253.416 187.041 254.367L190.302 260.144C190.838 261.095 190.503 262.299 189.555 262.835C189.247 263.009 188.914 263.09 188.585 263.09Z" fill="#CA7149"/>
<path d="M84.818 172.453C84.5896 172.453 84.3554 172.412 84.1289 172.327C72.1324 167.856 60.1263 162.924 48.4434 157.671C47.4485 157.224 47.0033 156.055 47.4524 155.06C47.8995 154.065 49.0685 153.622 50.0634 154.069C61.667 159.287 73.5918 164.184 85.507 168.626C86.529 169.007 87.0496 170.145 86.6683 171.167C86.3722 171.961 85.6193 172.453 84.818 172.453Z" fill="#CA7149"/>
<path d="M97.7032 210.259C95.1096 210.259 92.5179 209.701 90.1526 208.594C89.1655 208.134 88.7397 206.959 89.2003 205.97C89.6629 204.982 90.8398 204.555 91.8249 205.017C95.0883 206.543 98.9071 206.728 102.302 205.528C103.33 205.166 104.46 205.704 104.824 206.732C105.186 207.762 104.648 208.888 103.62 209.252C101.716 209.926 99.7084 210.259 97.7032 210.259Z" fill="#CA7149"/>
<path d="M74.8048 166.508C74.3906 166.508 73.9726 166.378 73.6164 166.107C71.4002 164.431 69.5208 162.259 68.1795 159.826C67.653 158.872 67.9995 157.67 68.9556 157.144C69.9099 156.617 71.1118 156.964 71.6364 157.92C72.7145 159.871 74.2223 161.615 75.9991 162.958C76.8681 163.616 77.0404 164.855 76.3823 165.724C75.9933 166.239 75.4029 166.508 74.8048 166.508Z" fill="#CA7149"/>
<path d="M42.4947 184.728C42.0379 184.728 41.5773 184.569 41.2037 184.246C35.8035 179.583 30.9202 174.303 26.691 168.556C26.0446 167.677 26.2323 166.443 27.113 165.796C27.9898 165.15 29.2266 165.337 29.8731 166.216C33.928 171.727 38.6082 176.786 43.7857 181.257C44.6122 181.969 44.7032 183.218 43.9909 184.042C43.5999 184.495 43.0483 184.728 42.4947 184.728Z" fill="#CA7149"/>
<path d="M38.968 194.569C38.6022 194.569 38.2325 194.467 37.9015 194.254C32.7065 190.911 28.3574 186.301 25.3224 180.918C24.7863 179.968 25.1231 178.764 26.0734 178.228C27.0238 177.693 28.2277 178.028 28.7638 178.979C31.4832 183.804 35.3814 187.936 40.0383 190.932C40.9558 191.523 41.221 192.746 40.6306 193.662C40.2532 194.248 39.6183 194.569 38.968 194.569Z" fill="#CA7149"/>
<path d="M47.2777 175.129C46.997 175.129 46.7125 175.069 46.4415 174.944C41.4711 172.619 37.3193 168.669 34.7547 163.818C34.2438 162.854 34.6115 161.66 35.5754 161.149C36.5451 160.642 37.7355 161.01 38.2445 161.972C40.4123 166.067 43.9176 169.402 48.1158 171.365C49.1029 171.825 49.5287 173.002 49.0681 173.989C48.7332 174.707 48.0209 175.129 47.2777 175.129Z" fill="#CA7149"/>
<path d="M194.453 289.739C194.044 289.739 193.632 289.613 193.278 289.35L177.906 277.93C177.031 277.28 176.849 276.043 177.499 275.168C178.15 274.291 179.384 274.109 180.261 274.76L195.633 286.179C196.508 286.83 196.692 288.066 196.042 288.941C195.653 289.464 195.058 289.739 194.453 289.739Z" fill="#CA7149"/>
<path d="M193.029 271.465C192.644 271.465 192.255 271.353 191.914 271.118C185.803 266.928 179.468 262.892 173.085 259.126C172.146 258.57 171.833 257.361 172.388 256.42C172.942 255.481 174.153 255.17 175.092 255.723C181.553 259.536 187.963 263.62 194.146 267.861C195.046 268.478 195.274 269.707 194.658 270.607C194.275 271.165 193.658 271.465 193.029 271.465Z" fill="#CA7149"/>
<path d="M336.61 403.794C336.025 403.794 335.446 403.535 335.057 403.042C333.828 401.478 331.999 400.38 330.041 400.032C328.968 399.838 328.252 398.812 328.446 397.74C328.637 396.664 329.675 395.954 330.735 396.143C333.635 396.662 336.341 398.286 338.16 400.599C338.834 401.456 338.687 402.697 337.829 403.372C337.467 403.657 337.038 403.794 336.61 403.794Z" fill="#CA7149"/>
<path d="M257.353 298.162C257.245 298.162 257.133 298.154 257.023 298.135C255.946 297.953 255.222 296.935 255.402 295.858C257.648 282.532 261.732 269.589 267.546 257.389C268.014 256.406 269.191 255.986 270.178 256.457C271.162 256.925 271.58 258.104 271.111 259.089C265.456 270.958 261.482 283.548 259.299 296.514C259.136 297.48 258.3 298.162 257.353 298.162Z" fill="#7E2E31"/>
<path d="M210.685 279.122C209.824 279.122 209.031 278.553 208.787 277.682L199.659 245.293C199.362 244.244 199.974 243.152 201.025 242.858C202.074 242.564 203.166 243.173 203.46 244.222L212.588 276.612C212.884 277.661 212.273 278.752 211.222 279.048C211.044 279.099 210.863 279.122 210.685 279.122Z" fill="#7E2E31"/>
<path d="M345.219 378.325C344.634 378.325 344.054 378.065 343.665 377.572C343.341 377.158 342.916 376.734 342.467 376.285C341.117 374.941 338.611 372.441 340.775 369.592C346.533 362.022 353.282 355.257 360.841 349.489C361.708 348.827 362.946 348.995 363.608 349.861C364.27 350.728 364.104 351.967 363.237 352.628C355.963 358.18 349.465 364.691 343.924 371.976C344.108 372.344 344.816 373.052 345.254 373.49C345.767 374.001 346.297 374.529 346.769 375.129C347.443 375.987 347.296 377.227 346.438 377.903C346.076 378.187 345.645 378.325 345.219 378.325Z" fill="#7E2E31"/>
<path d="M400.593 436.555C397.846 436.555 395.038 435.332 393.811 432.665C393.356 431.674 393.789 430.501 394.778 430.044C395.769 429.593 396.942 430.023 397.399 431.014C398.119 432.578 400.544 432.961 402.271 432.322C404.381 431.542 406.08 429.7 407.925 427.547C423.026 409.945 437.24 391.08 450.988 372.837L454.143 375.214C440.358 393.507 426.105 412.423 410.923 430.12C409.217 432.107 406.881 434.829 403.639 436.027C402.695 436.375 401.648 436.555 400.593 436.555Z" fill="#7E2E31"/>
<path d="M400.111 424.777C399.658 424.777 399.203 424.622 398.831 424.307C395.727 421.666 392.216 419.232 388.819 416.88C383.336 413.078 377.664 409.149 373.267 404.094C365.889 395.608 358.872 385.747 351.819 373.948C351.258 373.011 351.564 371.799 352.5 371.238C353.437 370.68 354.649 370.986 355.208 371.921C362.141 383.519 369.022 393.195 376.248 401.5C380.32 406.184 385.542 409.802 391.07 413.632C394.544 416.042 398.137 418.531 401.39 421.299C402.221 422.005 402.321 423.252 401.615 424.082C401.226 424.541 400.668 424.777 400.111 424.777Z" fill="#7E2E31"/>
<path d="M445.074 270.615C444.431 270.615 443.804 270.303 443.425 269.728C442.823 268.819 443.073 267.593 443.982 266.991C450.592 262.627 459.091 261.295 466.719 263.434C467.768 263.728 468.382 264.818 468.087 265.867C467.793 266.918 466.707 267.533 465.653 267.235C459.114 265.402 451.827 266.544 446.16 270.288C445.825 270.508 445.447 270.615 445.074 270.615Z" fill="#7E2E31"/>
<path d="M374.481 559.152C341.58 559.152 308.965 553.884 283.423 548.224C282.357 547.988 281.685 546.933 281.921 545.868C282.157 544.804 283.208 544.124 284.277 544.368C324.836 553.353 383.38 561.36 431.959 548.474C433.017 548.189 434.095 548.824 434.374 549.877C434.653 550.93 434.026 552.012 432.971 552.291C414.376 557.224 394.376 559.152 374.481 559.152Z" fill="#7E2E31"/>
<path d="M345.356 283.932C345.327 283.932 345.298 283.932 345.269 283.93C331.196 283.32 318.123 272.16 313.474 256.788C309.736 244.435 310.929 230.132 317.016 214.274C317.407 213.256 318.549 212.749 319.567 213.138C320.585 213.529 321.092 214.671 320.701 215.689C314.937 230.709 313.778 244.151 317.254 255.646C321.359 269.218 333.212 279.455 345.439 279.986C346.527 280.032 347.373 280.953 347.326 282.043C347.28 283.104 346.407 283.932 345.356 283.932Z" fill="#7E2E31"/>
<path d="M179.811 570.701C174.175 570.701 168.558 570.065 163.036 568.269C162.43 568.073 161.958 567.597 161.764 566.991C145.748 516.622 129.187 464.541 130.517 410.385C130.618 406.264 130.827 402.087 131.03 398.048C131.44 389.839 131.866 381.348 131.388 373.062C130.771 362.393 128.638 351.653 126.572 341.265C124.62 331.438 122.599 321.274 121.828 311.072C119.906 285.6 127.84 263.826 143.052 252.824C143.936 252.185 145.171 252.385 145.81 253.267C146.449 254.152 146.249 255.385 145.367 256.025C131.276 266.214 123.948 286.682 125.767 310.774C126.518 320.74 128.514 330.784 130.445 340.494C132.536 351.016 134.7 361.894 135.329 372.833C135.82 381.334 135.391 389.93 134.973 398.245C134.773 402.261 134.564 406.411 134.464 410.481C133.159 463.627 149.398 515.063 165.217 564.814C176.428 568.166 187.968 566.552 200.166 564.846L201.42 564.672C202.504 564.526 203.497 565.274 203.648 566.356C203.797 567.434 203.044 568.433 201.964 568.584L200.713 568.758C193.825 569.72 186.805 570.701 179.811 570.701Z" fill="#8E5242"/>
<path d="M25.9559 492.426C24.8778 492.426 23.9971 491.561 23.9817 490.481C23.672 468.563 23.7204 449.45 24.1326 432.049C24.4249 419.567 26.8463 406.81 29.1863 394.471C30.9651 385.095 32.8039 375.4 33.6632 366.008C36.0459 339.966 33.0826 313.302 30.216 287.518C27.1308 259.759 23.941 231.053 27.3534 202.864C27.485 201.78 28.476 201.009 29.5521 201.139C30.6341 201.271 31.4064 202.254 31.2748 203.338C27.9166 231.072 31.0812 259.546 34.1413 287.081C37.0291 313.062 40.0157 339.925 37.5962 366.366C36.7194 375.949 34.8633 385.739 33.0671 395.206C30.7561 407.388 28.3676 419.985 28.0792 432.14C27.6708 449.494 27.6224 468.557 27.9302 490.425C27.9456 491.515 27.0746 492.411 25.9849 492.426C25.9733 492.426 25.9656 492.426 25.9559 492.426Z" fill="#8E5242"/>
<path d="M169.18 424.059C168.994 424.059 168.804 424.032 168.617 423.978C161.002 421.711 153.115 420.484 145.173 420.327C144.084 420.306 143.216 419.404 143.238 418.312C143.259 417.236 144.14 416.377 145.212 416.377C145.226 416.377 145.237 416.377 145.251 416.377C153.548 416.543 161.788 417.825 169.743 420.192C170.788 420.502 171.382 421.601 171.073 422.648C170.817 423.506 170.031 424.059 169.18 424.059Z" fill="#8E5242"/>
<path d="M165.692 437.298C165.533 437.298 165.371 437.278 165.21 437.238C159.943 435.92 154.543 434.898 149.162 434.203C148.081 434.062 147.316 433.073 147.457 431.991C147.597 430.909 148.584 430.146 149.668 430.285C155.201 431.002 160.754 432.051 166.17 433.407C167.227 433.673 167.869 434.743 167.606 435.802C167.38 436.7 166.577 437.298 165.692 437.298Z" fill="#8E5242"/>
<path d="M143.11 448.85C142.052 448.85 141.175 448.012 141.138 446.945C141.099 445.855 141.951 444.94 143.041 444.901C150.5 444.636 157.993 443.771 165.309 442.331C166.379 442.118 167.419 442.818 167.628 443.887C167.839 444.957 167.142 445.995 166.072 446.206C158.552 447.686 150.849 448.575 143.18 448.848C143.157 448.85 143.134 448.85 143.11 448.85Z" fill="#8E5242"/>
<path d="M145.965 465.172C145.049 465.172 144.229 464.533 144.033 463.602C143.811 462.534 144.496 461.489 145.562 461.264L165.152 457.163C166.216 456.944 167.265 457.623 167.49 458.692C167.713 459.758 167.027 460.803 165.961 461.028L146.371 465.129C146.236 465.158 146.1 465.172 145.965 465.172Z" fill="#8E5242"/>
<path d="M154.328 471.87C153.486 471.87 152.706 471.328 152.443 470.48C152.12 469.439 152.702 468.332 153.743 468.009C158.259 466.609 162.943 465.783 167.666 465.556C168.742 465.496 169.681 466.342 169.733 467.432C169.787 468.522 168.947 469.449 167.857 469.499C163.466 469.712 159.111 470.478 154.914 471.781C154.719 471.841 154.522 471.87 154.328 471.87Z" fill="#8E5242"/>
<path d="M173.384 455.046C173.353 455.046 173.322 455.044 173.291 455.044L153.556 454.125C152.466 454.074 151.626 453.151 151.675 452.061C151.727 450.972 152.656 450.147 153.74 450.18L173.475 451.097C174.565 451.148 175.405 452.073 175.356 453.163C175.306 454.221 174.433 455.046 173.384 455.046Z" fill="#8E5242"/>
<path d="M171.296 488.651C171.23 488.651 171.164 488.649 171.099 488.641C165.313 488.07 159.501 487.147 153.824 485.897C152.759 485.66 152.086 484.608 152.32 483.541C152.556 482.478 153.609 481.805 154.675 482.039C160.2 483.257 165.857 484.157 171.486 484.712C172.571 484.819 173.365 485.784 173.257 486.87C173.158 487.89 172.299 488.651 171.296 488.651Z" fill="#8E5242"/>
<path d="M168.475 501.477C168.33 501.477 168.185 501.462 168.038 501.429C163.772 500.463 159.748 498.765 156.078 496.383C155.162 495.789 154.901 494.565 155.495 493.652C156.09 492.736 157.313 492.475 158.226 493.071C161.505 495.198 165.099 496.714 168.909 497.577C169.973 497.817 170.641 498.874 170.399 499.938C170.192 500.854 169.377 501.477 168.475 501.477Z" fill="#8E5242"/>
<path d="M24.8505 402.979C24.8311 402.979 24.8137 402.979 24.7943 402.979C20.209 402.852 17.3967 398.381 16.0457 396.232L11.083 388.347C10.5023 387.424 10.7791 386.204 11.7023 385.623C12.6275 385.041 13.845 385.32 14.4256 386.243L19.3884 394.128C20.8923 396.519 22.7233 398.971 24.9027 399.031C25.9944 399.062 26.8538 399.97 26.8228 401.059C26.7938 402.132 25.915 402.979 24.8505 402.979Z" fill="#8E5242"/>
<path d="M27.6992 383.93C27.3857 383.93 27.0683 383.856 26.7702 383.697L18.9912 379.54C18.0293 379.025 17.6673 377.829 18.1803 376.867C18.6951 375.907 19.8932 375.541 20.8532 376.056L28.6322 380.213C29.5941 380.726 29.958 381.924 29.4432 382.886C29.087 383.552 28.4057 383.93 27.6992 383.93Z" fill="#8E5242"/>
<path d="M17.8998 414.908C17.3249 414.908 16.7539 414.659 16.3649 414.177C15.3797 412.961 13.5797 412.415 12.0854 412.884C11.046 413.213 9.93696 412.628 9.61179 411.587C9.28662 410.545 9.86727 409.438 10.9086 409.113C13.9358 408.167 17.4391 409.229 19.4347 411.691C20.1198 412.539 19.9882 413.782 19.1424 414.469C18.7766 414.765 18.3353 414.908 17.8998 414.908Z" fill="#8E5242"/>
<path d="M26.314 394.484C25.9018 394.484 25.4875 394.356 25.1333 394.091L17.9196 388.691C17.0467 388.039 16.8686 386.8 17.5209 385.927C18.1751 385.054 19.4119 384.876 20.2848 385.528L27.5005 390.928C28.3734 391.583 28.5496 392.819 27.8973 393.694C27.5082 394.211 26.916 394.484 26.314 394.484Z" fill="#8E5242"/>
<path d="M29.0723 367.043C29.0355 367.043 28.9968 367.043 28.96 367.042L19.0965 366.49C18.0068 366.428 17.1745 365.497 17.2345 364.407C17.2964 363.319 18.2274 362.503 19.3171 362.545L29.1806 363.097C30.2684 363.159 31.1026 364.09 31.0426 365.18C30.9826 366.231 30.1117 367.043 29.0723 367.043Z" fill="#8E5242"/>
<path d="M21.2449 355.651C20.4552 355.651 19.71 355.173 19.4042 354.393C19.0074 353.377 19.5107 352.233 20.5268 351.836C23.5095 350.671 26.7748 350.222 29.9568 350.524C31.0426 350.629 31.8381 351.593 31.7336 352.678C31.6291 353.764 30.6613 354.558 29.5794 354.455C27.0109 354.211 24.3728 354.575 21.9611 355.514C21.725 355.607 21.483 355.651 21.2449 355.651Z" fill="#8E5242"/>
<path d="M27.0689 347.284C26.5869 347.284 26.103 347.108 25.7237 346.756C23.0604 344.278 21.0416 341.149 19.888 337.699C19.5435 336.664 20.1009 335.545 21.1345 335.199C22.1681 334.858 23.2888 335.412 23.6352 336.445C24.5798 339.271 26.2327 341.836 28.4121 343.862C29.2115 344.605 29.256 345.854 28.5147 346.653C28.1257 347.071 27.5973 347.284 27.0689 347.284Z" fill="#8E5242"/>
<path d="M179.044 561.495C174.968 561.495 170.992 561.017 167.156 559.685C166.124 559.327 165.58 558.203 165.936 557.171C166.294 556.139 167.423 555.596 168.451 555.953C175.506 558.404 183.141 557.618 191.673 556.427C203.573 554.765 215.591 552.829 227.395 550.671C228.47 550.474 229.496 551.188 229.693 552.26C229.888 553.333 229.176 554.36 228.104 554.558C216.247 556.726 204.173 558.669 192.221 560.339C187.75 560.963 183.341 561.495 179.044 561.495Z" fill="#8E5242"/>
<path d="M121.389 255.512C115.073 255.512 108.758 255.076 102.504 254.209C98.4762 253.65 93.767 252.823 89.3656 250.93C79.9434 246.879 72.0793 237.78 67.7959 225.968C64.0042 215.514 63.1622 204.41 62.3474 193.669C62.2661 192.583 63.081 191.635 64.1687 191.552C65.2643 191.472 66.2049 192.283 66.2862 193.371C67.0798 203.846 67.9005 214.676 71.5083 224.62C75.422 235.411 82.5002 243.68 90.9256 247.303C94.8954 249.01 99.2814 249.775 103.046 250.295C113.442 251.739 124.008 251.95 134.454 250.921C135.53 250.824 136.506 251.608 136.612 252.694C136.719 253.777 135.925 254.745 134.839 254.852C130.372 255.293 125.88 255.512 121.389 255.512Z" fill="#8E5242"/>
<path d="M19.207 486.225C19.1799 486.225 19.1529 486.225 19.1258 486.223C14.0063 486.016 9.08804 484.018 5.27503 480.594C4.4621 479.866 4.39438 478.618 5.12408 477.807C5.85184 476.994 7.09831 476.928 7.91123 477.656C10.9984 480.426 15.1424 482.11 19.2864 482.278C20.3761 482.321 21.2239 483.24 21.1794 484.33C21.1368 485.392 20.26 486.225 19.207 486.225Z" fill="#8E5242"/>
<path d="M150.198 599.503C138.906 599.503 127.142 598.618 114.939 596.848C100.203 594.712 85.0326 591.269 69.8522 586.613C68.1915 586.105 66.4669 585.624 64.6378 585.114C59.1215 583.576 53.4175 581.985 48.6386 579.391C41.8855 575.725 35.9899 570.704 30.2897 565.848C29.2116 564.931 28.1355 564.015 27.0574 563.109C26.2212 562.408 26.1128 561.162 26.8135 560.328C27.5161 559.489 28.7587 559.381 29.5949 560.082C30.6826 560.994 31.7646 561.917 32.8504 562.842C38.3958 567.567 44.1327 572.45 50.5219 575.919C54.9098 578.301 60.3932 579.83 65.6985 581.309C67.5527 581.826 69.3025 582.314 71.0096 582.838C85.9984 587.433 100.968 590.832 115.506 592.942C149.076 597.808 179.235 595.864 205.143 587.164C206.18 586.818 207.297 587.375 207.643 588.408C207.992 589.442 207.434 590.561 206.401 590.909C189.36 596.633 170.547 599.503 150.198 599.503Z" fill="#8E5242"/>
<path d="M41.103 559.257C40.0346 559.257 39.1578 558.405 39.1307 557.333L37.3113 485.36C37.0345 474.329 36.7461 462.921 37.3906 451.678C38.2713 436.286 40.923 420.845 43.4857 405.91C46.7548 386.87 50.1342 367.18 49.7936 347.668C49.5168 331.827 46.4606 316.167 43.505 301.023C42.8179 297.506 42.1308 293.983 41.4746 290.449C37.6345 269.793 33.1073 239.033 38.0932 210.521C38.2791 209.445 39.3087 208.733 40.3772 208.915C41.4514 209.102 42.1714 210.126 41.9817 211.2C37.108 239.086 41.5733 269.371 45.3554 289.727C46.0115 293.25 46.6967 296.761 47.38 300.266C50.3704 315.578 53.4614 331.411 53.7421 347.598C54.0885 367.482 50.6781 387.358 47.378 406.58C44.8328 421.404 42.2024 436.733 41.3314 451.904C40.6965 462.985 40.983 474.31 41.2598 485.259L43.0773 557.232C43.1063 558.322 42.243 559.228 41.1533 559.257C41.1359 559.257 41.1204 559.257 41.103 559.257Z" fill="#8E5242"/>
<path d="M59.1408 564.154C58.2059 564.154 57.3756 563.488 57.2014 562.536C48.9269 517.448 47.4637 478.507 52.7283 443.485C54.1006 434.351 55.9858 425.14 57.8091 416.233C61.5041 398.189 65.3229 379.533 64.9435 360.977C64.628 345.57 61.4112 330.107 58.2988 315.153C56.8162 308.024 55.2832 300.656 54.0735 293.349C49.014 262.814 49.2269 231.886 54.7026 201.422C54.8961 200.35 55.92 199.636 56.9943 199.829C58.0685 200.021 58.7827 201.049 58.5891 202.121C53.1929 232.139 52.9838 262.615 57.9698 292.704C59.1659 299.93 60.6911 307.26 62.166 314.348C65.3132 329.478 68.5688 345.125 68.892 360.897C69.2811 379.893 65.4158 398.77 61.6802 417.024C59.8647 425.881 57.991 435.04 56.6342 444.073C51.4354 478.656 52.8909 517.171 61.086 561.822C61.2815 562.896 60.5711 563.924 59.4988 564.121C59.3788 564.144 59.2588 564.154 59.1408 564.154Z" fill="#8E5242"/>
<path d="M75.6665 579.481C74.7142 579.481 73.8761 578.79 73.7193 577.82C68.2456 543.786 62.5842 508.594 64.6823 473.421C65.6752 456.785 68.4276 439.973 71.0909 423.717C75.6626 395.812 80.3873 366.955 76.0846 338.841C74.72 329.934 72.4245 321.009 70.2044 312.377C68.596 306.115 66.9314 299.641 65.6191 293.18C61.7016 273.885 62.0287 258.816 66.6488 245.761C67.0127 244.731 68.1411 244.193 69.1689 244.557C70.1986 244.921 70.7347 246.05 70.3728 247.077C66.0004 259.43 65.7197 273.83 69.4902 292.394C70.7812 298.756 72.4322 305.18 74.0309 311.392C76.2742 320.119 78.593 329.142 79.9885 338.243C84.3861 366.976 79.6092 396.145 74.9871 424.355C72.3412 440.513 69.6063 457.223 68.625 473.658C66.554 508.395 72.1786 543.37 77.6194 577.191C77.7917 578.269 77.0601 579.282 75.9839 579.456C75.8775 579.473 75.771 579.481 75.6665 579.481Z" fill="#8E5242"/>
<path d="M91.998 581.922C91.0922 581.922 90.2753 581.294 90.0721 580.373C83.9442 552.678 77.6614 519.888 77.5105 486.684C77.4156 466.026 79.6899 445.139 81.8887 424.94C84.6468 399.617 87.4979 373.433 85.6378 347.733C84.8036 336.215 82.9997 324.532 81.2577 313.232C78.5131 295.433 75.6736 277.026 76.5059 258.669C76.5562 257.579 77.4795 256.739 78.5692 256.786C79.6589 256.836 80.5009 257.76 80.4525 258.849C79.6376 276.813 82.4461 295.021 85.1616 312.63C86.9172 324.007 88.7308 335.771 89.5766 347.449C91.4638 373.505 88.5934 399.871 85.8159 425.368C83.6287 445.457 81.3661 466.231 81.459 486.666C81.608 519.497 87.8463 552.028 93.9297 579.52C94.1639 580.586 93.4922 581.639 92.4277 581.875C92.2844 581.906 92.1393 581.922 91.998 581.922Z" fill="#8E5242"/>
<path d="M110.09 589.136C109.232 589.136 108.442 588.572 108.193 587.708C92.2283 532.233 88.2314 472.723 96.6336 415.613C96.9085 413.749 97.1949 411.885 97.4833 410.019C98.8963 400.848 100.36 391.364 100.145 382.043C99.957 373.886 98.4801 365.625 97.0517 357.637C96.7401 355.895 96.4285 354.155 96.1285 352.411C91.2199 323.841 89.5766 294.678 91.2412 265.734C91.3032 264.644 92.2264 263.806 93.3258 263.876C94.4136 263.938 95.2458 264.871 95.1839 265.961C93.5348 294.607 95.1626 323.467 100.023 351.744C100.319 353.476 100.629 355.21 100.938 356.943C102.394 365.078 103.898 373.491 104.093 381.952C104.316 391.622 102.827 401.28 101.387 410.621C101.101 412.477 100.814 414.333 100.541 416.187C92.2206 472.746 96.1788 531.677 111.988 586.616C112.29 587.663 111.686 588.758 110.637 589.059C110.455 589.111 110.271 589.136 110.09 589.136Z" fill="#8E5242"/>
<path d="M128.793 585.182C127.972 585.182 127.206 584.667 126.925 583.846C110.604 536.247 112.013 484.659 115.089 431.577L115.161 430.35C115.71 420.883 116.277 411.095 116.068 401.501C115.72 385.525 113.217 369.17 110.798 353.35C106.501 325.26 102.059 296.211 109.561 268.372C109.844 267.319 110.924 266.696 111.983 266.981C113.034 267.263 113.659 268.347 113.374 269.4C106.087 296.436 110.467 325.066 114.702 352.754C117.141 368.695 119.663 385.182 120.017 401.414C120.23 411.167 119.657 421.034 119.103 430.578L119.032 431.806C115.979 484.479 114.572 535.643 130.66 582.565C131.015 583.596 130.465 584.719 129.433 585.074C129.222 585.147 129.006 585.182 128.793 585.182Z" fill="#8E5242"/>
<path d="M149.058 590.393C148.21 590.393 147.426 589.842 147.169 588.987C135.86 551.534 129.449 512.715 128.117 473.607C128.081 472.52 128.934 471.604 130.024 471.567C131.104 471.525 132.027 472.384 132.064 473.474C133.386 512.239 139.738 550.719 150.949 587.847C151.264 588.89 150.674 589.992 149.631 590.307C149.441 590.363 149.248 590.393 149.058 590.393Z" fill="#8E5242"/>
<path d="M164.355 586.025C163.449 586.025 162.632 585.398 162.429 584.477C161.734 581.322 161.431 578.09 161.527 574.869C161.558 573.777 162.487 572.932 163.56 572.953C164.649 572.985 165.507 573.896 165.474 574.987C165.387 577.882 165.662 580.79 166.287 583.626C166.521 584.69 165.847 585.745 164.783 585.979C164.64 586.012 164.496 586.025 164.355 586.025Z" fill="#8E5242"/>
<path d="M180.944 585.389C180.033 585.389 179.212 584.752 179.015 583.823L177.671 577.472C177.445 576.406 178.126 575.356 179.193 575.132C180.263 574.906 181.308 575.589 181.535 576.655L182.88 583.004C183.104 584.07 182.423 585.119 181.357 585.346C181.217 585.375 181.08 585.389 180.944 585.389Z" fill="#8E5242"/>
<path d="M198.758 581.109C198.033 581.109 197.334 580.706 196.987 580.014C196.18 578.388 195.851 576.5 196.062 574.7C196.188 573.617 197.16 572.839 198.251 572.968C199.335 573.094 200.11 574.073 199.984 575.158C199.862 576.209 200.053 577.308 200.526 578.256C201.011 579.231 200.611 580.418 199.635 580.904C199.353 581.044 199.053 581.109 198.758 581.109Z" fill="#8E5242"/>
<path d="M146.054 404.499C144.997 404.499 144.12 403.663 144.082 402.598C143.836 396.198 144 389.713 144.161 383.442C144.343 376.205 144.533 368.721 144.086 361.418C143.519 352.168 141.908 342.819 140.35 333.78C139.344 327.945 138.302 321.91 137.543 315.919C135.105 296.674 136.403 281.923 141.628 269.497C142.051 268.492 143.207 268.022 144.213 268.442C145.22 268.864 145.692 270.023 145.268 271.028C140.325 282.788 139.115 296.895 141.461 315.422C142.21 321.325 143.242 327.315 144.24 333.11C145.818 342.254 147.448 351.711 148.028 361.178C148.485 368.651 148.294 376.221 148.108 383.543C147.951 389.75 147.788 396.17 148.026 402.447C148.069 403.537 147.219 404.456 146.13 404.497C146.104 404.499 146.079 404.499 146.054 404.499Z" fill="#8E5242"/>
<path d="M173.33 550.87C172.521 550.87 171.76 550.369 171.472 549.564C166.809 536.584 162.534 523.277 158.761 510.009C158.463 508.96 159.073 507.868 160.122 507.57C161.173 507.272 162.263 507.88 162.561 508.929C166.308 522.111 170.556 535.331 175.188 548.228C175.558 549.254 175.026 550.384 173.998 550.754C173.777 550.833 173.553 550.87 173.33 550.87Z" fill="#8E5242"/>
<path d="M160.487 407.271C159.506 407.271 158.654 406.539 158.53 405.538C155.778 383.303 154.983 360.682 156.169 338.301C156.227 337.21 157.162 336.366 158.246 336.434C159.334 336.492 160.172 337.421 160.114 338.508C158.939 360.659 159.725 383.047 162.45 405.052C162.583 406.136 161.815 407.121 160.733 407.255C160.65 407.265 160.569 407.271 160.487 407.271Z" fill="#8E5242"/>
<path d="M195.891 549.424C195.08 549.424 194.319 548.919 194.03 548.11C185.352 523.718 183.791 497.695 182.284 472.529C181.767 463.902 181.233 454.985 180.418 446.31C179.636 437.984 177.981 429.626 176.38 421.545C174.807 413.603 173.181 405.391 172.376 397.186C170.417 377.244 170.365 357.839 170.535 343.159C170.548 342.078 171.429 341.208 172.509 341.208C172.517 341.208 172.525 341.208 172.534 341.208C173.624 341.222 174.497 342.116 174.485 343.208C174.315 357.784 174.367 377.049 176.307 396.799C177.093 404.814 178.701 412.93 180.253 420.779C181.873 428.956 183.548 437.414 184.349 445.941C185.172 454.681 185.708 463.635 186.226 472.293C187.717 497.184 189.259 522.923 197.751 546.786C198.116 547.814 197.58 548.945 196.552 549.308C196.334 549.388 196.111 549.424 195.891 549.424Z" fill="#8E5242"/>
<path d="M187.459 549.449C186.723 549.449 186.017 549.035 185.678 548.328C180.454 537.454 177.179 525.855 175.942 513.854C175.83 512.768 176.62 511.799 177.704 511.686C178.776 511.586 179.759 512.364 179.871 513.45C181.06 524.996 184.211 536.156 189.237 546.617C189.71 547.601 189.296 548.782 188.312 549.253C188.037 549.385 187.745 549.449 187.459 549.449Z" fill="#8E5242"/>
<path d="M210.419 543.855C209.474 543.855 208.638 543.174 208.476 542.209L196.837 473.021C190.227 433.729 183.391 393.098 184.247 352.427C184.27 351.337 185.183 350.493 186.263 350.495C187.353 350.518 188.218 351.42 188.197 352.512C187.347 392.808 194.151 433.253 200.732 472.366L212.37 541.554C212.55 542.63 211.826 543.648 210.75 543.828C210.64 543.848 210.529 543.855 210.419 543.855Z" fill="#8E5242"/>
<path d="M224.95 534.927C224.946 534.927 224.941 534.927 224.935 534.927C223.845 534.917 222.968 534.027 222.976 532.935C223.183 506.381 216.622 479.748 210.275 453.994C202.736 423.399 194.942 391.763 198.416 359.985C198.534 358.903 199.498 358.115 200.593 358.237C201.677 358.355 202.461 359.331 202.341 360.415C198.942 391.495 206.654 422.787 214.109 453.05C220.514 479.04 227.136 505.917 226.925 532.966C226.917 534.052 226.034 534.927 224.95 534.927Z" fill="#8E5242"/>
<path d="M12.9484 472.702C11.9825 472.702 11.1386 471.991 10.9973 471.006C8.67083 454.81 8.15016 438.323 9.44504 422.004C9.53214 420.916 10.4767 420.099 11.5703 420.192C12.658 420.278 13.469 421.23 13.3819 422.316C12.1083 438.344 12.6232 454.537 14.9071 470.447C15.062 471.525 14.3129 472.526 13.2309 472.68C13.138 472.694 13.0413 472.702 12.9484 472.702Z" fill="#8E5242"/>
<path d="M23.6404 327.671C22.6475 327.671 21.7919 326.924 21.6797 325.914C20.3151 313.586 20.5513 301.116 22.3803 288.852C22.541 287.772 23.5417 287.025 24.6256 287.19C25.7037 287.35 26.4489 288.355 26.2863 289.435C24.5075 301.362 24.2791 313.49 25.6069 325.478C25.7269 326.562 24.9449 327.54 23.861 327.66C23.7875 327.668 23.7139 327.671 23.6404 327.671Z" fill="#8E5242"/>
<path d="M147.736 250.923C147.653 250.923 147.572 250.919 147.488 250.907C144.012 250.472 140.234 250.124 136.231 249.754C122.061 248.449 105.998 246.969 94.6771 240.75C81.7013 233.623 73.0474 221.385 70.3087 206.289C70.1132 205.217 70.8255 204.189 71.8978 203.994C72.9778 203.8 73.9997 204.511 74.1933 205.585C76.7153 219.486 84.6646 230.745 96.5778 237.289C107.179 243.111 122.806 244.551 136.595 245.823C140.629 246.194 144.44 246.545 147.98 246.99C149.062 247.125 149.828 248.112 149.693 249.194C149.567 250.193 148.717 250.923 147.736 250.923Z" fill="#B53F3A"/>
<path d="M19.2377 494.275C15.5834 494.275 11.8923 493.001 9.06059 490.706C8.21283 490.019 8.08314 488.776 8.77026 487.928C9.45738 487.079 10.7019 486.951 11.5478 487.638C14.0698 489.682 17.4937 490.657 20.7125 490.232C21.7926 490.094 22.7855 490.853 22.9268 491.933C23.0662 493.015 22.3055 494.006 21.2235 494.147C20.5674 494.232 19.9035 494.275 19.2377 494.275Z" fill="#B53F3A"/>
<path d="M183.662 566.524C179.688 566.524 175.722 566.338 171.785 565.961C170.699 565.857 169.904 564.893 170.008 563.807C170.111 562.721 171.081 561.922 172.163 562.03C188.814 563.627 206.025 561.713 221.925 556.498C222.965 556.162 224.078 556.723 224.416 557.76C224.755 558.796 224.192 559.911 223.154 560.251C210.502 564.401 197.042 566.524 183.662 566.524Z" fill="#B53F3A"/>
<path d="M389.572 99.5698C389.319 99.5698 389.061 99.5214 388.813 99.4169C365.297 89.6095 351.589 50.5058 348.471 28.1619C348.322 27.0838 349.073 26.0851 350.155 25.9341C351.243 25.7793 352.232 26.538 352.383 27.618C355.6 50.6878 369.503 87.0837 390.333 95.7723C391.339 96.1923 391.815 97.3478 391.395 98.3543C391.08 99.113 390.344 99.5698 389.572 99.5698Z" fill="#6C352A"/>
<path d="M397.382 91.8105C396.6 91.8105 395.858 91.3421 395.549 90.5698C385.89 66.513 373.561 43.4724 358.903 22.0885C358.288 21.1904 358.516 19.9613 359.416 19.3439C360.316 18.7284 361.545 18.9568 362.163 19.8568C376.983 41.4768 389.448 64.7749 399.215 89.0989C399.621 90.1111 399.129 91.2609 398.117 91.6673C397.875 91.7641 397.627 91.8105 397.382 91.8105Z" fill="#6C352A"/>
<path d="M423.129 103.173C422.266 103.173 421.475 102.604 421.229 101.733C412.109 69.2317 393.084 39.1031 367.661 16.8966C366.84 16.1805 366.755 14.932 367.473 14.1114C368.191 13.2907 369.438 13.2055 370.26 13.9236C396.255 36.6275 415.705 67.4336 425.032 100.665C425.326 101.716 424.715 102.806 423.664 103.1C423.486 103.15 423.306 103.173 423.129 103.173Z" fill="#6C352A"/>
<path d="M438.137 91.1514C437.185 91.1514 436.347 90.4604 436.19 89.4907C431.554 60.7112 413.914 34.4904 389.003 19.3525C388.072 18.7854 387.776 17.5699 388.341 16.6389C388.907 15.7059 390.12 15.4098 391.055 15.9769C416.941 31.709 435.272 58.9556 440.088 88.8617C440.262 89.9378 439.531 90.952 438.455 91.1262C438.348 91.1417 438.242 91.1514 438.137 91.1514Z" fill="#6C352A"/>
<path d="M382.716 291.382C382.489 291.382 382.259 291.344 382.035 291.26C381.011 290.883 380.486 289.749 380.864 288.725C388.658 267.56 399.948 247.436 410.868 227.974C426.492 200.127 442.648 171.334 448.201 139.715C449.68 131.303 450.502 122.181 450.717 111.83C451.172 90.15 448.623 73.3108 442.7 58.8388C435.386 40.9679 422.429 27.2546 407.154 21.2138C406.14 20.8132 405.642 19.6654 406.045 18.6512C406.446 17.6369 407.591 17.1395 408.608 17.5402C424.876 23.9739 438.636 38.4827 446.355 57.3445C452.492 72.3334 455.132 89.6719 454.668 111.913C454.447 122.468 453.605 131.785 452.092 140.399C446.42 172.68 430.098 201.773 414.314 229.906C403.469 249.234 392.256 269.218 384.57 290.089C384.276 290.889 383.521 291.382 382.716 291.382Z" fill="#6C352A"/>
<path d="M378.841 270.641C378.582 270.641 378.317 270.588 378.061 270.478C377.061 270.046 376.598 268.885 377.03 267.884C384.414 250.737 393.343 234.123 403.564 218.503C404.65 216.844 405.749 215.195 406.851 213.546C409.307 209.865 411.848 206.059 414.152 202.219C429.39 176.806 437.599 144.215 438.547 105.347C438.572 104.258 439.455 103.381 440.568 103.422C441.659 103.449 442.521 104.353 442.494 105.444C441.53 145.001 433.133 178.246 417.539 204.25C415.185 208.171 412.619 212.019 410.135 215.739C409.042 217.378 407.948 219.016 406.87 220.665C396.772 236.097 387.952 252.508 380.657 269.446C380.336 270.194 379.606 270.641 378.841 270.641Z" fill="#6C352A"/>
<path d="M399.627 275.003C399.397 275.003 399.164 274.962 398.936 274.877C397.914 274.494 397.395 273.358 397.779 272.336C402.368 260.064 410.22 249.402 417.815 239.089C421.541 234.029 425.395 228.796 428.788 223.467C451.025 188.54 456.52 145.031 461.367 106.644C461.504 105.56 462.488 104.797 463.575 104.931C464.657 105.068 465.422 106.055 465.286 107.137C460.388 145.937 454.834 189.915 432.119 225.589C428.654 231.031 424.76 236.317 420.995 241.431C413.561 251.525 405.873 261.963 401.477 273.72C401.181 274.513 400.428 275.003 399.627 275.003Z" fill="#6C352A"/>
<path d="M373.937 323.868C373.484 323.868 373.027 323.711 372.655 323.393C371.825 322.687 371.726 321.441 372.435 320.61C379.051 312.856 386.189 305.379 393.095 298.148C400.63 290.255 408.422 282.093 415.504 273.598C431.558 254.337 441.028 236.358 444.456 218.63C444.663 217.56 445.701 216.859 446.769 217.066C447.84 217.274 448.54 218.309 448.333 219.381C444.776 237.779 435.03 256.341 418.537 276.126C411.37 284.725 403.531 292.936 395.95 300.875C389.084 308.068 381.983 315.504 375.439 323.175C375.05 323.632 374.494 323.868 373.937 323.868Z" fill="#6C352A"/>
<path d="M373.85 294.618C372.815 294.618 371.946 293.811 371.882 292.764C368.905 243.717 390.289 205.283 412.929 164.594L414.694 161.416C415.224 160.462 416.426 160.121 417.381 160.65C418.335 161.18 418.677 162.382 418.147 163.336L416.38 166.514C394.028 206.685 372.917 244.629 375.825 292.524C375.89 293.614 375.062 294.549 373.972 294.614C373.932 294.616 373.891 294.618 373.85 294.618Z" fill="#6C352A"/>
<path d="M365.779 254.576C364.712 254.576 363.834 253.725 363.807 252.65C363.149 226.784 375.383 202.576 388.704 180.269C389.263 179.334 390.475 179.028 391.411 179.588C392.346 180.145 392.654 181.359 392.095 182.293C379.08 204.091 367.124 227.688 367.755 252.55C367.782 253.641 366.921 254.547 365.831 254.574C365.814 254.576 365.796 254.576 365.779 254.576Z" fill="#6C352A"/>
<path d="M421.845 157.316C421.5 157.316 421.152 157.225 420.835 157.038C419.898 156.478 419.592 155.267 420.149 154.33C423.707 148.363 425.49 141.255 425.17 134.316C425.12 133.227 425.962 132.303 427.052 132.253C428.128 132.191 429.066 133.045 429.115 134.134C429.469 141.838 427.491 149.727 423.542 156.353C423.173 156.972 422.517 157.316 421.845 157.316Z" fill="#6C352A"/>
<path d="M397.864 172.073C397.522 172.073 397.173 171.982 396.856 171.793C395.919 171.235 395.611 170.024 396.171 169.087L404.887 154.464C405.444 153.527 406.656 153.219 407.592 153.779C408.529 154.336 408.837 155.548 408.278 156.484L399.564 171.107C399.194 171.729 398.538 172.073 397.864 172.073Z" fill="#6C352A"/>
<path d="M414.569 109.553C413.735 109.553 412.959 109.021 412.69 108.185L406.258 88.2778C405.925 87.2403 406.494 86.1274 407.532 85.7906C408.571 85.4538 409.684 86.0267 410.019 87.0642L416.449 106.971C416.784 108.009 416.213 109.122 415.175 109.456C414.974 109.522 414.769 109.553 414.569 109.553Z" fill="#6C352A"/>
<path d="M464.128 91.1616C464.105 91.1616 464.079 91.1616 464.052 91.1616C462.963 91.119 462.113 90.2035 462.156 89.1138C462.38 83.1272 461.722 77.156 460.195 71.361C459.916 70.3062 460.547 69.2261 461.6 68.9494C462.659 68.6706 463.737 69.3016 464.014 70.3565C465.639 76.527 466.342 82.8872 466.1 89.2628C466.061 90.3274 465.185 91.1616 464.128 91.1616Z" fill="#6C352A"/>
</svg>
