<svg width="341" height="286" viewBox="0 0 341 286" fill="none" xmlns="http://www.w3.org/2000/svg">
<circle cx="118" cy="119" r="118" fill="#3C4A3E"/>
<path d="M233.949 128.863C223.181 135.067 212.073 140.683 200.691 145.676C198.662 146.567 196.437 147.456 194.286 146.917C192.873 146.563 191.685 145.632 190.544 144.725C183.057 138.769 176.186 131.021 170.743 123.117C163.021 111.905 151.954 102.269 143.012 91.8988C142.588 91.4067 142.063 90.8698 141.414 90.9164C140.938 90.9512 140.55 91.2969 140.191 91.6134C134.718 96.4465 130.333 97.0236 124.56 92.6214C121.97 90.6466 119.122 88.1661 119.201 84.9099C119.225 83.8937 119.548 82.8912 119.466 81.8778C119.375 80.75 118.786 79.6442 119.023 78.5374C119.574 75.9654 123.594 76.0404 125.074 73.8654C125.288 73.5517 125.451 73.1858 125.759 72.9626C126.023 72.7696 126.36 72.7102 126.683 72.6562C129.438 72.1925 132.194 71.7278 134.95 71.2641C137.728 70.7967 140.564 70.3275 143.348 70.7565C146.133 71.1854 147.665 72.2409 149.562 74.3236C164.157 90.3484 180.045 105.197 197.02 118.675C203.803 114.94 211.241 111.48 218.024 107.743C226.131 112.564 230.068 120.268 233.949 128.863Z" fill="#EFB28C"/>
<path d="M280.353 115.213C283.954 110.519 285.533 106.441 284.288 100.671C281.249 86.5857 262.715 86.9086 251.795 90.1035C244.746 92.167 238.075 94.4271 231.495 97.8699C228.035 99.68 224.615 101.13 221.239 103.136C217.865 104.823 214.588 106.917 211.422 108.967C208.268 111.01 204.815 112.505 201.4 114.125C200.983 114.323 200.55 114.533 200.264 114.896C199.188 116.265 200.94 120.401 201.382 121.868C202.169 124.481 203.107 127.047 203.837 129.678C205.585 135.982 208.333 142.715 211.969 148.161C212.231 148.553 212.536 148.963 212.986 149.101C213.319 149.202 213.677 149.137 214.018 149.068C218.187 148.217 221.67 146.227 225.629 144.918C229.513 143.634 233.476 142.323 237.402 141.065C242.008 139.588 246.586 138.024 251.133 136.375C255.105 134.934 258.035 133.027 261.641 130.956C268.741 126.878 275.346 121.741 280.353 115.213Z" fill="#B53F3A"/>
<path d="M277.11 89.0137C281.803 93.823 286.913 98.6067 289.244 104.91C290.698 108.844 290.959 113.109 291.986 117.177C293.092 121.555 295.1 125.702 297.849 129.283C298.984 130.763 300.305 132.191 302.03 132.902C316.342 138.795 323.006 112.209 325.444 103.607C330.026 87.4442 332.287 70.6245 332.131 53.825C332.036 43.5415 332.61 31.7287 327.68 22.4897C323.053 13.8215 315.256 6.8289 306.114 3.21873C300.388 0.957703 294.821 0.454651 288.794 0.363174C283.666 0.285431 278.972 -0.486526 273.814 0.490326C262.654 2.60411 250.765 9.52531 246.32 20.4893C244.36 25.3251 244.255 30.6832 244.178 35.9022C244.106 40.663 244.131 46.2123 247.159 50.1828C249.464 53.2057 252.62 55.4403 254.979 58.412C257.295 61.3307 258.51 65.2225 260.53 68.4385C265.225 75.9176 270.952 82.7026 277.11 89.0137Z" fill="#8E5242"/>
<path d="M306.528 267.432C310.973 266.471 316.05 264.931 319.511 261.869C322.321 259.383 320.12 255.092 320.156 251.734C320.194 248.181 319.833 244.846 319.442 241.293C318.703 234.589 318.594 227.815 319.126 221.09C320.203 207.46 323.886 194.188 328.569 181.39C332.89 169.583 339.459 158.787 340.752 146.078C341.151 142.154 340.999 138.316 340.768 134.393C340.571 131.043 340.561 128.209 338.926 125.077C338.063 123.424 336.912 121.94 335.755 120.478C330.628 113.999 325.107 107.622 318.051 103.328C316.933 102.647 312.271 110.467 311.857 111.415C310.481 114.565 307.779 117.087 305.109 119.208C299.461 123.694 292.596 126.489 285.649 128.238C283.314 128.825 280.901 129.313 278.511 129.023C276.731 128.807 275.025 128.164 273.42 127.363C268.787 125.054 264.826 121.323 262.501 116.698C260.176 112.073 259.556 106.559 261.072 101.61C257.604 102.116 253.301 100.404 250.174 101.99C248.651 102.763 247.53 104.13 246.47 105.47C243.028 109.82 239.7 114.337 237.495 119.428C236.834 120.955 236.277 122.526 235.72 124.095C229.212 142.454 226.242 162.081 227.726 181.536C229.27 201.791 233.874 221.972 236.122 242.236C236.736 247.767 237.251 253.204 237.757 258.713C237.857 259.814 238.019 260.96 238.651 261.869C239.612 263.251 243.497 263.681 245.172 264.29C247.752 265.23 250.374 265.893 253.078 266.37C257.623 267.171 262.222 267.38 266.806 267.83C279.139 269.039 294.01 270.142 306.528 267.432Z" fill="#B53F3A"/>
<path d="M309.843 57.8272C310.339 55.182 310.532 52.4892 310.591 49.7992C310.691 45.2396 310.397 40.6069 308.915 36.2943C307.208 31.3286 303.518 27.991 300.318 24.1028C296.745 19.7627 292.421 16.1791 287.186 14.0187C278.794 10.554 268.649 11.1549 261.144 16.2614C253.28 21.6122 247.774 31.5536 247.386 41.0322C247.282 43.5832 248.215 45.4683 248.619 47.7632C249.116 50.5776 248.286 52.6465 247.321 55.3201C245.564 60.1934 247.142 65.1481 248.929 69.7808C250.878 74.8343 252.787 84.537 256.609 88.3841C260.161 91.9577 267.802 90.872 272.217 90.1027C288.269 87.3084 306.663 74.8032 309.843 57.8272Z" fill="#EFB28C"/>
<path d="M297.922 119.088C294.041 122.941 289.836 126.64 284.785 128.733C279.733 130.826 273.659 131.097 268.987 128.256C265.539 126.159 263.166 122.554 262.052 118.676C259.963 111.409 262.622 106.375 264.502 99.6071C265.805 94.9149 265.082 89.9291 264.349 85.1153C276.534 77.8263 288.505 69.2185 301.111 62.686C307.293 82.0859 302.194 99.1809 297.922 119.088Z" fill="#EFB28C"/>
<path d="M281.005 158.907C279.448 153.871 278.21 148.804 277.005 143.627C275.72 138.107 275.759 132.362 276.138 126.739C276.769 117.364 278.356 107.986 281.518 99.1152C282.996 94.97 284.761 91.036 287.205 87.424C289.601 83.8825 292.337 80.0025 293.876 75.9954C294.759 73.6959 295.33 71.0023 297.393 69.6568C298.138 69.1711 299.007 68.9196 299.822 68.5647C304.176 66.6659 308.16 59.6842 305.316 55.1732C304.203 53.407 302.147 52.4081 300.082 52.0917C295.252 51.3499 291.983 52.9432 287.474 50.0684C284.261 48.0196 281.747 45.0415 279.549 41.9271C274.566 34.8678 270.937 26.8553 268.917 18.4533C262.366 22.8491 255.313 27.1626 248.763 31.5585C248.787 28.5273 249.804 25.5977 250.919 22.7796C252.397 19.0469 254.103 15.3361 256.719 12.2903C261.493 6.7301 268.941 3.93855 276.264 3.64587C283.586 3.35318 290.829 5.32976 297.648 8.01611C303.738 10.4162 309.6 13.3952 315.129 16.9002C317.986 18.7103 319.578 22.4512 320.835 25.5903C322.092 28.7304 322.564 32.1265 322.828 35.4979C323.759 47.3977 320.407 59.9047 324.688 71.3983C326.321 75.7823 328.406 79.8013 328.611 84.5419C328.835 89.7162 327.683 94.8474 326.551 99.8616C325.638 103.903 324.719 107.962 323.199 111.816C321.906 115.096 320.191 118.19 318.483 121.275C316.779 124.347 315.283 127.76 313.288 130.648C312.031 132.469 309.84 135.835 307.85 136.83C303.271 141.031 298.86 144.743 294.697 149.313C290.648 153.758 287.717 159.068 284.56 164.146C284.235 164.668 283.576 165.253 283.109 164.853C282.971 164.734 282.902 164.554 282.84 164.383C282.178 162.559 281.571 160.735 281.005 158.907Z" fill="#8E5242"/>
<path d="M273.045 54.7769C274.717 56.9437 278.618 55.0211 277.691 52.4107C277.357 51.4732 276.272 51.0094 275.278 50.9719C273.17 50.8924 271.651 52.9714 273.045 54.7769Z" fill="#6C352A"/>
<path d="M252.184 45.646C249.604 48.5948 255.332 52.1867 255.556 47.3985C255.602 46.4152 255.096 45.3322 254.157 45.0386C253.462 44.8209 252.663 45.0981 252.184 45.646Z" fill="#6C352A"/>
<path d="M220.495 242.935C220.578 248.501 223.58 265.336 216.568 267.056C214.307 267.61 211.999 267.974 209.676 268.142C210.01 272.297 213.379 281.927 207.778 282.852C180.282 287.391 150.77 286.358 126.313 272.999C124.823 272.185 123.324 271.302 122.234 270C119.849 267.153 119.937 263.046 120.15 259.337C120.496 253.296 120.842 247.254 121.188 241.212C121.484 236.044 118.591 235.043 114.589 232.715C113.543 232.107 112.458 231.462 111.8 230.446C111.223 229.556 111.038 228.476 110.877 227.429C109.03 215.432 108.77 203.09 111.288 191.216C112.507 185.475 114.364 179.875 115.381 174.095C116.273 169.023 116.51 163.861 116.745 158.716C117.26 147.426 117.776 136.135 118.291 124.845C118.679 116.36 115.413 108.042 117.289 99.6651C119.052 91.7881 125.294 85.0772 133.023 82.7485C136.124 85.3489 139.365 87.9108 142.465 90.5112C143.075 91.0225 143.697 91.5484 144.089 92.239C144.515 92.989 144.634 93.868 144.791 94.7168C145.873 100.535 149.327 105.806 154.026 109.361C160.033 113.905 165.91 114.164 173.157 115.007C177.297 115.488 180.52 116.579 184.285 118.287C186.059 119.092 187.839 119.898 189.502 120.914C196.67 125.296 198.916 132.252 201.756 139.625C204.943 147.901 206.859 156.599 208.273 165.335C211.099 182.789 211.9 200.624 216.64 217.733C217.506 220.86 218.505 223.955 219.166 227.133C220.246 232.315 220.416 237.641 220.495 242.935Z" fill="#B27C72"/>
<path d="M130.106 78.4334C131.557 80.9359 132.937 83.4804 134.244 86.0616C134.731 87.0247 135.165 88.3172 134.394 89.0745C134.059 89.4029 133.572 89.5254 133.104 89.5693C132.33 89.6416 131.357 89.2931 130.838 88.7141C131.129 89.498 131.266 90.3724 131.019 91.1718C130.772 91.9703 130.073 92.6636 129.239 92.7203C128.258 92.788 127.336 92.2548 126.65 91.5505C126.903 92.4944 125.717 93.3084 124.761 93.1026C123.806 92.8978 123.117 92.0883 122.504 91.3273C121.477 90.0532 120.451 88.7791 119.424 87.5049C118.747 86.6662 118.602 86.1174 118.968 85.104C119.408 83.8865 120.855 83.3734 121.632 82.3389C122.471 81.2221 122.53 79.5063 123.723 78.7818C123.975 78.6291 124.257 78.5367 124.538 78.4516C126.116 77.9714 129.278 77.0074 130.106 78.4334Z" fill="#EFB28C"/>
<path d="M299.953 193.275C294.168 200.697 287.727 207.609 280.73 213.902C276.913 217.337 272.889 220.615 268.305 222.928C267.259 223.455 266.158 223.939 264.989 224.01C259.508 224.346 254.911 217.052 251.523 213.724C247.694 209.965 243.865 206.206 240.037 202.446C235.797 198.282 231.547 194.109 227.76 189.53C225.643 186.972 223.677 184.294 221.578 181.723C219.394 179.047 217.07 176.491 214.747 173.936C213.273 172.316 211.796 170.691 210.161 169.232C205.263 164.864 199.207 162.161 193.519 159.012C190.744 157.476 188.01 155.835 185.546 153.828C183.634 152.269 180.226 149.991 180.642 147.192C180.727 146.622 180.95 146.08 181.039 145.511C181.273 144.013 180.571 142.552 180.042 141.131C179.512 139.711 179.177 138.01 180.037 136.763C180.707 135.793 181.969 135.319 182.516 134.276C183.187 132.998 182.529 131.464 181.963 130.137C181.397 128.81 180.983 127.106 181.977 126.059C183.189 124.784 185.309 125.596 186.833 126.475C188.371 127.361 190.393 127.547 191.931 128.433C191.236 127.417 190.638 126.333 190.149 125.202C189.756 124.294 189.43 123.268 189.743 122.328C190.055 121.388 191.281 120.724 192.081 121.31C197.293 125.129 202.214 129.813 207.775 133.106C209.481 134.116 211.268 135.086 212.554 136.595C214.625 139.024 214.829 142.256 215.966 145.115C217.251 148.346 220.699 150.999 223.083 153.476C226.394 156.915 230.547 159.829 234.193 162.994C238.52 166.749 242.924 170.412 247.404 173.981C252.822 178.298 258.747 181.797 264.204 186.06C268.759 182.544 273.625 178.598 277.911 174.759C285.078 181.346 292.786 186.688 299.953 193.275Z" fill="#EFB28C"/>
<path d="M319.177 182.252C311.678 190.293 304.32 197.937 295.946 205.062C286.853 201.272 280.774 192.708 275.546 184.359C273.469 181.043 272.085 177.572 272.163 173.66C279.313 167.122 286.464 160.582 293.615 154.043C298.912 158.355 303.371 163.332 307.785 168.546C309.159 170.169 310.533 171.793 311.907 173.416C313.789 175.641 315.673 177.865 317.555 180.09L319.177 182.252Z" fill="#B53F3A"/>
<path d="M279.112 141.604C278.784 141.604 278.465 141.43 278.295 141.121C271.117 128.159 271.394 114.418 279.097 101.386C280.613 98.8222 282.312 96.4605 284.217 93.8592C287.939 88.7747 291.775 83.6599 295.618 78.6576C295.932 78.2488 296.518 78.1719 296.927 78.4857C297.336 78.8003 297.413 79.3857 297.098 79.7945C293.264 84.7858 289.437 89.8887 285.723 94.9614C283.848 97.5225 282.177 99.8448 280.704 102.335C273.356 114.767 273.088 127.866 279.928 140.218C280.178 140.669 280.014 141.237 279.564 141.486C279.42 141.565 279.266 141.604 279.112 141.604Z" fill="#8E5242"/>
<path d="M313.219 126.426C312.99 126.426 312.761 126.342 312.581 126.172C312.205 125.82 312.186 125.229 312.539 124.853C317.796 119.255 323.233 113.465 326.387 106.363C330.32 97.5125 330.341 87.1952 330.359 78.0925C330.366 74.3488 330.529 70.4313 330.686 66.6419C331.082 57.1294 331.491 47.2923 329.614 38.3259C329.509 37.8219 329.832 37.3271 330.336 37.2219C330.84 37.1167 331.336 37.4396 331.441 37.9436C333.366 47.1377 332.952 57.0928 332.551 66.7196C332.395 70.4898 332.232 74.3899 332.225 78.0961C332.206 87.3836 332.185 97.9104 328.093 107.121C324.811 114.511 319.264 120.418 313.9 126.131C313.716 126.327 313.468 126.426 313.219 126.426Z" fill="#8E5242"/>
<path d="M289.727 50.8799C289.704 50.8799 289.683 50.879 289.66 50.879C285.989 50.8607 282.159 49.1219 279.152 46.109C276.783 43.7355 274.875 40.6549 273.145 36.4146C270.694 30.4016 269.334 24.063 269.103 17.5735C269.086 17.0586 269.488 16.6268 270.003 16.6085C270.508 16.5884 270.951 16.9927 270.969 17.5076C271.191 23.7767 272.505 29.9013 274.873 35.7093C276.505 39.7128 278.285 42.5986 280.473 44.791C283.135 47.4572 286.487 48.9966 289.67 49.0131C289.688 49.0131 289.707 49.0131 289.725 49.0131C293.382 49.0131 296.856 47.128 300.389 45.027C300.832 44.7636 301.404 44.909 301.668 45.3526C301.931 45.7953 301.786 46.3679 301.343 46.6313C297.577 48.8704 293.855 50.8799 289.727 50.8799Z" fill="#8E5242"/>
<path d="M260.341 41.2773C260.148 41.2773 259.952 41.217 259.784 41.0917C257.186 39.1553 253.979 38.0925 250.738 38.0925C250.689 38.0925 250.631 38.0925 250.591 38.0934C250.08 38.0934 249.663 37.6818 249.658 37.1687C249.654 36.6538 250.067 36.2321 250.583 36.2275C254.285 36.1973 257.94 37.3891 260.899 39.5953C261.313 39.9035 261.398 40.488 261.09 40.9014C260.907 41.1475 260.626 41.2773 260.341 41.2773Z" fill="#6C352A"/>
<path d="M283.809 46.1396C283.619 46.1396 283.428 46.082 283.263 45.9622C279.842 43.4844 275.236 42.8021 271.242 44.1814C270.755 44.3497 270.224 44.0917 270.055 43.6042C269.888 43.1176 270.145 42.5862 270.633 42.4179C275.192 40.8429 280.451 41.6212 284.357 44.4503C284.775 44.753 284.868 45.3357 284.566 45.7537C284.383 46.0052 284.099 46.1396 283.809 46.1396Z" fill="#6C352A"/>
<path d="M268.432 91.6758C267.904 91.6758 267.377 91.6639 266.851 91.641C266.336 91.6191 265.937 91.1828 265.96 90.6678C265.982 90.1666 266.394 89.776 266.891 89.776C266.905 89.776 266.918 89.776 266.932 89.7769C271.544 89.9791 276.265 89.2446 280.594 87.6531C281.076 87.4748 281.613 87.7226 281.791 88.2065C281.969 88.6903 281.721 89.2272 281.237 89.4047C277.173 90.8983 272.777 91.6758 268.432 91.6758Z" fill="#CA7149"/>
<path d="M264.102 76.0547C261.166 76.0547 258.225 75.4638 255.532 74.3068C255.058 74.1028 254.84 73.554 255.043 73.0811C255.246 72.6073 255.795 72.3887 256.268 72.5918C259.939 74.1687 264.114 74.5958 268.027 73.7946C268.534 73.6894 269.025 74.0168 269.128 74.5217C269.232 75.0266 268.907 75.5196 268.402 75.623C266.99 75.912 265.547 76.0547 264.102 76.0547Z" fill="#CA7149"/>
<path d="M298.164 63.375C297.982 63.375 297.797 63.3219 297.636 63.2104C297.212 62.9186 297.104 62.3378 297.395 61.9124L300.375 57.5788C300.667 57.1535 301.248 57.0456 301.673 57.3383C302.098 57.63 302.206 58.2108 301.914 58.6352L298.934 62.9707C298.753 63.2332 298.461 63.375 298.164 63.375Z" fill="#CA7149"/>
<path d="M260.724 63.6611C259.725 63.6611 258.688 63.5605 257.693 63.1572C256.116 62.5178 254.652 60.8696 254.902 58.9543C255.038 57.9226 255.63 57.0975 256.107 56.4353L260.153 50.812C260.454 50.3931 261.038 50.298 261.456 50.5989C261.874 50.8998 261.969 51.4834 261.668 51.9014L257.622 57.5256C257.249 58.0433 256.828 58.6305 256.753 59.1967C256.626 60.1626 257.503 61.0672 258.393 61.4275C259.523 61.8849 260.916 61.8108 262.144 61.7431C262.656 61.7166 263.098 62.1099 263.126 62.6248C263.153 63.1398 262.759 63.5797 262.244 63.6072C261.756 63.6337 261.245 63.6611 260.724 63.6611Z" fill="#CA7149"/>
<path d="M269.536 112.286C269.204 112.286 268.882 112.108 268.713 111.795C266.922 108.466 265.717 104.884 265.131 101.149C265.052 100.64 265.4 100.162 265.909 100.083C266.416 100.005 266.896 100.351 266.975 100.86C267.529 104.386 268.666 107.768 270.357 110.91C270.601 111.364 270.431 111.93 269.977 112.175C269.836 112.25 269.686 112.286 269.536 112.286Z" fill="#CA7149"/>
<path d="M198.564 124.326C198.238 124.326 197.922 124.155 197.75 123.851L196.209 121.122C195.955 120.673 196.114 120.104 196.562 119.851C197.012 119.597 197.58 119.755 197.834 120.204L199.375 122.934C199.629 123.383 199.47 123.952 199.022 124.205C198.877 124.288 198.719 124.326 198.564 124.326Z" fill="#CA7149"/>
<path d="M149.527 81.4941C149.419 81.4941 149.309 81.4749 149.202 81.4347C143.533 79.3218 137.859 76.9913 132.338 74.5089C131.868 74.2976 131.658 73.7452 131.87 73.275C132.081 72.8049 132.634 72.5954 133.104 72.8067C138.587 75.2726 144.222 77.5867 149.853 79.6859C150.336 79.866 150.582 80.4039 150.402 80.8868C150.262 81.2618 149.906 81.4941 149.527 81.4941Z" fill="#CA7149"/>
<path d="M155.615 99.3604C154.389 99.3604 153.164 99.0969 152.047 98.5737C151.58 98.356 151.379 97.8008 151.597 97.3335C151.815 96.867 152.371 96.6648 152.837 96.8834C154.379 97.6042 156.184 97.692 157.788 97.1249C158.274 96.9539 158.808 97.2082 158.98 97.6938C159.151 98.1804 158.896 98.7128 158.411 98.8847C157.511 99.203 156.562 99.3604 155.615 99.3604Z" fill="#CA7149"/>
<path d="M144.795 78.6855C144.599 78.6855 144.402 78.6243 144.233 78.4962C143.186 77.7041 142.298 76.6779 141.664 75.5281C141.415 75.0772 141.579 74.5092 142.031 74.2604C142.482 74.0116 143.05 74.1754 143.298 74.6272C143.807 75.5492 144.52 76.3733 145.359 77.0081C145.77 77.319 145.851 77.9044 145.54 78.3151C145.357 78.5584 145.078 78.6855 144.795 78.6855Z" fill="#CA7149"/>
<path d="M129.527 87.2949C129.311 87.2949 129.093 87.2199 128.917 87.0672C126.365 84.8638 124.057 82.3686 122.059 79.653C121.753 79.2377 121.842 78.6542 122.258 78.3487C122.672 78.0432 123.257 78.1319 123.562 78.5471C125.479 81.1512 127.69 83.5421 130.137 85.6549C130.527 85.9915 130.57 86.5815 130.234 86.9712C130.049 87.1852 129.788 87.2949 129.527 87.2949Z" fill="#CA7149"/>
<path d="M127.859 91.9463C127.686 91.9463 127.511 91.8978 127.355 91.7972C124.9 90.2176 122.845 88.0389 121.411 85.4952C121.157 85.0461 121.316 84.4772 121.765 84.2238C122.215 83.9714 122.783 84.1296 123.037 84.5787C124.322 86.859 126.164 88.8118 128.365 90.2276C128.798 90.5066 128.924 91.0847 128.645 91.5173C128.466 91.7945 128.166 91.9463 127.859 91.9463Z" fill="#CA7149"/>
<path d="M131.788 82.7598C131.656 82.7598 131.521 82.7314 131.393 82.672C129.044 81.5735 127.082 79.7066 125.871 77.4145C125.629 76.959 125.803 76.3947 126.258 76.1532C126.717 75.9135 127.279 76.0873 127.52 76.5419C128.544 78.4773 130.201 80.0533 132.184 80.9808C132.651 81.1984 132.852 81.7545 132.634 82.221C132.476 82.5604 132.14 82.7598 131.788 82.7598Z" fill="#CA7149"/>
<path d="M201.335 136.92C201.142 136.92 200.948 136.86 200.78 136.736L193.516 131.34C193.103 131.032 193.017 130.448 193.324 130.034C193.631 129.62 194.215 129.534 194.629 129.841L201.893 135.238C202.307 135.545 202.394 136.13 202.086 136.543C201.902 136.79 201.622 136.92 201.335 136.92Z" fill="#CA7149"/>
<path d="M200.663 128.283C200.481 128.283 200.297 128.23 200.136 128.119C197.249 126.139 194.255 124.232 191.238 122.452C190.795 122.19 190.647 121.618 190.909 121.174C191.171 120.73 191.743 120.583 192.187 120.844C195.24 122.646 198.269 124.576 201.191 126.58C201.616 126.872 201.724 127.453 201.433 127.878C201.252 128.141 200.96 128.283 200.663 128.283Z" fill="#CA7149"/>
<path d="M268.514 190.818C268.237 190.818 267.964 190.696 267.78 190.463C267.199 189.724 266.335 189.205 265.409 189.04C264.903 188.949 264.564 188.464 264.656 187.957C264.746 187.449 265.236 187.113 265.738 187.203C267.108 187.448 268.386 188.215 269.246 189.308C269.565 189.713 269.495 190.3 269.09 190.619C268.919 190.753 268.716 190.818 268.514 190.818Z" fill="#CA7149"/>
<path d="M231.06 140.9C231.009 140.9 230.956 140.897 230.904 140.888C230.395 140.802 230.053 140.321 230.138 139.812C231.199 133.515 233.129 127.398 235.877 121.633C236.098 121.168 236.654 120.97 237.12 121.192C237.585 121.414 237.783 121.971 237.561 122.436C234.889 128.045 233.011 133.995 231.979 140.122C231.902 140.578 231.507 140.9 231.06 140.9Z" fill="#7E2E31"/>
<path d="M209.009 131.902C208.602 131.902 208.227 131.633 208.112 131.222L203.798 115.916C203.658 115.42 203.947 114.904 204.444 114.765C204.939 114.626 205.455 114.914 205.594 115.41L209.908 130.716C210.048 131.212 209.759 131.728 209.262 131.868C209.178 131.891 209.093 131.902 209.009 131.902Z" fill="#7E2E31"/>
<path d="M272.582 178.781C272.306 178.781 272.032 178.659 271.848 178.425C271.695 178.23 271.494 178.029 271.282 177.817C270.644 177.182 269.46 176.001 270.482 174.654C273.203 171.077 276.393 167.88 279.965 165.155C280.374 164.842 280.96 164.921 281.273 165.33C281.585 165.74 281.507 166.325 281.097 166.638C277.66 169.261 274.589 172.338 271.971 175.781C272.057 175.955 272.392 176.29 272.599 176.496C272.841 176.738 273.092 176.988 273.315 177.271C273.633 177.676 273.564 178.263 273.159 178.582C272.988 178.716 272.784 178.781 272.582 178.781Z" fill="#7E2E31"/>
<path d="M298.749 206.299C297.451 206.299 296.124 205.721 295.544 204.46C295.329 203.992 295.534 203.438 296.002 203.222C296.47 203.009 297.024 203.212 297.24 203.68C297.58 204.419 298.726 204.6 299.542 204.298C300.539 203.93 301.342 203.059 302.214 202.042C309.35 193.724 316.067 184.809 322.564 176.188L324.055 177.311C317.541 185.956 310.805 194.895 303.631 203.258C302.825 204.197 301.721 205.483 300.189 206.049C299.743 206.214 299.248 206.299 298.749 206.299Z" fill="#7E2E31"/>
<path d="M298.521 200.733C298.307 200.733 298.092 200.66 297.916 200.511C296.449 199.264 294.79 198.113 293.185 197.002C290.594 195.205 287.914 193.348 285.836 190.959C282.349 186.949 279.033 182.289 275.7 176.714C275.435 176.271 275.579 175.698 276.022 175.433C276.465 175.17 277.037 175.314 277.302 175.756C280.578 181.237 283.83 185.809 287.244 189.734C289.169 191.947 291.636 193.657 294.249 195.467C295.89 196.606 297.588 197.782 299.126 199.09C299.518 199.424 299.565 200.013 299.232 200.405C299.048 200.622 298.784 200.733 298.521 200.733Z" fill="#7E2E31"/>
<path d="M319.77 127.882C319.467 127.882 319.17 127.735 318.991 127.463C318.707 127.033 318.825 126.454 319.254 126.17C322.378 124.107 326.394 123.478 329.999 124.488C330.495 124.627 330.785 125.142 330.646 125.638C330.507 126.135 329.993 126.426 329.495 126.285C326.405 125.419 322.962 125.958 320.283 127.727C320.125 127.832 319.947 127.882 319.77 127.882Z" fill="#7E2E31"/>
<path d="M286.409 264.233C270.861 264.233 255.448 261.744 243.379 259.069C242.875 258.958 242.557 258.459 242.669 257.956C242.78 257.453 243.277 257.132 243.782 257.247C262.949 261.493 290.614 265.277 313.57 259.187C314.071 259.053 314.58 259.353 314.712 259.851C314.844 260.348 314.547 260.859 314.049 260.991C305.262 263.322 295.811 264.233 286.409 264.233Z" fill="#7E2E31"/>
<path d="M272.645 134.176C272.631 134.176 272.617 134.176 272.604 134.175C265.953 133.887 259.775 128.613 257.578 121.349C255.812 115.511 256.376 108.752 259.252 101.258C259.437 100.777 259.977 100.537 260.458 100.721C260.939 100.906 261.179 101.446 260.994 101.927C258.27 109.025 257.722 115.377 259.365 120.809C261.305 127.223 266.906 132.06 272.684 132.311C273.198 132.333 273.598 132.768 273.576 133.283C273.554 133.784 273.141 134.176 272.645 134.176Z" fill="#7E2E31"/>
<path d="M194.418 269.688C191.755 269.688 189.1 269.388 186.491 268.539C186.205 268.447 185.981 268.221 185.89 267.935C178.321 244.133 170.495 219.521 171.124 193.929C171.171 191.982 171.27 190.008 171.366 188.099C171.56 184.22 171.761 180.208 171.535 176.292C171.243 171.25 170.236 166.175 169.26 161.266C168.337 156.622 167.382 151.819 167.018 146.998C166.11 134.961 169.859 124.671 177.047 119.472C177.465 119.171 178.049 119.265 178.35 119.682C178.652 120.1 178.558 120.683 178.141 120.985C171.482 125.8 168.019 135.473 168.879 146.857C169.234 151.567 170.177 156.313 171.09 160.902C172.078 165.874 173.1 171.014 173.398 176.184C173.63 180.201 173.427 184.263 173.229 188.193C173.135 190.09 173.036 192.052 172.989 193.975C172.372 219.09 180.046 243.396 187.522 266.906C192.819 268.49 198.273 267.728 204.037 266.922L204.629 266.839C205.142 266.77 205.611 267.124 205.682 267.635C205.753 268.145 205.397 268.617 204.886 268.688L204.296 268.77C201.04 269.225 197.723 269.688 194.418 269.688Z" fill="#8E5242"/>
<path d="M121.71 232.701C121.201 232.701 120.785 232.292 120.777 231.782C120.631 221.424 120.654 212.392 120.849 204.169C120.987 198.271 122.131 192.242 123.237 186.411C124.077 181.981 124.946 177.399 125.352 172.961C126.478 160.654 125.078 148.054 123.723 135.87C122.265 122.752 120.758 109.187 122.371 95.8655C122.433 95.3533 122.901 94.9892 123.41 95.0505C123.921 95.1127 124.286 95.5774 124.224 96.0896C122.637 109.196 124.132 122.651 125.578 135.663C126.943 147.941 128.354 160.635 127.211 173.13C126.797 177.659 125.92 182.285 125.071 186.759C123.979 192.516 122.85 198.468 122.714 204.212C122.521 212.413 122.498 221.422 122.643 231.755C122.651 232.27 122.239 232.694 121.724 232.701C121.719 232.701 121.715 232.701 121.71 232.701Z" fill="#8E5242"/>
<path d="M189.392 200.394C189.304 200.394 189.215 200.381 189.126 200.355C185.528 199.284 181.8 198.704 178.048 198.63C177.533 198.62 177.123 198.194 177.133 197.678C177.143 197.169 177.559 196.763 178.066 196.763C178.072 196.763 178.078 196.763 178.084 196.763C182.005 196.842 185.899 197.447 189.658 198.566C190.152 198.712 190.433 199.232 190.287 199.727C190.166 200.132 189.795 200.394 189.392 200.394Z" fill="#8E5242"/>
<path d="M187.746 206.649C187.671 206.649 187.594 206.64 187.518 206.621C185.03 205.998 182.478 205.515 179.935 205.187C179.424 205.12 179.062 204.653 179.129 204.141C179.195 203.63 179.661 203.27 180.174 203.336C182.789 203.674 185.413 204.17 187.972 204.811C188.471 204.936 188.775 205.442 188.651 205.942C188.544 206.367 188.164 206.649 187.746 206.649Z" fill="#8E5242"/>
<path d="M177.074 212.108C176.574 212.108 176.16 211.712 176.142 211.208C176.124 210.693 176.526 210.261 177.041 210.242C180.566 210.117 184.107 209.708 187.564 209.028C188.07 208.927 188.561 209.258 188.66 209.763C188.76 210.269 188.431 210.759 187.925 210.859C184.371 211.559 180.731 211.979 177.107 212.107C177.096 212.108 177.085 212.108 177.074 212.108Z" fill="#8E5242"/>
<path d="M178.422 219.822C177.989 219.822 177.601 219.52 177.509 219.08C177.404 218.576 177.728 218.082 178.232 217.976L187.489 216.037C187.992 215.934 188.488 216.255 188.594 216.76C188.699 217.264 188.375 217.758 187.871 217.864L178.614 219.802C178.55 219.816 178.486 219.822 178.422 219.822Z" fill="#8E5242"/>
<path d="M182.373 222.987C181.976 222.987 181.607 222.731 181.483 222.331C181.33 221.838 181.605 221.315 182.097 221.163C184.231 220.501 186.445 220.111 188.676 220.004C189.185 219.975 189.629 220.375 189.653 220.89C189.679 221.405 189.282 221.843 188.767 221.867C186.692 221.967 184.634 222.33 182.651 222.945C182.558 222.974 182.465 222.987 182.373 222.987Z" fill="#8E5242"/>
<path d="M191.382 215.037C191.367 215.037 191.353 215.036 191.338 215.036L182.012 214.602C181.497 214.578 181.1 214.142 181.123 213.627C181.148 213.112 181.587 212.722 182.099 212.738L191.425 213.171C191.94 213.195 192.337 213.632 192.314 214.147C192.29 214.647 191.878 215.037 191.382 215.037Z" fill="#8E5242"/>
<path d="M190.394 230.916C190.362 230.916 190.331 230.915 190.3 230.911C187.566 230.642 184.82 230.205 182.137 229.614C181.634 229.503 181.316 229.005 181.426 228.501C181.538 227.999 182.035 227.681 182.539 227.792C185.15 228.367 187.823 228.792 190.483 229.055C190.996 229.105 191.371 229.561 191.32 230.075C191.273 230.557 190.867 230.916 190.394 230.916Z" fill="#8E5242"/>
<path d="M189.06 236.978C188.991 236.978 188.922 236.97 188.853 236.955C186.837 236.498 184.935 235.696 183.201 234.57C182.769 234.289 182.645 233.711 182.926 233.28C183.207 232.847 183.785 232.723 184.217 233.005C185.766 234.01 187.464 234.727 189.265 235.134C189.768 235.248 190.083 235.747 189.969 236.25C189.871 236.683 189.486 236.978 189.06 236.978Z" fill="#8E5242"/>
<path d="M121.189 190.432C121.179 190.432 121.171 190.432 121.162 190.432C118.995 190.371 117.666 188.258 117.028 187.243L114.683 183.517C114.408 183.081 114.539 182.504 114.975 182.23C115.412 181.955 115.988 182.086 116.262 182.523L118.607 186.249C119.318 187.379 120.183 188.537 121.213 188.566C121.729 188.58 122.135 189.009 122.121 189.524C122.107 190.031 121.692 190.432 121.189 190.432Z" fill="#8E5242"/>
<path d="M122.534 181.431C122.386 181.431 122.236 181.396 122.095 181.321L118.419 179.356C117.965 179.113 117.793 178.548 118.036 178.093C118.279 177.639 118.845 177.467 119.299 177.71L122.975 179.675C123.43 179.917 123.602 180.483 123.358 180.938C123.19 181.252 122.868 181.431 122.534 181.431Z" fill="#8E5242"/>
<path d="M117.905 196.07C117.633 196.07 117.363 195.952 117.179 195.725C116.714 195.15 115.863 194.892 115.157 195.114C114.666 195.269 114.142 194.993 113.988 194.501C113.834 194.009 114.109 193.485 114.601 193.332C116.031 192.885 117.687 193.387 118.63 194.55C118.954 194.951 118.891 195.538 118.492 195.863C118.319 196.003 118.11 196.07 117.905 196.07Z" fill="#8E5242"/>
<path d="M121.88 186.418C121.685 186.418 121.489 186.358 121.322 186.232L117.913 183.68C117.501 183.372 117.417 182.787 117.725 182.374C118.034 181.962 118.618 181.878 119.031 182.186L122.441 184.738C122.853 185.047 122.936 185.631 122.628 186.045C122.444 186.289 122.165 186.418 121.88 186.418Z" fill="#8E5242"/>
<path d="M123.183 173.45C123.166 173.45 123.148 173.45 123.13 173.449L118.469 173.189C117.954 173.159 117.561 172.719 117.589 172.204C117.619 171.69 118.059 171.304 118.574 171.325L123.235 171.585C123.749 171.614 124.143 172.054 124.115 172.569C124.086 173.066 123.675 173.45 123.183 173.45Z" fill="#8E5242"/>
<path d="M119.484 168.066C119.111 168.066 118.758 167.84 118.614 167.472C118.426 166.992 118.664 166.451 119.144 166.264C120.554 165.713 122.097 165.501 123.601 165.643C124.114 165.693 124.49 166.148 124.44 166.661C124.391 167.175 123.934 167.55 123.422 167.501C122.209 167.386 120.962 167.558 119.822 168.001C119.711 168.045 119.596 168.066 119.484 168.066Z" fill="#8E5242"/>
<path d="M122.238 164.113C122.011 164.113 121.782 164.03 121.603 163.864C120.344 162.693 119.39 161.214 118.845 159.584C118.682 159.095 118.946 158.566 119.434 158.402C119.922 158.241 120.452 158.503 120.616 158.991C121.062 160.327 121.843 161.539 122.873 162.496C123.251 162.847 123.272 163.437 122.922 163.815C122.738 164.013 122.488 164.113 122.238 164.113Z" fill="#8E5242"/>
<path d="M194.054 265.338C192.128 265.338 190.249 265.112 188.436 264.483C187.949 264.313 187.692 263.782 187.86 263.295C188.029 262.807 188.563 262.55 189.048 262.719C192.382 263.877 195.991 263.506 200.022 262.943C205.646 262.157 211.325 261.243 216.903 260.223C217.411 260.13 217.896 260.467 217.989 260.974C218.081 261.481 217.745 261.966 217.238 262.059C211.635 263.084 205.929 264.002 200.281 264.792C198.168 265.086 196.085 265.338 194.054 265.338Z" fill="#8E5242"/>
<path d="M166.809 120.745C163.824 120.745 160.84 120.539 157.884 120.13C155.981 119.865 153.756 119.475 151.676 118.58C147.223 116.666 143.507 112.366 141.483 106.784C139.691 101.844 139.293 96.5963 138.908 91.5209C138.869 91.0077 139.255 90.5595 139.769 90.5202C140.286 90.4827 140.731 90.866 140.769 91.38C141.144 96.3301 141.532 101.448 143.237 106.147C145.086 111.246 148.431 115.154 152.413 116.866C154.289 117.673 156.361 118.034 158.14 118.28C163.053 118.962 168.046 119.062 172.983 118.576C173.491 118.53 173.952 118.9 174.002 119.413C174.053 119.926 173.678 120.383 173.165 120.433C171.054 120.642 168.931 120.745 166.809 120.745Z" fill="#8E5242"/>
<path d="M118.521 229.771C118.508 229.771 118.495 229.771 118.483 229.77C116.063 229.672 113.739 228.728 111.937 227.11C111.553 226.766 111.521 226.176 111.866 225.793C112.21 225.409 112.799 225.377 113.183 225.721C114.642 227.03 116.6 227.826 118.559 227.906C119.074 227.926 119.474 228.36 119.453 228.875C119.433 229.377 119.019 229.771 118.521 229.771Z" fill="#8E5242"/>
<path d="M180.423 283.299C175.086 283.299 169.527 282.881 163.76 282.044C156.797 281.035 149.628 279.408 142.454 277.207C141.669 276.968 140.854 276.74 139.99 276.499C137.383 275.772 134.688 275.02 132.429 273.795C129.238 272.062 126.452 269.69 123.758 267.395C123.249 266.961 122.74 266.529 122.231 266.101C121.836 265.769 121.785 265.18 122.116 264.786C122.448 264.39 123.035 264.339 123.43 264.67C123.944 265.101 124.455 265.537 124.969 265.974C127.589 268.207 130.3 270.515 133.319 272.154C135.393 273.28 137.984 274.002 140.491 274.701C141.367 274.945 142.194 275.176 143.001 275.424C150.084 277.595 157.158 279.201 164.028 280.198C179.892 282.498 194.144 281.579 206.387 277.468C206.877 277.304 207.405 277.567 207.569 278.056C207.733 278.544 207.47 279.073 206.981 279.238C198.929 281.942 190.038 283.299 180.423 283.299Z" fill="#8E5242"/>
<path d="M128.87 264.28C128.365 264.28 127.95 263.878 127.937 263.371L127.078 229.36C126.947 224.147 126.811 218.756 127.115 213.443C127.531 206.169 128.784 198.872 129.995 191.815C131.54 182.817 133.137 173.512 132.976 164.292C132.846 156.806 131.401 149.406 130.005 142.249C129.68 140.587 129.355 138.923 129.045 137.253C127.23 127.491 125.091 112.956 127.447 99.4817C127.535 98.9732 128.022 98.6366 128.527 98.7226C129.034 98.8113 129.374 99.2951 129.285 99.8027C126.982 112.98 129.092 127.292 130.879 136.911C131.189 138.576 131.513 140.235 131.836 141.892C133.249 149.128 134.71 156.609 134.842 164.259C135.006 173.655 133.394 183.048 131.835 192.131C130.632 199.137 129.389 206.381 128.977 213.55C128.677 218.786 128.813 224.138 128.944 229.312L129.802 263.323C129.816 263.839 129.408 264.267 128.893 264.28C128.885 264.28 128.878 264.28 128.87 264.28Z" fill="#8E5242"/>
<path d="M137.393 266.596C136.951 266.596 136.559 266.281 136.477 265.831C132.567 244.524 131.875 226.122 134.363 209.572C135.012 205.256 135.902 200.903 136.764 196.694C138.51 188.167 140.315 179.351 140.135 170.582C139.986 163.301 138.466 155.994 136.995 148.928C136.295 145.559 135.57 142.077 134.999 138.624C132.608 124.194 132.708 109.579 135.296 95.1832C135.387 94.6765 135.871 94.3389 136.379 94.4304C136.887 94.521 137.224 95.0066 137.133 95.5134C134.583 109.699 134.484 124.1 136.84 138.319C137.405 141.734 138.126 145.198 138.823 148.547C140.31 155.697 141.849 163.091 142.001 170.545C142.185 179.521 140.359 188.442 138.593 197.068C137.735 201.253 136.85 205.582 136.209 209.85C133.752 226.192 134.44 244.393 138.313 265.493C138.405 266.001 138.069 266.487 137.562 266.58C137.506 266.591 137.449 266.596 137.393 266.596Z" fill="#8E5242"/>
<path d="M145.201 273.838C144.751 273.838 144.355 273.511 144.281 273.053C141.694 256.97 139.019 240.339 140.01 223.718C140.48 215.857 141.78 207.912 143.039 200.23C145.199 187.043 147.432 173.406 145.399 160.121C144.754 155.912 143.669 151.694 142.62 147.615C141.86 144.656 141.073 141.596 140.453 138.543C138.602 129.425 138.756 122.304 140.94 116.135C141.112 115.648 141.645 115.394 142.131 115.566C142.617 115.738 142.87 116.271 142.699 116.757C140.633 122.594 140.501 129.399 142.282 138.172C142.892 141.178 143.673 144.214 144.428 147.149C145.488 151.274 146.584 155.538 147.243 159.838C149.322 173.417 147.064 187.2 144.88 200.532C143.63 208.167 142.337 216.063 141.874 223.83C140.895 240.245 143.553 256.773 146.124 272.756C146.205 273.265 145.86 273.744 145.351 273.826C145.301 273.834 145.25 273.838 145.201 273.838Z" fill="#8E5242"/>
<path d="M152.919 274.991C152.491 274.991 152.105 274.695 152.009 274.259C149.113 261.172 146.144 245.676 146.073 229.985C146.028 220.223 147.103 210.353 148.142 200.808C149.445 188.841 150.792 176.468 149.913 164.323C149.519 158.88 148.667 153.359 147.844 148.019C146.547 139.608 145.205 130.91 145.598 122.235C145.622 121.72 146.058 121.323 146.573 121.345C147.088 121.369 147.486 121.805 147.463 122.32C147.078 130.809 148.405 139.413 149.688 147.735C150.518 153.111 151.375 158.67 151.775 164.189C152.667 176.502 151.31 188.961 149.998 201.01C148.964 210.503 147.895 220.32 147.939 229.977C148.009 245.492 150.957 260.864 153.832 273.856C153.942 274.36 153.625 274.858 153.122 274.969C153.054 274.984 152.986 274.991 152.919 274.991Z" fill="#8E5242"/>
<path d="M161.469 278.402C161.064 278.402 160.69 278.136 160.572 277.727C153.028 251.512 151.14 223.39 155.11 196.402C155.24 195.521 155.375 194.641 155.512 193.759C156.179 189.425 156.871 184.943 156.769 180.538C156.681 176.684 155.983 172.78 155.308 169.006C155.16 168.182 155.013 167.36 154.871 166.536C152.552 153.035 151.775 139.253 152.562 125.576C152.591 125.061 153.027 124.665 153.547 124.698C154.061 124.727 154.454 125.168 154.425 125.683C153.646 139.22 154.415 152.858 156.712 166.22C156.852 167.039 156.998 167.859 157.144 168.677C157.832 172.521 158.543 176.497 158.635 180.495C158.74 185.065 158.037 189.629 157.356 194.043C157.221 194.921 157.086 195.798 156.957 196.674C153.025 223.401 154.895 251.25 162.366 277.211C162.509 277.706 162.223 278.224 161.728 278.366C161.642 278.391 161.555 278.402 161.469 278.402Z" fill="#8E5242"/>
<path d="M170.308 276.531C169.92 276.531 169.558 276.288 169.425 275.9C161.713 253.407 162.379 229.028 163.832 203.944L163.866 203.364C164.126 198.89 164.394 194.265 164.295 189.731C164.13 182.181 162.948 174.453 161.804 166.977C159.774 153.703 157.675 139.975 161.22 126.82C161.353 126.322 161.864 126.028 162.364 126.162C162.861 126.296 163.156 126.808 163.022 127.306C159.578 140.082 161.648 153.611 163.649 166.695C164.802 174.229 165.993 182.02 166.161 189.69C166.261 194.299 165.991 198.962 165.729 203.472L165.695 204.052C164.253 228.943 163.588 253.121 171.191 275.295C171.358 275.782 171.098 276.313 170.611 276.48C170.511 276.515 170.409 276.531 170.308 276.531Z" fill="#8E5242"/>
<path d="M179.884 278.997C179.483 278.997 179.112 278.737 178.991 278.333C173.646 260.634 170.617 242.29 169.988 223.809C169.97 223.295 170.374 222.862 170.889 222.845C171.399 222.825 171.835 223.231 171.853 223.746C172.478 242.065 175.479 260.249 180.777 277.794C180.926 278.287 180.647 278.808 180.154 278.957C180.065 278.983 179.973 278.997 179.884 278.997Z" fill="#8E5242"/>
<path d="M187.113 276.93C186.685 276.93 186.299 276.633 186.203 276.198C185.875 274.707 185.731 273.18 185.777 271.658C185.791 271.142 186.231 270.742 186.737 270.752C187.252 270.768 187.657 271.198 187.642 271.713C187.601 273.082 187.731 274.455 188.026 275.796C188.137 276.299 187.818 276.797 187.315 276.908C187.248 276.923 187.18 276.93 187.113 276.93Z" fill="#8E5242"/>
<path d="M194.952 276.63C194.521 276.63 194.133 276.329 194.04 275.89L193.405 272.889C193.298 272.385 193.62 271.889 194.124 271.783C194.63 271.676 195.124 271.999 195.231 272.503L195.867 275.503C195.973 276.007 195.651 276.503 195.147 276.609C195.081 276.623 195.016 276.63 194.952 276.63Z" fill="#8E5242"/>
<path d="M203.371 274.607C203.028 274.607 202.698 274.417 202.534 274.09C202.153 273.321 201.997 272.429 202.097 271.579C202.156 271.067 202.615 270.699 203.131 270.76C203.644 270.82 204.009 271.283 203.95 271.795C203.892 272.292 203.983 272.811 204.206 273.259C204.436 273.72 204.246 274.281 203.785 274.51C203.652 274.576 203.51 274.607 203.371 274.607Z" fill="#8E5242"/>
<path d="M178.465 191.151C177.965 191.151 177.551 190.756 177.533 190.253C177.416 187.228 177.494 184.164 177.57 181.201C177.656 177.781 177.746 174.244 177.534 170.793C177.266 166.422 176.505 162.004 175.769 157.732C175.293 154.975 174.801 152.123 174.443 149.292C173.29 140.198 173.904 133.227 176.373 127.355C176.573 126.88 177.119 126.658 177.595 126.856C178.07 127.056 178.294 127.604 178.093 128.078C175.757 133.636 175.185 140.302 176.294 149.057C176.648 151.847 177.136 154.678 177.608 157.416C178.353 161.737 179.123 166.206 179.397 170.679C179.613 174.211 179.523 177.788 179.435 181.248C179.361 184.182 179.284 187.216 179.397 190.182C179.417 190.697 179.015 191.131 178.5 191.15C178.488 191.151 178.476 191.151 178.465 191.151Z" fill="#8E5242"/>
<path d="M191.354 260.32C190.972 260.32 190.612 260.083 190.476 259.703C188.272 253.569 186.252 247.281 184.469 241.011C184.328 240.515 184.617 239.999 185.112 239.858C185.609 239.718 186.124 240.005 186.265 240.5C188.036 246.73 190.043 252.977 192.232 259.072C192.407 259.556 192.155 260.091 191.67 260.265C191.565 260.303 191.459 260.32 191.354 260.32Z" fill="#8E5242"/>
<path d="M185.285 192.461C184.821 192.461 184.419 192.115 184.36 191.642C183.059 181.135 182.684 170.445 183.244 159.869C183.272 159.353 183.713 158.954 184.226 158.986C184.74 159.014 185.136 159.453 185.108 159.967C184.553 170.434 184.924 181.014 186.212 191.413C186.275 191.925 185.912 192.391 185.401 192.454C185.362 192.458 185.323 192.461 185.285 192.461Z" fill="#8E5242"/>
<path d="M202.013 259.635C201.63 259.635 201.271 259.396 201.134 259.014C197.033 247.487 196.296 235.19 195.583 223.297C195.339 219.221 195.087 215.007 194.702 210.907C194.332 206.973 193.55 203.023 192.794 199.204C192.05 195.452 191.282 191.571 190.901 187.693C189.976 178.27 189.951 169.099 190.031 162.163C190.038 161.651 190.454 161.241 190.964 161.241C190.968 161.241 190.972 161.241 190.976 161.241C191.491 161.247 191.904 161.67 191.898 162.185C191.818 169.074 191.842 178.177 192.759 187.51C193.13 191.298 193.89 195.133 194.624 198.842C195.389 202.707 196.181 206.704 196.559 210.733C196.948 214.863 197.201 219.095 197.447 223.186C198.151 234.948 198.88 247.111 202.892 258.388C203.065 258.874 202.812 259.408 202.326 259.58C202.223 259.618 202.118 259.635 202.013 259.635Z" fill="#8E5242"/>
<path d="M198.031 259.646C197.684 259.646 197.35 259.451 197.19 259.117C194.721 253.978 193.173 248.497 192.589 242.826C192.536 242.313 192.909 241.855 193.421 241.801C193.928 241.754 194.393 242.121 194.446 242.635C195.007 248.091 196.496 253.365 198.872 258.308C199.095 258.773 198.899 259.331 198.435 259.554C198.305 259.616 198.167 259.646 198.031 259.646Z" fill="#8E5242"/>
<path d="M208.88 257.003C208.434 257.003 208.038 256.681 207.962 256.225L202.462 223.529C199.338 204.962 196.108 185.761 196.512 166.541C196.523 166.026 196.955 165.628 197.465 165.629C197.98 165.64 198.389 166.066 198.379 166.582C197.977 185.624 201.192 204.737 204.302 223.22L209.802 255.915C209.887 256.424 209.545 256.905 209.036 256.99C208.984 256.999 208.932 257.003 208.88 257.003Z" fill="#8E5242"/>
<path d="M215.748 252.783C215.746 252.783 215.744 252.783 215.741 252.783C215.226 252.779 214.812 252.358 214.815 251.842C214.913 239.294 211.812 226.708 208.813 214.538C205.251 200.08 201.567 185.13 203.209 170.113C203.265 169.601 203.72 169.229 204.238 169.287C204.75 169.343 205.121 169.804 205.064 170.316C203.458 185.003 207.102 199.791 210.625 214.091C213.652 226.373 216.781 239.074 216.681 251.857C216.677 252.37 216.26 252.783 215.748 252.783Z" fill="#8E5242"/>
<path d="M115.564 223.38C115.108 223.38 114.709 223.044 114.642 222.579C113.543 214.925 113.297 207.134 113.909 199.422C113.95 198.908 114.396 198.522 114.913 198.566C115.427 198.606 115.81 199.056 115.769 199.569C115.167 207.144 115.41 214.796 116.49 222.314C116.563 222.824 116.209 223.297 115.698 223.37C115.654 223.376 115.608 223.38 115.564 223.38Z" fill="#8E5242"/>
<path d="M120.615 154.844C120.146 154.844 119.742 154.491 119.689 154.013C119.044 148.188 119.156 142.295 120.02 136.499C120.096 135.989 120.569 135.636 121.081 135.714C121.591 135.79 121.943 136.264 121.866 136.775C121.025 142.411 120.917 148.142 121.545 153.807C121.601 154.32 121.232 154.782 120.72 154.838C120.685 154.842 120.65 154.844 120.615 154.844Z" fill="#8E5242"/>
<path d="M179.261 118.576C179.221 118.576 179.183 118.574 179.144 118.569C177.501 118.363 175.715 118.198 173.824 118.024C167.128 117.407 159.537 116.708 154.187 113.769C148.055 110.401 143.966 104.618 142.672 97.4842C142.579 96.9774 142.916 96.4917 143.422 96.3994C143.933 96.3079 144.416 96.6436 144.507 97.1512C145.699 103.72 149.456 109.041 155.085 112.133C160.095 114.885 167.48 115.565 173.996 116.166C175.902 116.342 177.703 116.507 179.376 116.718C179.887 116.782 180.249 117.248 180.185 117.759C180.126 118.231 179.724 118.576 179.261 118.576Z" fill="#B53F3A"/>
<path d="M118.536 233.575C116.809 233.575 115.065 232.973 113.727 231.889C113.326 231.564 113.265 230.977 113.589 230.576C113.914 230.174 114.502 230.114 114.902 230.439C116.094 231.405 117.712 231.866 119.233 231.664C119.743 231.6 120.212 231.958 120.279 232.468C120.345 232.98 119.986 233.448 119.474 233.515C119.164 233.555 118.85 233.575 118.536 233.575Z" fill="#B53F3A"/>
<path d="M196.236 267.718C194.358 267.718 192.484 267.63 190.623 267.452C190.11 267.402 189.734 266.947 189.784 266.434C189.832 265.921 190.29 265.543 190.802 265.594C198.67 266.349 206.804 265.444 214.318 262.98C214.809 262.821 215.335 263.086 215.495 263.576C215.655 264.066 215.389 264.593 214.898 264.753C208.919 266.714 202.559 267.718 196.236 267.718Z" fill="#B53F3A"/>
<path d="M293.543 47.0537C293.423 47.0537 293.302 47.0308 293.184 46.9814C282.071 42.3469 275.594 23.868 274.12 13.3092C274.05 12.7998 274.405 12.3278 274.916 12.2564C275.43 12.1833 275.897 12.5418 275.969 13.0522C277.489 23.954 284.059 41.1533 293.902 45.2592C294.378 45.4576 294.603 46.0037 294.405 46.4793C294.256 46.8378 293.908 47.0537 293.543 47.0537Z" fill="#6C352A"/>
<path d="M297.231 43.3867C296.862 43.3867 296.512 43.1654 296.365 42.8004C291.801 31.4321 285.975 20.544 279.048 10.4389C278.757 10.0145 278.865 9.43367 279.29 9.14189C279.716 8.85103 280.297 8.95897 280.588 9.38429C287.592 19.601 293.482 30.6108 298.098 42.1053C298.29 42.5836 298.057 43.127 297.579 43.319C297.465 43.3648 297.348 43.3867 297.231 43.3867Z" fill="#6C352A"/>
<path d="M309.401 48.7559C308.993 48.7559 308.619 48.487 308.502 48.0754C304.193 32.7164 295.202 18.4788 283.188 7.98495C282.801 7.64653 282.76 7.05656 283.1 6.66874C283.439 6.28093 284.028 6.24068 284.417 6.58002C296.701 17.309 305.892 31.8667 310.3 47.5705C310.439 48.0671 310.15 48.5821 309.653 48.7211C309.569 48.7449 309.484 48.7559 309.401 48.7559Z" fill="#6C352A"/>
<path d="M316.49 43.0742C316.04 43.0742 315.644 42.7477 315.57 42.2895C313.379 28.6894 305.043 16.2985 293.272 9.14496C292.832 8.87696 292.692 8.30256 292.959 7.8626C293.226 7.42174 293.799 7.2818 294.241 7.5498C306.474 14.9841 315.136 27.8598 317.412 41.9922C317.494 42.5007 317.149 42.98 316.64 43.0623C316.59 43.0697 316.54 43.0742 316.49 43.0742Z" fill="#6C352A"/>
<path d="M290.301 137.696C290.194 137.696 290.085 137.678 289.979 137.639C289.496 137.46 289.248 136.924 289.426 136.44C293.109 126.439 298.445 116.929 303.605 107.732C310.988 94.5729 318.623 80.9664 321.247 66.0246C321.946 62.0495 322.335 57.7387 322.436 52.8471C322.651 42.602 321.446 34.6445 318.648 27.8055C315.191 19.3605 309.068 12.8802 301.85 10.0255C301.371 9.83617 301.135 9.29379 301.326 8.8145C301.515 8.33522 302.057 8.10016 302.537 8.28949C310.224 11.3298 316.727 18.1861 320.374 27.0994C323.275 34.1826 324.522 42.3761 324.303 52.8864C324.199 57.874 323.801 62.2772 323.085 66.3475C320.406 81.6021 312.692 95.3503 305.233 108.645C300.108 117.779 294.81 127.223 291.178 137.085C291.039 137.463 290.682 137.696 290.301 137.696Z" fill="#6C352A"/>
<path d="M288.472 127.895C288.349 127.895 288.224 127.87 288.103 127.818C287.63 127.614 287.411 127.065 287.615 126.592C291.105 118.489 295.324 110.638 300.155 103.256C300.668 102.472 301.187 101.693 301.708 100.914C302.868 99.1743 304.069 97.376 305.158 95.5613C312.359 83.5519 316.238 68.1509 316.686 49.7836C316.698 49.2686 317.115 48.8543 317.641 48.8735C318.157 48.8863 318.564 49.3135 318.551 49.8293C318.096 68.5222 314.128 84.2324 306.758 96.5208C305.646 98.3739 304.433 100.192 303.26 101.95C302.743 102.725 302.226 103.499 301.717 104.278C296.945 111.571 292.777 119.326 289.33 127.33C289.178 127.683 288.833 127.895 288.472 127.895Z" fill="#6C352A"/>
<path d="M298.294 129.955C298.185 129.955 298.075 129.936 297.967 129.896C297.484 129.715 297.239 129.178 297.42 128.695C299.589 122.896 303.299 117.857 306.889 112.984C308.649 110.593 310.47 108.119 312.074 105.601C322.582 89.0964 325.179 68.5358 327.469 50.3953C327.534 49.8831 327.999 49.5228 328.513 49.5859C329.024 49.6508 329.386 50.1173 329.321 50.6286C327.006 68.9638 324.382 89.7458 313.648 106.604C312.011 109.176 310.17 111.674 308.391 114.09C304.878 118.86 301.245 123.793 299.168 129.349C299.028 129.724 298.672 129.955 298.294 129.955Z" fill="#6C352A"/>
<path d="M286.152 153.048C285.938 153.048 285.722 152.974 285.546 152.824C285.154 152.49 285.107 151.901 285.442 151.508C288.569 147.844 291.942 144.311 295.205 140.894C298.766 137.164 302.448 133.307 305.795 129.292C313.381 120.191 317.857 111.694 319.477 103.317C319.575 102.811 320.065 102.48 320.57 102.578C321.076 102.676 321.407 103.165 321.309 103.672C319.628 112.366 315.022 121.137 307.228 130.487C303.842 134.551 300.137 138.431 296.554 142.183C293.31 145.581 289.954 149.096 286.862 152.72C286.678 152.936 286.415 153.048 286.152 153.048Z" fill="#6C352A"/>
<path d="M286.114 139.225C285.624 139.225 285.213 138.843 285.183 138.348C283.777 115.171 293.882 97.0086 304.58 77.7806L305.415 76.2787C305.665 75.8278 306.233 75.6668 306.684 75.9165C307.135 76.1671 307.297 76.7352 307.046 77.1861L306.211 78.6879C295.649 97.6708 285.673 115.602 287.046 138.235C287.078 138.75 286.686 139.192 286.171 139.223C286.152 139.224 286.133 139.225 286.114 139.225Z" fill="#6C352A"/>
<path d="M282.3 120.304C281.796 120.304 281.38 119.901 281.367 119.394C281.056 107.17 286.838 95.7305 293.133 85.1891C293.397 84.7473 293.97 84.6028 294.412 84.8671C294.854 85.1305 295 85.704 294.735 86.1458C288.585 96.4467 282.935 107.597 283.233 119.346C283.246 119.862 282.839 120.29 282.324 120.303C282.316 120.304 282.308 120.304 282.3 120.304Z" fill="#6C352A"/>
<path d="M308.791 74.3418C308.628 74.3418 308.464 74.2988 308.314 74.2101C307.871 73.9458 307.727 73.3732 307.99 72.9305C309.671 70.1106 310.513 66.752 310.363 63.4729C310.339 62.9579 310.737 62.5217 311.252 62.4979C311.76 62.4686 312.204 62.872 312.227 63.3869C312.394 67.0273 311.459 70.7554 309.593 73.8863C309.419 74.179 309.109 74.3418 308.791 74.3418Z" fill="#6C352A"/>
<path d="M297.461 81.3154C297.299 81.3154 297.134 81.2724 296.984 81.1828C296.541 80.9194 296.396 80.3468 296.66 79.9041L300.779 72.9939C301.042 72.5512 301.615 72.4057 302.058 72.6701C302.5 72.9335 302.646 73.5061 302.381 73.9488L298.264 80.859C298.089 81.1526 297.779 81.3154 297.461 81.3154Z" fill="#6C352A"/>
<path d="M305.353 51.7705C304.959 51.7705 304.592 51.519 304.465 51.1238L301.426 41.7166C301.268 41.2263 301.537 40.7004 302.028 40.5412C302.519 40.3821 303.045 40.6528 303.203 41.1431L306.241 50.5503C306.4 51.0406 306.13 51.5665 305.64 51.7248C305.545 51.7559 305.448 51.7705 305.353 51.7705Z" fill="#6C352A"/>
<path d="M328.775 43.0801C328.764 43.0801 328.752 43.0801 328.739 43.0801C328.224 43.06 327.822 42.6273 327.842 42.1124C327.949 39.2833 327.638 36.4616 326.916 33.7231C326.784 33.2246 327.082 32.7142 327.58 32.5835C328.08 32.4517 328.59 32.7499 328.721 33.2484C329.489 36.1643 329.821 39.1699 329.707 42.1828C329.688 42.6859 329.274 43.0801 328.775 43.0801Z" fill="#6C352A"/>
</svg>
