<svg width="444" height="281" viewBox="0 0 444 281" fill="none" xmlns="http://www.w3.org/2000/svg">
<ellipse cx="124" cy="156" rx="124" ry="125" fill="#3C4A3E"/>
<path d="M401.012 68.2829C399.024 58.4484 393.44 45.3548 383.632 41.3576C373.727 37.3225 366.065 45.6715 365.523 55.5141C364.928 66.2986 368.884 80.0676 377.762 86.8985C391.687 97.611 403.984 82.9761 401.012 68.2829Z" fill="#F0DDD1"/>
<path d="M421.034 67.7365C420.408 67.1439 419.724 66.5907 418.922 66.2741C407.08 61.5824 409.474 87.4285 417.405 91.3672C428.758 97.0034 426.124 72.5518 421.034 67.7365Z" fill="#F0DDD1"/>
<path d="M435.927 94.2584C432.816 95.0888 430.717 98.3615 432.453 102.236C436.615 111.522 449.25 100.874 441.454 95.3755C439.617 94.079 437.622 93.8071 435.927 94.2584Z" fill="#F0DDD1"/>
<path d="M340.147 47.2044C329.036 32.7245 313.703 21.6532 296.189 13.7609C277.43 5.30731 256.987 0.55722 236.409 0.0516357C203.267 -0.762466 160.816 7.9317 141.233 36.3941C122.028 64.3046 111.692 97.8514 121.815 131.474C127.65 150.855 140.257 168.296 157.379 179.09C162.837 182.53 168.695 185.289 174.635 187.805C225.944 209.543 303.893 225.826 340.5 171.753C358.875 144.611 363.933 110.256 355.609 78.6989C352.474 66.8081 347.149 56.3294 340.147 47.2044Z" fill="#F0DDD1"/>
<path d="M323.329 95.3356C323.28 93.9724 323.169 92.4625 322.185 91.5166C321.467 90.8261 320.437 90.5964 319.545 90.152C317.209 88.9873 316.171 86.2201 315.785 83.786C314.74 77.1807 315.212 70.4776 315.737 63.8493C316.029 60.1634 317.893 51.9925 313.946 49.5135C312.984 48.91 311.841 48.6844 310.726 48.471C308.738 48.0891 306.749 47.7072 304.761 47.3253C299.821 46.3766 298.618 48.6477 294.793 51.0166C292.187 52.6312 289.184 53.5649 286.197 54.1657C282.284 54.9539 278.214 55.2339 274.309 54.4075C270.406 53.5812 266.667 51.5711 264.242 48.4017C263.747 47.7547 263.285 47.0426 262.578 46.639C259.727 45.0094 252.669 47.5862 249.527 48.0932C247.559 48.4112 245.269 48.9684 244.502 50.8086C244.107 51.7587 244.233 52.8337 244.364 53.8544C245.747 64.6362 245.499 74.544 239.566 83.8797C237.934 86.4484 234.953 88.0454 234.699 91.2026C232.951 112.834 231.401 134.519 228.954 156.036C228.841 157.029 228.734 158.065 229.086 159C229.729 160.707 231.643 161.512 233.371 162.098C259.667 171.017 288.533 172.208 315.473 165.484C319.545 164.468 324.805 162.625 325.519 157.931C326.451 151.785 325.108 144.539 324.883 138.325C324.365 123.996 323.847 109.666 323.329 95.3356Z" fill="#B27C72"/>
<path d="M168.251 137.358C168.75 139.511 167.183 142.32 165.896 143.892C165.338 144.572 164.537 145.238 163.679 145.049C162.959 144.89 162.484 144.148 162.407 143.415C162.329 142.682 162.566 141.954 162.816 141.261C163.195 140.215 163.618 139.185 164.081 138.173C164.617 137.005 165.515 135.949 166.363 135.66C167.147 135.393 167.888 135.785 168.251 137.358ZM179.432 101.302C175.866 107.546 172.445 113.873 169.172 120.275C166.339 125.818 163.637 131.421 161.011 137.066C159.188 140.98 156.697 145.344 161.825 147.86C164.754 149.298 167.701 148.643 169.734 145.965C171.23 143.994 171.855 141.517 172.43 139.111C172.748 137.782 173.062 136.404 172.796 135.064C172.531 133.725 171.514 132.433 170.155 132.303C176.233 118.101 184.582 102.593 191.384 88.721C184.935 86.976 181.868 97.0374 179.432 101.302Z" fill="#8E5242"/>
<path d="M188.761 138.012C191.267 148.252 194.949 158.853 203.022 165.635C203.542 166.072 204.11 166.505 204.78 166.612C205.456 166.721 206.134 166.485 206.77 166.236C209.795 165.058 212.685 163.534 215.368 161.706C215.881 161.355 216.414 160.96 216.634 160.378C216.831 159.86 216.744 159.281 216.628 158.739C216.013 155.87 214.67 153.22 213.586 150.492C207.02 133.97 210.127 115.385 208.455 97.6828C208.188 94.8491 207.986 88.7644 205.074 87.3727C203.141 86.4499 200.268 87.881 198.569 88.71C194.156 90.8656 190.258 94.0962 186.529 97.2506C183.88 99.4891 181.261 102.082 179.8 105.283C178.142 108.92 181.106 111.85 182.507 115.306C185.467 122.603 186.896 130.394 188.761 138.012Z" fill="#B27C72"/>
<path d="M156.747 125.362C156.458 126.211 155.402 127.11 154.233 127.644C153.222 128.108 152.191 128.531 151.145 128.91C150.452 129.161 149.725 129.396 148.991 129.319C148.258 129.241 147.516 128.767 147.357 128.047C147.17 127.189 147.834 126.387 148.515 125.83C150.086 124.543 152.895 122.976 155.048 123.475C156.622 123.838 157.014 124.578 156.747 125.362ZM203.685 100.341C189.813 107.144 174.307 115.493 160.103 121.571C159.974 120.212 158.681 119.196 157.342 118.93C156.002 118.663 154.624 118.979 153.295 119.295C150.889 119.872 148.412 120.496 146.442 121.992C143.764 124.025 143.109 126.972 144.546 129.902C147.062 135.028 151.428 132.537 155.342 130.716C160.985 128.089 166.588 125.387 172.132 122.553C178.534 119.281 184.86 115.86 191.105 112.293C195.369 109.858 205.43 106.79 203.685 100.341Z" fill="#8E5242"/>
<path d="M194.503 123.988C194.244 123.988 193.982 123.916 193.748 123.764C193.106 123.345 192.925 122.486 193.343 121.845C194.961 119.361 198.03 117.878 200.985 118.152C201.747 118.223 202.307 118.9 202.237 119.662C202.165 120.425 201.489 120.985 200.727 120.913C198.772 120.732 196.738 121.714 195.667 123.359C195.4 123.767 194.956 123.988 194.503 123.988Z" fill="#8E5242"/>
<path d="M195.748 130.77C195.524 130.77 195.296 130.716 195.085 130.601C194.414 130.235 194.165 129.392 194.532 128.719C195.799 126.394 197.987 124.642 200.532 123.912C201.266 123.7 202.037 124.125 202.249 124.862C202.46 125.597 202.034 126.365 201.297 126.577C199.487 127.096 197.867 128.393 196.967 130.047C196.715 130.509 196.239 130.77 195.748 130.77Z" fill="#8E5242"/>
<path d="M196.307 137.111C195.82 137.111 195.35 136.856 195.096 136.403C194.721 135.736 194.959 134.891 195.626 134.515L202.575 130.612C203.244 130.238 204.089 130.475 204.463 131.143C204.839 131.811 204.601 132.656 203.934 133.031L196.984 136.933C196.769 137.054 196.536 137.111 196.307 137.111Z" fill="#8E5242"/>
<path d="M198.839 141.533C198.173 141.533 197.584 141.051 197.473 140.373C197.348 139.617 197.859 138.903 198.615 138.778C200.067 138.538 201.432 137.744 202.359 136.6C202.843 136.004 203.715 135.912 204.309 136.394C204.905 136.877 204.996 137.749 204.514 138.345C203.165 140.01 201.181 141.165 199.067 141.514C198.99 141.526 198.914 141.533 198.839 141.533Z" fill="#8E5242"/>
<path d="M236.931 93.7573C236.242 93.7573 235.645 93.2449 235.557 92.5423C235.462 91.7839 236 91.0894 236.76 90.9943C238.233 90.8094 239.727 89.926 241.328 88.2937C245.973 83.5518 247.676 77.1178 248.286 72.5553C249.081 66.5984 248.581 60.4429 248.095 54.4914C248.033 53.7276 248.601 53.059 249.364 52.9978C250.128 52.9367 250.796 53.5034 250.859 54.2672C251.356 60.3641 251.87 66.669 251.034 72.9236C250.37 77.9034 248.489 84.9489 243.308 90.2345C241.253 92.333 239.224 93.4814 237.105 93.7464C237.046 93.7532 236.989 93.7573 236.931 93.7573Z" fill="#8E5242"/>
<path d="M317.456 99.2856C317.145 99.2856 316.832 99.181 316.573 98.9676C315.969 98.4661 315.394 98.0081 314.855 97.5759C311.184 94.6416 308.531 92.5214 308.073 86.4598C307.263 75.7228 307.491 64.8582 308.752 54.1661C308.842 53.4064 309.528 52.8627 310.291 52.9524C311.052 53.0421 311.596 53.7312 311.506 54.491C310.266 65.0064 310.041 75.6916 310.839 86.2519C311.206 91.1093 313.004 92.5458 316.585 95.4095C317.138 95.8512 317.724 96.3187 318.341 96.8297C318.931 97.319 319.014 98.1929 318.526 98.7828C318.251 99.1144 317.856 99.2856 317.456 99.2856Z" fill="#8E5242"/>
<path d="M278.979 66.8613C277.949 66.8613 276.904 66.7635 275.852 66.5501C268.229 64.998 263.256 57.9606 259.775 52.0023C259.389 51.3417 259.612 50.4923 260.274 50.1063C260.933 49.7189 261.784 49.9419 262.17 50.6037C265.36 56.0633 269.86 62.5 276.405 63.8319C281.767 64.9219 287.104 62.3056 290.642 59.9177C293.395 58.0584 295.907 55.8567 298.11 53.3723C298.617 52.8001 299.495 52.747 300.067 53.2553C300.641 53.7636 300.694 54.6403 300.186 55.2125C297.829 57.8709 295.139 60.2276 292.193 62.2159C288.88 64.453 284.12 66.8613 278.979 66.8613Z" fill="#8E5242"/>
<path d="M185.622 105.746C185.258 105.746 184.894 105.603 184.62 105.319C184.092 104.768 184.109 103.89 184.661 103.359C189.646 98.5741 195.38 94.7374 201.704 91.9553C202.404 91.6468 203.224 91.9648 203.532 92.6661C203.841 93.366 203.521 94.1855 202.822 94.4927C196.797 97.1443 191.332 100.8 186.582 105.36C186.313 105.617 185.967 105.746 185.622 105.746Z" fill="#8E5242"/>
<path d="M204.754 162.435C204.374 162.435 203.996 162.28 203.721 161.974C203.21 161.403 203.258 160.526 203.829 160.015C205.962 158.102 208.698 156.811 211.532 156.377C212.288 156.262 212.996 156.781 213.113 157.538C213.228 158.295 212.708 159.003 211.951 159.118C209.644 159.47 207.417 160.522 205.68 162.081C205.415 162.318 205.083 162.435 204.754 162.435Z" fill="#8E5242"/>
<path d="M281.7 165.185C280.196 165.185 278.697 165.158 277.2 165.102C262.056 164.546 247.128 161.469 234.522 158.532C233.776 158.358 233.313 157.613 233.487 156.867C233.661 156.121 234.406 155.655 235.152 155.832C247.628 158.739 262.392 161.783 277.302 162.331C291.115 162.837 305.165 160.946 319.048 156.706C319.779 156.483 320.554 156.893 320.779 157.627C321.002 158.36 320.59 159.134 319.858 159.357C307.183 163.229 294.368 165.185 281.7 165.185Z" fill="#8E5242"/>
<path d="M237.904 154.584C237.902 154.584 237.899 154.584 237.897 154.584C237.131 154.58 236.514 153.957 236.517 153.19C236.606 134.538 237.836 115.695 240.171 97.1868C240.266 96.4271 240.965 95.8929 241.719 95.984C242.479 96.0805 243.017 96.7736 242.922 97.5334C240.601 115.932 239.379 134.661 239.291 153.204C239.286 153.967 238.667 154.584 237.904 154.584Z" fill="#8E5242"/>
<path d="M245.103 154.583C245.102 154.583 245.102 154.583 245.1 154.583C244.335 154.582 243.715 153.959 243.717 153.194C243.763 132.862 245.297 112.356 248.275 92.2464C248.388 91.4893 249.095 90.9661 249.85 91.0775C250.607 91.1903 251.131 91.8943 251.019 92.6527C248.06 112.63 246.537 133.002 246.489 153.199C246.488 153.965 245.868 154.583 245.103 154.583Z" fill="#8E5242"/>
<path d="M255.649 155.564C255.613 155.564 255.579 155.563 255.544 155.56C254.78 155.505 254.207 154.839 254.264 154.075L254.454 151.522C255.496 137.49 256.576 122.98 257.296 108.694C257.993 94.8669 258.882 78.4598 260.184 61.6096C260.244 60.8471 260.907 60.2763 261.674 60.3347C262.437 60.3932 263.008 61.0605 262.95 61.823C261.649 78.6405 260.762 95.0245 260.066 108.834C259.344 123.153 258.264 137.68 257.22 151.728L257.029 154.28C256.975 155.01 256.368 155.564 255.649 155.564Z" fill="#8E5242"/>
<path d="M266.182 154.588C265.421 154.588 264.801 153.974 264.796 153.212C264.597 126.165 266.209 98.8461 269.586 72.0106C269.683 71.2509 270.382 70.714 271.136 70.8078C271.896 70.9029 272.434 71.596 272.339 72.3571C268.976 99.0703 267.371 126.267 267.57 153.191C267.575 153.958 266.958 154.583 266.193 154.588C266.19 154.588 266.186 154.588 266.182 154.588Z" fill="#8E5242"/>
<path d="M275.968 158.519C275.951 158.519 275.933 158.519 275.915 158.518C275.149 158.489 274.552 157.845 274.582 157.08C275.626 129.494 277.304 101.554 279.57 74.0358C279.634 73.2733 280.305 72.7079 281.066 72.7677C281.829 72.8302 282.397 73.5003 282.334 74.2641C280.072 101.741 278.396 129.639 277.352 157.184C277.325 157.932 276.71 158.519 275.968 158.519Z" fill="#8E5242"/>
<path d="M288.099 159.522C288.086 159.522 288.076 159.522 288.065 159.521C287.299 159.503 286.693 158.867 286.712 158.102L288.748 72.1049C288.767 71.3384 289.418 70.72 290.167 70.7512C290.934 70.7689 291.539 71.405 291.521 72.1701L289.484 158.167C289.466 158.923 288.849 159.522 288.099 159.522Z" fill="#8E5242"/>
<path d="M297.923 155.571C297.922 155.571 297.919 155.571 297.918 155.571C297.153 155.569 296.534 154.946 296.537 154.18L296.884 65.6992C296.888 64.9354 297.508 64.317 298.271 64.317C298.273 64.317 298.274 64.317 298.277 64.317C299.042 64.3211 299.66 64.9435 299.658 65.7101L299.31 154.19C299.307 154.954 298.687 155.571 297.923 155.571Z" fill="#8E5242"/>
<path d="M305.586 153.102C304.832 153.102 304.215 152.499 304.2 151.742C303.857 134.115 304.498 116.278 306.104 98.7292C306.175 97.9654 306.864 97.4068 307.611 97.4748C308.375 97.5441 308.936 98.2196 308.866 98.9821C307.269 116.43 306.631 134.162 306.974 151.688C306.987 152.455 306.379 153.087 305.613 153.102C305.604 153.102 305.594 153.102 305.586 153.102Z" fill="#8E5242"/>
<path d="M313.25 154.589C312.495 154.589 311.875 153.982 311.864 153.222C311.641 137.693 312.483 122.003 314.365 106.59C314.459 105.83 315.144 105.288 315.91 105.382C316.67 105.475 317.211 106.166 317.118 106.927C315.25 122.216 314.415 137.779 314.638 153.183C314.649 153.948 314.037 154.578 313.271 154.589C313.264 154.589 313.257 154.589 313.25 154.589Z" fill="#8E5242"/>
<path d="M202.984 158.491C202.394 158.491 201.847 158.111 201.662 157.518L198.251 146.629C198.021 145.898 198.429 145.12 199.158 144.891C199.89 144.662 200.668 145.069 200.897 145.8L204.308 156.69C204.536 157.42 204.13 158.198 203.399 158.427C203.262 158.471 203.122 158.491 202.984 158.491Z" fill="#8E5242"/>
<path d="M208.301 156.553C207.69 156.553 207.132 156.148 206.963 155.532C206.036 152.138 204.654 148.883 202.859 145.858C202.467 145.2 202.685 144.349 203.344 143.958C204 143.567 204.853 143.784 205.244 144.442C207.166 147.682 208.644 151.167 209.638 154.801C209.84 155.539 209.406 156.301 208.666 156.504C208.544 156.536 208.422 156.553 208.301 156.553Z" fill="#8E5242"/>
<path d="M191.098 120.906C190.587 120.906 190.095 120.622 189.853 120.133L188.191 116.761C187.853 116.075 188.134 115.243 188.822 114.904C189.508 114.566 190.339 114.847 190.678 115.535L192.34 118.907C192.679 119.593 192.398 120.425 191.71 120.764C191.513 120.86 191.303 120.906 191.098 120.906Z" fill="#8E5242"/>
<path d="M195.892 117.027C195.4 117.027 194.924 116.766 194.673 116.304C194.023 115.113 193.812 113.724 194.08 112.395C194.231 111.643 194.958 111.154 195.714 111.309C196.464 111.46 196.95 112.191 196.798 112.943C196.662 113.624 196.774 114.366 197.107 114.976C197.474 115.647 197.226 116.49 196.554 116.857C196.343 116.972 196.116 117.027 195.892 117.027Z" fill="#8E5242"/>
<path d="M200.85 115.04C200.085 115.04 199.464 114.42 199.464 113.653V109.698C199.464 108.933 200.085 108.312 200.85 108.312C201.617 108.312 202.238 108.933 202.238 109.698V113.653C202.238 114.42 201.617 115.04 200.85 115.04Z" fill="#8E5242"/>
<path d="M319.3 96.3906C319.141 96.3906 318.981 96.3635 318.823 96.3064C316.605 95.4936 314.713 93.5447 313.634 90.9583C312.719 88.7661 312.448 86.4053 312.246 84.1764C311.383 74.6028 311.481 64.9029 312.54 55.3498C312.624 54.5873 313.306 54.0409 314.07 54.1239C314.831 54.2081 315.38 54.8931 315.296 55.6542C314.258 65.0252 314.161 74.5376 315.008 83.9276C315.197 86.0261 315.429 88.0593 316.193 89.89C316.976 91.7642 318.282 93.1546 319.776 93.701C320.495 93.9646 320.866 94.7611 320.602 95.48C320.396 96.0427 319.864 96.3906 319.3 96.3906Z" fill="#B53F3A"/>
<path d="M237.574 89.314C237.296 89.314 237.018 89.2311 236.774 89.0585C236.149 88.6168 236.001 87.751 236.443 87.1258L241.277 80.2977C242.067 79.1832 242.884 78.0293 243.401 76.8156C243.995 75.4239 244.248 73.8148 244.44 72.4162C245.248 66.5001 245.412 60.4833 244.926 54.5358C244.864 53.772 245.433 53.102 246.196 53.0408C246.961 52.9824 247.628 53.5465 247.691 54.3103C248.192 60.4575 248.022 66.6754 247.188 72.7914C246.972 74.3679 246.681 76.1945 245.951 77.9043C245.318 79.3898 244.415 80.666 243.541 81.9001L238.707 88.7282C238.437 89.1101 238.009 89.314 237.574 89.314Z" fill="#B53F3A"/>
<path d="M280.457 62.3477C278.444 62.3477 276.342 62.1098 274.273 61.6287C270.378 60.7222 268.565 58.3002 266.813 55.9571C265.888 54.7204 264.932 53.4414 263.637 52.346C263.051 51.8513 262.979 50.976 263.474 50.3916C263.969 49.8058 264.844 49.7338 265.428 50.2285C266.964 51.5278 268.064 52.9984 269.034 54.2963C270.687 56.5062 271.993 58.2513 274.901 58.9268C279.274 59.9448 283.752 59.7667 286.876 58.4484C289.041 57.5364 291.03 55.6976 292.953 53.9171C293.971 52.9766 295.023 52.0035 296.106 51.1609C296.709 50.6893 297.582 50.7993 298.052 51.4028C298.522 52.0076 298.414 52.8788 297.809 53.349C296.82 54.1196 295.856 55.0112 294.837 55.9544C292.737 57.8952 290.566 59.9026 287.954 61.0049C285.842 61.8951 283.234 62.3477 280.457 62.3477Z" fill="#B53F3A"/>
<path d="M205.672 165.739C205.115 165.739 204.591 165.4 204.379 164.849C204.104 164.134 204.462 163.332 205.176 163.057C207.96 161.989 210.586 160.543 212.976 158.758C213.592 158.299 214.46 158.427 214.917 159.041C215.375 159.654 215.249 160.524 214.636 160.982C212.04 162.917 209.191 164.487 206.17 165.646C206.007 165.709 205.838 165.739 205.672 165.739Z" fill="#B53F3A"/>
<path d="M157.642 76.7627C154.383 76.7627 151.454 76.2435 149.999 74.3788C148.946 73.0306 148.812 71.2407 149.601 69.0579C151.072 64.9833 153.861 61.4945 156.559 58.1198C157.579 56.8436 158.542 55.6381 159.43 54.4108C159.879 53.7911 160.744 53.6511 161.366 54.101C161.986 54.5495 162.126 55.4166 161.678 56.0364C160.751 57.318 159.72 58.6051 158.724 59.8514C156.169 63.0493 153.526 66.3574 152.209 69.9998C151.766 71.2271 151.756 72.1254 152.184 72.6718C153.698 74.6112 160.268 73.9358 164.193 73.5321C165.862 73.3609 167.304 73.2127 168.39 73.2113C168.39 73.2113 168.39 73.2113 168.392 73.2113C169.157 73.2113 169.776 73.8311 169.778 74.5977C169.778 75.3628 169.158 75.9839 168.392 75.9853C167.447 75.9853 166.07 76.1266 164.477 76.2911C162.292 76.5153 159.889 76.7627 157.642 76.7627Z" fill="#8D8248"/>
<path d="M161.007 63.8125C160.322 63.8125 159.727 63.3055 159.635 62.6083C159.343 60.4066 159.468 58.266 159.678 56.1825C157.871 56.8077 156.06 57.5402 154.292 58.2551L154.054 58.3516C153.346 58.6398 152.538 58.2959 152.249 57.5864C151.961 56.8756 152.305 56.0683 153.015 55.7815L153.251 55.6851C155.737 54.6793 158.307 53.6396 160.897 52.8785C161.343 52.748 161.823 52.8473 162.18 53.1463C162.535 53.4439 162.719 53.9019 162.666 54.3627L162.618 54.7948C162.329 57.3567 162.055 59.7773 162.383 62.2441C162.483 63.0025 161.951 63.6997 161.191 63.8003C161.13 63.8084 161.069 63.8125 161.007 63.8125Z" fill="#8D8248"/>
<path d="M188.023 51.7231C187.584 51.7231 187.15 51.5139 186.881 51.1238C185.945 49.7674 185.068 48.3322 184.221 46.9432C182.45 44.0415 180.62 41.0406 178.203 38.7451C177.097 37.6932 176.098 37.2107 175.227 37.3126C173.338 37.5341 171.442 40.4508 169.917 42.7939L165.642 49.3679C165.225 50.0094 164.366 50.1915 163.723 49.7742C163.082 49.357 162.9 48.498 163.317 47.8551L167.593 41.2825C169.528 38.3061 171.722 34.9328 174.902 34.5577C176.627 34.3511 178.381 35.0877 180.114 36.735C182.796 39.2833 184.723 42.4432 186.587 45.4985C187.415 46.8549 188.27 48.2561 189.163 49.5486C189.598 50.1792 189.44 51.0422 188.81 51.4771C188.569 51.6429 188.295 51.7231 188.023 51.7231Z" fill="#8D8248"/>
<path d="M188.732 52.7559C188.526 52.7559 188.318 52.7096 188.128 52.6158L187.739 52.4283C185.419 51.3002 183.228 50.2347 180.792 49.721C180.044 49.562 179.564 48.8267 179.723 48.0764C179.88 47.3276 180.614 46.8478 181.366 47.0068C183.539 47.4662 185.514 48.298 187.41 49.1909C187.422 47.2732 187.335 45.312 187.25 43.3997L187.24 43.1673C187.206 42.4022 187.797 41.7539 188.562 41.7199C189.318 41.6968 189.976 42.2785 190.01 43.0437L190.021 43.2761C190.14 45.9617 190.264 48.7397 190.117 51.4443C190.091 51.9077 189.836 52.3291 189.436 52.5642C189.219 52.6906 188.976 52.7559 188.732 52.7559Z" fill="#8D8248"/>
<path d="M185.574 75.4116C184.404 75.4116 183.239 75.379 182.087 75.3477C180.499 75.3042 178.857 75.2594 177.288 75.3042C176.52 75.326 175.884 74.7239 175.862 73.9587C175.839 73.1935 176.442 72.5548 177.207 72.533C178.856 72.4854 180.537 72.5317 182.163 72.5752C185.561 72.6689 189.075 72.7654 192.314 71.988C193.801 71.6319 194.751 71.053 195.137 70.2701C195.978 68.5644 194.562 65.3855 193.426 62.8317L190.236 55.6693C189.925 54.9693 190.24 54.1498 190.94 53.8372C191.637 53.526 192.458 53.8412 192.771 54.5412L195.959 61.7037C197.404 64.9479 199.04 68.6242 197.624 71.496C196.856 73.0536 195.286 74.1273 192.961 74.6845C190.523 75.2703 188.037 75.4116 185.574 75.4116Z" fill="#8D8248"/>
<path d="M182.986 79.7466C182.747 79.7466 182.506 79.6854 182.285 79.5563L182.071 79.4299C179.755 78.0708 177.363 76.6668 175.178 75.0753C174.803 74.8008 174.589 74.3577 174.61 73.8943C174.629 73.4308 174.88 73.0081 175.277 72.7676L175.648 72.5447C177.857 71.2114 179.942 69.9529 181.697 68.1888C182.24 67.6465 183.116 67.6451 183.659 68.1847C184.202 68.7256 184.204 69.6036 183.664 70.1459C182.096 71.7197 180.323 72.9252 178.542 74.0288C180.14 75.0808 181.828 76.0716 183.474 77.0379L183.689 77.1643C184.349 77.5516 184.571 78.4011 184.183 79.0616C183.925 79.5019 183.462 79.7466 182.986 79.7466Z" fill="#8D8248"/>
<path d="M217.825 81.6431C217.092 81.6431 216.48 81.0695 216.441 80.3288C216.401 79.565 216.988 78.9126 217.753 78.8719L225.985 78.4383C226.748 78.4016 227.404 78.9847 227.443 79.7498C227.484 80.515 226.897 81.1674 226.132 81.2082L217.9 81.6417C217.874 81.6431 217.849 81.6431 217.825 81.6431Z" fill="#8D8248"/>
<path d="M225.462 62.5181C223.817 62.5181 222.171 62.3686 220.551 62.0723C219.796 61.935 219.298 61.2133 219.435 60.459C219.572 59.7061 220.298 59.2086 221.048 59.3445C222.998 59.7006 224.989 59.8202 226.966 59.6979C227.738 59.6531 228.389 60.2334 228.435 60.9972C228.482 61.7611 227.901 62.4189 227.136 62.4664C226.578 62.5004 226.021 62.5181 225.462 62.5181Z" fill="#8D8248"/>
<path d="M230.972 43.0981C230.764 43.0981 230.552 43.0506 230.352 42.9514C228.287 41.9144 226.434 40.5417 224.845 38.8659C224.317 38.31 224.341 37.432 224.896 36.9061C225.452 36.3787 226.329 36.4018 226.856 36.9564C228.223 38.3984 229.818 39.5807 231.595 40.4723C232.28 40.8148 232.556 41.648 232.212 42.333C231.969 42.8182 231.48 43.0981 230.972 43.0981Z" fill="#8D8248"/>
<path d="M252.149 32.4824C251.46 32.4824 250.863 31.9673 250.775 31.266C250.467 28.7843 249.624 26.3392 248.337 24.1959C247.944 23.5395 248.156 22.6873 248.814 22.2932C249.472 21.8991 250.322 22.1124 250.715 22.7689C252.199 25.2411 253.171 28.0613 253.527 30.9249C253.622 31.6833 253.083 32.3764 252.323 32.4715C252.265 32.4783 252.206 32.4824 252.149 32.4824Z" fill="#8D8248"/>
<path d="M270.88 29.5229C270.113 29.5229 269.492 28.9032 269.492 28.1366V22.5344C269.492 21.7678 270.113 21.1481 270.88 21.1481C271.645 21.1481 272.266 21.7678 272.266 22.5344V28.1366C272.266 28.9032 271.645 29.5229 270.88 29.5229Z" fill="#8D8248"/>
</svg>
